<svg width="393" height="852" viewBox="0 0 393 852" fill="none" xmlns="http://www.w3.org/2000/svg">

<rect width="393" height="852" fill="#F5F5F5"/>
<path d="M357 765.91C351.467 752.992 343.47 740.889 334.258 729.812C301.582 689.554 246.635 666.561 192.854 668.901C142.404 669.532 101.064 704.713 73.3334 737.851C41.7 774.045 12.3057 821.544 -15.2228 793.958C-77.7387 747.82 -37.0167 619.667 33.505 597.86C47.0028 594.319 60.5455 593.743 76.5291 597.532C88.6202 600.379 101.448 605.496 114.984 612.511C109.111 598.478 100.459 585.606 87.634 575.717C71.0843 562.575 46.1704 556.921 24.3215 563.051C-77.8804 601.997 -125.875 743.095 -36.7595 822.805C-25.4763 831.318 -9.20646 839.565 9.10995 837.764C27.3947 835.949 40.8173 826.14 51.0263 817.227C71.4003 798.655 85.1626 778.987 100.617 761.338C127.438 729.716 157.17 703.08 194.931 699.026C241.207 693.108 289.765 704.673 328.074 736.072C338.712 744.73 348.761 754.59 357 765.91Z" fill="#BFA6EA"/>
<path d="M191 928.91C191 928.91 191 928.91 191 928.91C185.467 915.992 177.47 903.889 168.258 892.812C135.582 852.554 80.6348 829.561 26.8535 831.901C-23.5958 832.532 -64.9361 867.713 -92.6666 900.851C-124.3 937.045 -153.694 984.544 -181.223 956.958C-243.739 910.82 -203.017 782.667 -132.495 760.86C-118.997 757.319 -105.454 756.743 -89.4709 760.532C-77.3798 763.379 -64.5523 768.496 -51.0157 775.511C-51.0157 775.511 -51.0157 775.511 -51.0157 775.511C-56.889 761.478 -65.5409 748.606 -78.366 738.717C-94.9157 725.575 -119.83 719.921 -141.679 726.051C-243.88 764.997 -291.875 906.095 -202.759 985.805C-191.476 994.318 -175.207 1002.56 -156.89 1000.76C-138.605 998.949 -125.183 989.14 -114.974 980.227C-94.5997 961.655 -80.8374 941.987 -65.3831 924.338C-38.5619 892.716 -8.83046 866.08 28.9305 862.026C75.207 856.108 123.765 867.673 162.074 899.072C172.712 907.73 182.761 917.59 191 928.91Z" fill="#BFA6EA"/>
<rect x="112.5" y="416" width="169" height="46" rx="12" fill="#0F372E"/>
<path d="M167.409 445C167.169 445 166.962 444.92 166.789 444.76C166.629 444.6 166.549 444.393 166.549 444.14V430.24C166.549 430 166.629 429.8 166.789 429.64C166.962 429.467 167.169 429.38 167.409 429.38C167.649 429.38 167.849 429.467 168.009 429.64C168.182 429.8 168.269 430 168.269 430.24V443.34H175.909C176.149 443.34 176.349 443.42 176.509 443.58C176.682 443.74 176.769 443.933 176.769 444.16C176.769 444.4 176.682 444.6 176.509 444.76C176.349 444.92 176.149 445 175.909 445H167.409ZM184.044 445.1C182.964 445.1 182.004 444.86 181.164 444.38C180.337 443.9 179.684 443.24 179.204 442.4C178.724 441.56 178.484 440.607 178.484 439.54C178.484 438.46 178.724 437.5 179.204 436.66C179.684 435.82 180.337 435.16 181.164 434.68C182.004 434.2 182.964 433.96 184.044 433.96C185.11 433.96 186.057 434.2 186.884 434.68C187.71 435.16 188.364 435.82 188.844 436.66C189.324 437.5 189.57 438.46 189.584 439.54C189.584 440.607 189.344 441.56 188.864 442.4C188.384 443.24 187.724 443.9 186.884 444.38C186.057 444.86 185.11 445.1 184.044 445.1ZM184.044 443.58C184.79 443.58 185.457 443.407 186.044 443.06C186.63 442.7 187.09 442.22 187.424 441.62C187.757 441.007 187.924 440.313 187.924 439.54C187.924 438.767 187.757 438.073 187.424 437.46C187.09 436.847 186.63 436.367 186.044 436.02C185.457 435.66 184.79 435.48 184.044 435.48C183.297 435.48 182.624 435.66 182.024 436.02C181.437 436.367 180.97 436.847 180.624 437.46C180.29 438.073 180.124 438.767 180.124 439.54C180.124 440.313 180.29 441.007 180.624 441.62C180.97 442.22 181.437 442.7 182.024 443.06C182.624 443.407 183.297 443.58 184.044 443.58ZM197.319 445.1C196.279 445.1 195.359 444.867 194.559 444.4C193.759 443.92 193.133 443.26 192.679 442.42C192.226 441.58 191.999 440.62 191.999 439.54C191.999 438.447 192.239 437.48 192.719 436.64C193.199 435.8 193.853 435.147 194.679 434.68C195.519 434.2 196.479 433.96 197.559 433.96C198.626 433.96 199.573 434.2 200.399 434.68C201.239 435.147 201.893 435.8 202.359 436.64C202.839 437.48 203.086 438.447 203.099 439.54L202.099 439.88C202.099 440.893 201.893 441.793 201.479 442.58C201.079 443.367 200.519 443.987 199.799 444.44C199.079 444.88 198.253 445.1 197.319 445.1ZM197.559 449.38C196.546 449.38 195.633 449.187 194.819 448.8C194.019 448.413 193.346 447.873 192.799 447.18C192.653 447.007 192.593 446.813 192.619 446.6C192.646 446.4 192.753 446.24 192.939 446.12C193.139 445.987 193.353 445.94 193.579 445.98C193.806 446.02 193.986 446.133 194.119 446.32C194.493 446.787 194.973 447.16 195.559 447.44C196.146 447.72 196.826 447.86 197.599 447.86C198.306 447.86 198.953 447.687 199.539 447.34C200.126 447.007 200.586 446.52 200.919 445.88C201.266 445.24 201.439 444.48 201.439 443.6V440.64L202.039 439.28L203.099 439.54V443.7C203.099 444.767 202.859 445.727 202.379 446.58C201.899 447.447 201.246 448.127 200.419 448.62C199.593 449.127 198.639 449.38 197.559 449.38ZM197.559 443.58C198.319 443.58 198.986 443.407 199.559 443.06C200.146 442.713 200.606 442.24 200.939 441.64C201.273 441.027 201.439 440.327 201.439 439.54C201.439 438.753 201.273 438.053 200.939 437.44C200.606 436.827 200.146 436.347 199.559 436C198.986 435.653 198.319 435.48 197.559 435.48C196.799 435.48 196.126 435.653 195.539 436C194.953 436.347 194.486 436.827 194.139 437.44C193.806 438.053 193.639 438.753 193.639 439.54C193.639 440.327 193.806 441.027 194.139 441.64C194.486 442.24 194.953 442.713 195.539 443.06C196.126 443.407 196.799 443.58 197.559 443.58ZM213.014 445C212.761 445 212.554 444.92 212.394 444.76C212.234 444.6 212.154 444.393 212.154 444.14V430.24C212.154 429.987 212.234 429.78 212.394 429.62C212.554 429.46 212.761 429.38 213.014 429.38C213.268 429.38 213.474 429.46 213.634 429.62C213.794 429.78 213.874 429.987 213.874 430.24V444.14C213.874 444.393 213.794 444.6 213.634 444.76C213.474 444.92 213.268 445 213.014 445ZM227.017 445C226.764 445 226.557 444.92 226.397 444.76C226.237 444.6 226.157 444.4 226.157 444.16V439.06C226.157 438.247 226.004 437.587 225.697 437.08C225.404 436.56 224.997 436.173 224.477 435.92C223.957 435.653 223.364 435.52 222.697 435.52C222.07 435.52 221.504 435.647 220.997 435.9C220.504 436.14 220.11 436.473 219.817 436.9C219.524 437.313 219.377 437.793 219.377 438.34H218.217C218.244 437.5 218.464 436.753 218.877 436.1C219.304 435.433 219.87 434.907 220.577 434.52C221.284 434.133 222.07 433.94 222.937 433.94C223.87 433.94 224.704 434.14 225.437 434.54C226.184 434.927 226.77 435.5 227.197 436.26C227.637 437.02 227.857 437.953 227.857 439.06V444.16C227.857 444.4 227.777 444.6 227.617 444.76C227.457 444.92 227.257 445 227.017 445ZM218.537 445C218.27 445 218.057 444.927 217.897 444.78C217.75 444.62 217.677 444.413 217.677 444.16V434.92C217.677 434.653 217.75 434.447 217.897 434.3C218.057 434.14 218.27 434.06 218.537 434.06C218.79 434.06 218.99 434.14 219.137 434.3C219.297 434.447 219.377 434.653 219.377 434.92V444.16C219.377 444.413 219.297 444.62 219.137 444.78C218.99 444.927 218.79 445 218.537 445Z" fill="white"/>
<path d="M39.86 229C39.6067 229 39.4 228.92 39.24 228.76C39.08 228.6 39 228.393 39 228.14V214.24C39 213.987 39.08 213.78 39.24 213.62C39.4 213.46 39.6067 213.38 39.86 213.38H49.14C49.38 213.38 49.58 213.46 49.74 213.62C49.9 213.767 49.98 213.96 49.98 214.2C49.98 214.427 49.9 214.62 49.74 214.78C49.58 214.927 49.38 215 49.14 215H40.72V220.32H46.82C47.0733 220.32 47.28 220.4 47.44 220.56C47.6 220.72 47.68 220.913 47.68 221.14C47.68 221.38 47.6 221.58 47.44 221.74C47.28 221.887 47.0733 221.96 46.82 221.96H40.72V227.38H49.14C49.38 227.38 49.58 227.46 49.74 227.62C49.9 227.767 49.98 227.953 49.98 228.18C49.98 228.42 49.9 228.62 49.74 228.78C49.58 228.927 49.38 229 49.14 229H39.86ZM67.3467 229C67.0934 229 66.8867 228.927 66.7267 228.78C66.5667 228.62 66.4867 228.413 66.4867 228.16V222.42C66.4867 221.5 66.2534 220.787 65.7867 220.28C65.3201 219.773 64.7134 219.52 63.9667 219.52C63.1801 219.52 62.5334 219.787 62.0267 220.32C61.5334 220.853 61.2867 221.553 61.2867 222.42H59.8267C59.8401 221.527 60.0334 220.747 60.4067 220.08C60.7801 219.4 61.2934 218.873 61.9467 218.5C62.6134 218.127 63.3667 217.94 64.2067 217.94C64.9801 217.94 65.6667 218.12 66.2667 218.48C66.8667 218.84 67.3334 219.36 67.6667 220.04C68.0134 220.707 68.1867 221.5 68.1867 222.42V228.16C68.1867 228.413 68.1067 228.62 67.9467 228.78C67.7867 228.927 67.5867 229 67.3467 229ZM53.5467 229C53.2801 229 53.0667 228.927 52.9067 228.78C52.7601 228.62 52.6867 228.413 52.6867 228.16V218.92C52.6867 218.667 52.7601 218.46 52.9067 218.3C53.0667 218.14 53.2801 218.06 53.5467 218.06C53.8001 218.06 54.0001 218.14 54.1467 218.3C54.3067 218.46 54.3867 218.667 54.3867 218.92V228.16C54.3867 228.413 54.3067 228.62 54.1467 228.78C54.0001 228.927 53.8001 229 53.5467 229ZM60.4467 229C60.2067 229 60.0067 228.927 59.8467 228.78C59.6867 228.62 59.6067 228.413 59.6067 228.16V222.42C59.6067 221.5 59.3667 220.787 58.8867 220.28C58.4201 219.773 57.8201 219.52 57.0867 219.52C56.3001 219.52 55.6534 219.78 55.1467 220.3C54.6401 220.82 54.3867 221.5 54.3867 222.34H53.2267C53.2534 221.473 53.4401 220.713 53.7867 220.06C54.1334 219.393 54.6134 218.873 55.2267 218.5C55.8401 218.127 56.5401 217.94 57.3267 217.94C58.1001 217.94 58.7867 218.12 59.3867 218.48C59.9867 218.84 60.4534 219.36 60.7867 220.04C61.1201 220.707 61.2867 221.5 61.2867 222.42V228.16C61.2867 228.413 61.2067 228.62 61.0467 228.78C60.9001 228.927 60.7001 229 60.4467 229ZM76.3134 229.1C75.3001 229.1 74.3934 228.86 73.5934 228.38C72.7934 227.887 72.1601 227.22 71.6934 226.38C71.2268 225.54 70.9934 224.593 70.9934 223.54C70.9934 222.473 71.2334 221.52 71.7134 220.68C72.2068 219.84 72.8734 219.18 73.7134 218.7C74.5534 218.207 75.5001 217.96 76.5534 217.96C77.5934 217.96 78.5268 218.207 79.3534 218.7C80.1934 219.18 80.8534 219.84 81.3334 220.68C81.8268 221.52 82.0801 222.473 82.0934 223.54L81.4134 223.88C81.4134 224.867 81.1868 225.753 80.7334 226.54C80.2934 227.327 79.6868 227.953 78.9134 228.42C78.1534 228.873 77.2868 229.1 76.3134 229.1ZM76.5534 227.58C77.3001 227.58 77.9601 227.407 78.5334 227.06C79.1201 226.7 79.5801 226.213 79.9134 225.6C80.2601 224.987 80.4334 224.3 80.4334 223.54C80.4334 222.767 80.2601 222.08 79.9134 221.48C79.5801 220.867 79.1201 220.38 78.5334 220.02C77.9601 219.66 77.3001 219.48 76.5534 219.48C75.8201 219.48 75.1534 219.66 74.5534 220.02C73.9668 220.38 73.5001 220.867 73.1534 221.48C72.8068 222.08 72.6334 222.767 72.6334 223.54C72.6334 224.3 72.8068 224.987 73.1534 225.6C73.5001 226.213 73.9668 226.7 74.5534 227.06C75.1534 227.407 75.8201 227.58 76.5534 227.58ZM81.2334 229C80.9934 229 80.7868 228.927 80.6134 228.78C80.4534 228.62 80.3734 228.413 80.3734 228.16V224.86L80.7534 223.12L82.0934 223.54V228.16C82.0934 228.413 82.0134 228.62 81.8534 228.78C81.6934 228.927 81.4868 229 81.2334 229ZM86.2291 229C85.9757 229 85.7691 228.927 85.6091 228.78C85.4491 228.62 85.3691 228.407 85.3691 228.14V218.92C85.3691 218.653 85.4491 218.447 85.6091 218.3C85.7691 218.14 85.9757 218.06 86.2291 218.06C86.4824 218.06 86.6824 218.14 86.8291 218.3C86.9891 218.447 87.0691 218.653 87.0691 218.92V228.14C87.0691 228.407 86.9891 228.62 86.8291 228.78C86.6824 228.927 86.4824 229 86.2291 229ZM86.2091 216.08C85.8891 216.08 85.6157 215.967 85.3891 215.74C85.1624 215.5 85.0491 215.22 85.0491 214.9C85.0491 214.567 85.1624 214.293 85.3891 214.08C85.6291 213.867 85.9024 213.76 86.2091 213.76C86.5157 213.76 86.7824 213.867 87.0091 214.08C87.2491 214.293 87.3691 214.567 87.3691 214.9C87.3691 215.22 87.2557 215.5 87.0291 215.74C86.8024 215.967 86.5291 216.08 86.2091 216.08ZM93.3884 229C92.8284 229 92.3351 228.853 91.9084 228.56C91.4818 228.253 91.1484 227.833 90.9084 227.3C90.6684 226.767 90.5484 226.153 90.5484 225.46V214.22C90.5484 213.967 90.6218 213.767 90.7684 213.62C90.9284 213.46 91.1351 213.38 91.3884 213.38C91.6284 213.38 91.8218 213.46 91.9684 213.62C92.1284 213.767 92.2084 213.967 92.2084 214.22V225.46C92.2084 226.007 92.3151 226.46 92.5284 226.82C92.7551 227.167 93.0418 227.34 93.3884 227.34H93.8884C94.1018 227.34 94.2751 227.42 94.4084 227.58C94.5418 227.727 94.6084 227.92 94.6084 228.16C94.6084 228.413 94.5084 228.62 94.3084 228.78C94.1218 228.927 93.8751 229 93.5684 229H93.3884Z" fill="#0F372E"/>
<rect x="37" y="242" width="320" height="46" rx="15" fill="white"/>
<path d="M55.64 271.1C54.5867 271.1 53.6467 270.867 52.82 270.4C52.0067 269.92 51.3667 269.26 50.9 268.42C50.4333 267.58 50.2 266.62 50.2 265.54C50.2 264.447 50.42 263.487 50.86 262.66C51.3 261.82 51.9067 261.16 52.68 260.68C53.4533 260.2 54.34 259.96 55.34 259.96C56.3267 259.96 57.2 260.193 57.96 260.66C58.72 261.113 59.3133 261.747 59.74 262.56C60.1667 263.36 60.38 264.287 60.38 265.34C60.38 265.513 60.3267 265.653 60.22 265.76C60.1133 265.853 59.9733 265.9 59.8 265.9H51V264.86H60.12L59.24 265.52C59.2667 264.653 59.12 263.887 58.8 263.22C58.48 262.553 58.02 262.033 57.42 261.66C56.8333 261.273 56.14 261.08 55.34 261.08C54.58 261.08 53.9 261.273 53.3 261.66C52.7133 262.033 52.2467 262.553 51.9 263.22C51.5667 263.887 51.4 264.66 51.4 265.54C51.4 266.407 51.58 267.173 51.94 267.84C52.3 268.507 52.8 269.033 53.44 269.42C54.08 269.793 54.8133 269.98 55.64 269.98C56.16 269.98 56.68 269.893 57.2 269.72C57.7333 269.533 58.1533 269.293 58.46 269C58.5667 268.893 58.6933 268.84 58.84 268.84C59 268.827 59.1333 268.867 59.24 268.96C59.3867 269.08 59.46 269.213 59.46 269.36C59.4733 269.507 59.4133 269.64 59.28 269.76C58.8533 270.147 58.2933 270.467 57.6 270.72C56.92 270.973 56.2667 271.1 55.64 271.1ZM69.982 271C69.822 271 69.6954 270.973 69.602 270.92C69.5087 270.853 69.4087 270.753 69.302 270.62L65.862 266.06L65.362 265.68L61.862 261.06C61.7554 260.927 61.7087 260.787 61.722 260.64C61.7354 260.48 61.7954 260.347 61.902 260.24C62.0087 260.12 62.1487 260.06 62.322 260.06C62.4954 260.06 62.642 260.12 62.762 260.24L66.102 264.68L66.642 265.1L70.342 270.02C70.5154 270.233 70.5754 270.413 70.522 270.56C70.482 270.707 70.402 270.82 70.282 270.9C70.162 270.967 70.062 271 69.982 271ZM61.882 271C61.7087 271 61.5687 270.947 61.462 270.84C61.3554 270.733 61.2954 270.607 61.282 270.46C61.2687 270.3 61.3154 270.153 61.422 270.02L65.302 265.2L66.002 266.08L62.302 270.82C62.222 270.94 62.082 271 61.882 271ZM66.382 265.76L65.662 264.88L69.302 260.42C69.4087 260.3 69.5087 260.213 69.602 260.16C69.7087 260.093 69.8154 260.06 69.922 260.06C70.1087 260.06 70.2487 260.12 70.342 260.24C70.4354 260.347 70.482 260.48 70.482 260.64C70.482 260.787 70.4287 260.927 70.322 261.06L66.382 265.76ZM77.2258 271.12C76.1591 271.12 75.1991 270.88 74.3458 270.4C73.5058 269.907 72.8391 269.24 72.3458 268.4C71.8658 267.547 71.6258 266.593 71.6258 265.54C71.6258 264.473 71.8658 263.52 72.3458 262.68C72.8391 261.827 73.5058 261.16 74.3458 260.68C75.1991 260.187 76.1591 259.94 77.2258 259.94C78.2924 259.94 79.2458 260.187 80.0858 260.68C80.9258 261.16 81.5858 261.827 82.0658 262.68C82.5591 263.52 82.8058 264.473 82.8058 265.54L82.3058 266.34C82.3058 267.247 82.0791 268.06 81.6258 268.78C81.1858 269.5 80.5858 270.073 79.8258 270.5C79.0658 270.913 78.1991 271.12 77.2258 271.12ZM77.2258 270C78.0658 270 78.8124 269.807 79.4658 269.42C80.1324 269.02 80.6524 268.487 81.0258 267.82C81.4124 267.14 81.6058 266.38 81.6058 265.54C81.6058 264.687 81.4124 263.927 81.0258 263.26C80.6524 262.58 80.1324 262.047 79.4658 261.66C78.8124 261.26 78.0658 261.06 77.2258 261.06C76.3991 261.06 75.6524 261.26 74.9858 261.66C74.3191 262.047 73.7924 262.58 73.4058 263.26C73.0191 263.927 72.8258 264.687 72.8258 265.54C72.8258 266.38 73.0191 267.14 73.4058 267.82C73.7924 268.487 74.3191 269.02 74.9858 269.42C75.6524 269.807 76.3991 270 77.2258 270ZM82.2058 271C82.0324 271 81.8858 270.947 81.7658 270.84C81.6591 270.72 81.6058 270.573 81.6058 270.4V266.74L81.9858 265.54H82.8058V270.4C82.8058 270.573 82.7524 270.72 82.6458 270.84C82.5391 270.947 82.3924 271 82.2058 271ZM100.86 271C100.687 271 100.54 270.947 100.42 270.84C100.313 270.72 100.26 270.573 100.26 270.4V264.62C100.26 263.593 99.9867 262.753 99.44 262.1C98.9067 261.447 98.2067 261.12 97.34 261.12C96.42 261.12 95.6667 261.427 95.08 262.04C94.5067 262.64 94.2333 263.453 94.26 264.48H93.06C93.0867 263.56 93.2867 262.76 93.66 262.08C94.0333 261.4 94.54 260.873 95.18 260.5C95.82 260.113 96.54 259.92 97.34 259.92C98.1533 259.92 98.8667 260.12 99.48 260.52C100.093 260.92 100.573 261.473 100.92 262.18C101.28 262.887 101.46 263.7 101.46 264.62V270.4C101.46 270.573 101.407 270.72 101.3 270.84C101.193 270.947 101.047 271 100.86 271ZM86.4 271C86.2267 271 86.08 270.947 85.96 270.84C85.8533 270.72 85.8 270.573 85.8 270.4V260.66C85.8 260.473 85.8533 260.327 85.96 260.22C86.08 260.113 86.2267 260.06 86.4 260.06C86.5867 260.06 86.7333 260.113 86.84 260.22C86.9467 260.327 87 260.473 87 260.66V270.4C87 270.573 86.9467 270.72 86.84 270.84C86.7333 270.947 86.5867 271 86.4 271ZM93.66 271C93.4867 271 93.34 270.947 93.22 270.84C93.1133 270.72 93.06 270.573 93.06 270.4V264.62C93.06 263.593 92.7867 262.753 92.24 262.1C91.7067 261.447 91.0067 261.12 90.14 261.12C89.22 261.12 88.4667 261.413 87.88 262C87.2933 262.587 87 263.347 87 264.28H86C86.04 263.427 86.24 262.673 86.6 262.02C86.9733 261.367 87.4667 260.853 88.08 260.48C88.6933 260.107 89.38 259.92 90.14 259.92C90.9533 259.92 91.6667 260.12 92.28 260.52C92.8933 260.92 93.3733 261.473 93.72 262.18C94.08 262.887 94.26 263.7 94.26 264.62V270.4C94.26 270.573 94.2067 270.72 94.1 270.84C93.9933 270.947 93.8467 271 93.66 271ZM105.463 275.68C105.289 275.68 105.143 275.62 105.023 275.5C104.916 275.393 104.863 275.253 104.863 275.08V265.42C104.889 264.367 105.143 263.433 105.623 262.62C106.116 261.793 106.783 261.14 107.623 260.66C108.463 260.18 109.403 259.94 110.443 259.94C111.509 259.94 112.463 260.187 113.303 260.68C114.156 261.16 114.823 261.827 115.303 262.68C115.796 263.52 116.043 264.473 116.043 265.54C116.043 266.593 115.796 267.547 115.303 268.4C114.823 269.24 114.156 269.907 113.303 270.4C112.463 270.88 111.509 271.12 110.443 271.12C109.483 271.12 108.616 270.913 107.843 270.5C107.083 270.087 106.489 269.533 106.063 268.84V275.08C106.063 275.253 106.009 275.393 105.903 275.5C105.796 275.62 105.649 275.68 105.463 275.68ZM110.443 270C111.283 270 112.029 269.807 112.683 269.42C113.349 269.02 113.876 268.487 114.263 267.82C114.649 267.14 114.843 266.38 114.843 265.54C114.843 264.687 114.649 263.927 114.263 263.26C113.876 262.58 113.349 262.047 112.683 261.66C112.029 261.26 111.283 261.06 110.443 261.06C109.616 261.06 108.869 261.26 108.202 261.66C107.536 262.047 107.009 262.58 106.623 263.26C106.249 263.927 106.063 264.687 106.063 265.54C106.063 266.38 106.249 267.14 106.623 267.82C107.009 268.487 107.536 269.02 108.202 269.42C108.869 269.807 109.616 270 110.443 270ZM121.242 271C120.736 271 120.282 270.86 119.882 270.58C119.496 270.3 119.189 269.913 118.962 269.42C118.749 268.927 118.642 268.353 118.642 267.7V255.98C118.642 255.793 118.696 255.647 118.802 255.54C118.922 255.433 119.069 255.38 119.242 255.38C119.429 255.38 119.576 255.433 119.682 255.54C119.789 255.647 119.842 255.793 119.842 255.98V267.7C119.842 268.313 119.969 268.82 120.222 269.22C120.489 269.607 120.829 269.8 121.242 269.8H121.742C121.889 269.8 122.009 269.853 122.102 269.96C122.196 270.067 122.242 270.213 122.242 270.4C122.242 270.573 122.189 270.72 122.082 270.84C121.976 270.947 121.829 271 121.642 271H121.242ZM128.667 271.1C127.614 271.1 126.674 270.867 125.847 270.4C125.034 269.92 124.394 269.26 123.927 268.42C123.461 267.58 123.227 266.62 123.227 265.54C123.227 264.447 123.447 263.487 123.887 262.66C124.327 261.82 124.934 261.16 125.707 260.68C126.481 260.2 127.367 259.96 128.367 259.96C129.354 259.96 130.227 260.193 130.987 260.66C131.747 261.113 132.341 261.747 132.767 262.56C133.194 263.36 133.407 264.287 133.407 265.34C133.407 265.513 133.354 265.653 133.247 265.76C133.141 265.853 133.001 265.9 132.827 265.9H124.027V264.86H133.147L132.267 265.52C132.294 264.653 132.147 263.887 131.827 263.22C131.507 262.553 131.047 262.033 130.447 261.66C129.861 261.273 129.167 261.08 128.367 261.08C127.607 261.08 126.927 261.273 126.327 261.66C125.741 262.033 125.274 262.553 124.927 263.22C124.594 263.887 124.427 264.66 124.427 265.54C124.427 266.407 124.607 267.173 124.967 267.84C125.327 268.507 125.827 269.033 126.467 269.42C127.107 269.793 127.841 269.98 128.667 269.98C129.187 269.98 129.707 269.893 130.227 269.72C130.761 269.533 131.181 269.293 131.487 269C131.594 268.893 131.721 268.84 131.867 268.84C132.027 268.827 132.161 268.867 132.267 268.96C132.414 269.08 132.487 269.213 132.487 269.36C132.501 269.507 132.441 269.64 132.307 269.76C131.881 270.147 131.321 270.467 130.627 270.72C129.947 270.973 129.294 271.1 128.667 271.1ZM145.175 275.66C143.695 275.66 142.335 275.413 141.095 274.92C139.855 274.427 138.782 273.727 137.875 272.82C136.968 271.913 136.268 270.84 135.775 269.6C135.282 268.36 135.035 267 135.035 265.52C135.035 264.027 135.282 262.66 135.775 261.42C136.268 260.18 136.968 259.107 137.875 258.2C138.782 257.293 139.855 256.593 141.095 256.1C142.335 255.607 143.695 255.36 145.175 255.36C146.668 255.36 148.035 255.607 149.275 256.1C150.515 256.593 151.588 257.293 152.495 258.2C153.402 259.107 154.102 260.18 154.595 261.42C155.088 262.66 155.335 264.027 155.335 265.52C155.335 266.72 155.175 267.787 154.855 268.72C154.535 269.64 154.088 270.367 153.515 270.9C152.955 271.433 152.302 271.7 151.555 271.7C150.915 271.7 150.388 271.493 149.975 271.08C149.562 270.667 149.355 270.14 149.355 269.5V268.86C149.102 269.247 148.748 269.6 148.295 269.92C147.855 270.227 147.362 270.467 146.815 270.64C146.282 270.813 145.735 270.9 145.175 270.9C144.135 270.9 143.208 270.673 142.395 270.22C141.582 269.753 140.942 269.113 140.475 268.3C140.022 267.487 139.795 266.56 139.795 265.52C139.795 264.467 140.022 263.533 140.475 262.72C140.942 261.907 141.582 261.273 142.395 260.82C143.208 260.353 144.135 260.12 145.175 260.12C146.228 260.12 147.155 260.353 147.955 260.82C148.768 261.273 149.402 261.907 149.855 262.72C150.322 263.533 150.555 264.467 150.555 265.52V269.1C150.555 269.607 150.648 269.967 150.835 270.18C151.022 270.393 151.262 270.5 151.555 270.5C152.062 270.5 152.508 270.287 152.895 269.86C153.282 269.433 153.582 268.847 153.795 268.1C154.022 267.353 154.135 266.493 154.135 265.52C154.135 264.213 153.915 263.013 153.475 261.92C153.035 260.827 152.415 259.88 151.615 259.08C150.815 258.28 149.868 257.66 148.775 257.22C147.682 256.78 146.482 256.56 145.175 256.56C143.868 256.56 142.668 256.78 141.575 257.22C140.482 257.66 139.535 258.28 138.735 259.08C137.935 259.88 137.315 260.827 136.875 261.92C136.448 263.013 136.235 264.213 136.235 265.52C136.235 266.827 136.448 268.027 136.875 269.12C137.315 270.213 137.935 271.16 138.735 271.96C139.535 272.76 140.482 273.373 141.575 273.8C142.668 274.24 143.868 274.46 145.175 274.46C145.802 274.46 146.455 274.387 147.135 274.24C147.828 274.093 148.402 273.913 148.855 273.7C149.122 273.567 149.342 273.533 149.515 273.6C149.688 273.68 149.775 273.853 149.775 274.12C149.775 274.333 149.575 274.56 149.175 274.8C148.788 275.04 148.248 275.24 147.555 275.4C146.875 275.573 146.082 275.66 145.175 275.66ZM145.175 269.7C145.988 269.7 146.708 269.52 147.335 269.16C147.962 268.8 148.455 268.307 148.815 267.68C149.175 267.053 149.355 266.333 149.355 265.52C149.355 264.693 149.175 263.967 148.815 263.34C148.455 262.713 147.962 262.22 147.335 261.86C146.708 261.5 145.988 261.32 145.175 261.32C144.362 261.32 143.642 261.5 143.015 261.86C142.388 262.22 141.895 262.713 141.535 263.34C141.175 263.967 140.995 264.693 140.995 265.52C140.995 266.333 141.175 267.053 141.535 267.68C141.895 268.307 142.388 268.8 143.015 269.16C143.642 269.52 144.362 269.7 145.175 269.7ZM162.73 271.1C161.677 271.1 160.737 270.867 159.91 270.4C159.097 269.92 158.457 269.26 157.99 268.42C157.523 267.58 157.29 266.62 157.29 265.54C157.29 264.447 157.51 263.487 157.95 262.66C158.39 261.82 158.997 261.16 159.77 260.68C160.543 260.2 161.43 259.96 162.43 259.96C163.417 259.96 164.29 260.193 165.05 260.66C165.81 261.113 166.403 261.747 166.83 262.56C167.257 263.36 167.47 264.287 167.47 265.34C167.47 265.513 167.417 265.653 167.31 265.76C167.203 265.853 167.063 265.9 166.89 265.9H158.09V264.86H167.21L166.33 265.52C166.357 264.653 166.21 263.887 165.89 263.22C165.57 262.553 165.11 262.033 164.51 261.66C163.923 261.273 163.23 261.08 162.43 261.08C161.67 261.08 160.99 261.273 160.39 261.66C159.803 262.033 159.337 262.553 158.99 263.22C158.657 263.887 158.49 264.66 158.49 265.54C158.49 266.407 158.67 267.173 159.03 267.84C159.39 268.507 159.89 269.033 160.53 269.42C161.17 269.793 161.903 269.98 162.73 269.98C163.25 269.98 163.77 269.893 164.29 269.72C164.823 269.533 165.243 269.293 165.55 269C165.657 268.893 165.783 268.84 165.93 268.84C166.09 268.827 166.223 268.867 166.33 268.96C166.477 269.08 166.55 269.213 166.55 269.36C166.563 269.507 166.503 269.64 166.37 269.76C165.943 270.147 165.383 270.467 164.69 270.72C164.01 270.973 163.357 271.1 162.73 271.1ZM177.072 271C176.912 271 176.785 270.973 176.692 270.92C176.599 270.853 176.499 270.753 176.392 270.62L172.952 266.06L172.452 265.68L168.952 261.06C168.845 260.927 168.799 260.787 168.812 260.64C168.825 260.48 168.885 260.347 168.992 260.24C169.099 260.12 169.239 260.06 169.412 260.06C169.585 260.06 169.732 260.12 169.852 260.24L173.192 264.68L173.732 265.1L177.432 270.02C177.605 270.233 177.665 270.413 177.612 270.56C177.572 270.707 177.492 270.82 177.372 270.9C177.252 270.967 177.152 271 177.072 271ZM168.972 271C168.799 271 168.659 270.947 168.552 270.84C168.445 270.733 168.385 270.607 168.372 270.46C168.359 270.3 168.405 270.153 168.512 270.02L172.392 265.2L173.092 266.08L169.392 270.82C169.312 270.94 169.172 271 168.972 271ZM173.472 265.76L172.752 264.88L176.392 260.42C176.499 260.3 176.599 260.213 176.692 260.16C176.799 260.093 176.905 260.06 177.012 260.06C177.199 260.06 177.339 260.12 177.432 260.24C177.525 260.347 177.572 260.48 177.572 260.64C177.572 260.787 177.519 260.927 177.412 261.06L173.472 265.76ZM184.316 271.12C183.249 271.12 182.289 270.88 181.436 270.4C180.596 269.907 179.929 269.24 179.436 268.4C178.956 267.547 178.716 266.593 178.716 265.54C178.716 264.473 178.956 263.52 179.436 262.68C179.929 261.827 180.596 261.16 181.436 260.68C182.289 260.187 183.249 259.94 184.316 259.94C185.382 259.94 186.336 260.187 187.176 260.68C188.016 261.16 188.676 261.827 189.156 262.68C189.649 263.52 189.896 264.473 189.896 265.54L189.396 266.34C189.396 267.247 189.169 268.06 188.716 268.78C188.276 269.5 187.676 270.073 186.916 270.5C186.156 270.913 185.289 271.12 184.316 271.12ZM184.316 270C185.156 270 185.902 269.807 186.556 269.42C187.222 269.02 187.742 268.487 188.116 267.82C188.502 267.14 188.696 266.38 188.696 265.54C188.696 264.687 188.502 263.927 188.116 263.26C187.742 262.58 187.222 262.047 186.556 261.66C185.902 261.26 185.156 261.06 184.316 261.06C183.489 261.06 182.742 261.26 182.076 261.66C181.409 262.047 180.882 262.58 180.496 263.26C180.109 263.927 179.916 264.687 179.916 265.54C179.916 266.38 180.109 267.14 180.496 267.82C180.882 268.487 181.409 269.02 182.076 269.42C182.742 269.807 183.489 270 184.316 270ZM189.296 271C189.122 271 188.976 270.947 188.856 270.84C188.749 270.72 188.696 270.573 188.696 270.4V266.74L189.076 265.54H189.896V270.4C189.896 270.573 189.842 270.72 189.736 270.84C189.629 270.947 189.482 271 189.296 271ZM207.95 271C207.777 271 207.63 270.947 207.51 270.84C207.403 270.72 207.35 270.573 207.35 270.4V264.62C207.35 263.593 207.077 262.753 206.53 262.1C205.997 261.447 205.297 261.12 204.43 261.12C203.51 261.12 202.757 261.427 202.17 262.04C201.597 262.64 201.323 263.453 201.35 264.48H200.15C200.177 263.56 200.377 262.76 200.75 262.08C201.123 261.4 201.63 260.873 202.27 260.5C202.91 260.113 203.63 259.92 204.43 259.92C205.243 259.92 205.957 260.12 206.57 260.52C207.183 260.92 207.663 261.473 208.01 262.18C208.37 262.887 208.55 263.7 208.55 264.62V270.4C208.55 270.573 208.497 270.72 208.39 270.84C208.283 270.947 208.137 271 207.95 271ZM193.49 271C193.317 271 193.17 270.947 193.05 270.84C192.943 270.72 192.89 270.573 192.89 270.4V260.66C192.89 260.473 192.943 260.327 193.05 260.22C193.17 260.113 193.317 260.06 193.49 260.06C193.677 260.06 193.823 260.113 193.93 260.22C194.037 260.327 194.09 260.473 194.09 260.66V270.4C194.09 270.573 194.037 270.72 193.93 270.84C193.823 270.947 193.677 271 193.49 271ZM200.75 271C200.577 271 200.43 270.947 200.31 270.84C200.203 270.72 200.15 270.573 200.15 270.4V264.62C200.15 263.593 199.877 262.753 199.33 262.1C198.797 261.447 198.097 261.12 197.23 261.12C196.31 261.12 195.557 261.413 194.97 262C194.383 262.587 194.09 263.347 194.09 264.28H193.09C193.13 263.427 193.33 262.673 193.69 262.02C194.063 261.367 194.557 260.853 195.17 260.48C195.783 260.107 196.47 259.92 197.23 259.92C198.043 259.92 198.757 260.12 199.37 260.52C199.983 260.92 200.463 261.473 200.81 262.18C201.17 262.887 201.35 263.7 201.35 264.62V270.4C201.35 270.573 201.297 270.72 201.19 270.84C201.083 270.947 200.937 271 200.75 271ZM212.552 275.68C212.379 275.68 212.232 275.62 212.112 275.5C212.006 275.393 211.952 275.253 211.952 275.08V265.42C211.979 264.367 212.232 263.433 212.712 262.62C213.206 261.793 213.872 261.14 214.712 260.66C215.552 260.18 216.492 259.94 217.532 259.94C218.599 259.94 219.552 260.187 220.392 260.68C221.246 261.16 221.912 261.827 222.392 262.68C222.886 263.52 223.132 264.473 223.132 265.54C223.132 266.593 222.886 267.547 222.392 268.4C221.912 269.24 221.246 269.907 220.392 270.4C219.552 270.88 218.599 271.12 217.532 271.12C216.572 271.12 215.706 270.913 214.932 270.5C214.172 270.087 213.579 269.533 213.152 268.84V275.08C213.152 275.253 213.099 275.393 212.992 275.5C212.886 275.62 212.739 275.68 212.552 275.68ZM217.532 270C218.372 270 219.119 269.807 219.772 269.42C220.439 269.02 220.966 268.487 221.352 267.82C221.739 267.14 221.932 266.38 221.932 265.54C221.932 264.687 221.739 263.927 221.352 263.26C220.966 262.58 220.439 262.047 219.772 261.66C219.119 261.26 218.372 261.06 217.532 261.06C216.706 261.06 215.959 261.26 215.292 261.66C214.626 262.047 214.099 262.58 213.712 263.26C213.339 263.927 213.152 264.687 213.152 265.54C213.152 266.38 213.339 267.14 213.712 267.82C214.099 268.487 214.626 269.02 215.292 269.42C215.959 269.807 216.706 270 217.532 270ZM228.332 271C227.825 271 227.372 270.86 226.972 270.58C226.585 270.3 226.279 269.913 226.052 269.42C225.839 268.927 225.732 268.353 225.732 267.7V255.98C225.732 255.793 225.785 255.647 225.892 255.54C226.012 255.433 226.159 255.38 226.332 255.38C226.519 255.38 226.665 255.433 226.772 255.54C226.879 255.647 226.932 255.793 226.932 255.98V267.7C226.932 268.313 227.059 268.82 227.312 269.22C227.579 269.607 227.919 269.8 228.332 269.8H228.832C228.979 269.8 229.099 269.853 229.192 269.96C229.285 270.067 229.332 270.213 229.332 270.4C229.332 270.573 229.279 270.72 229.172 270.84C229.065 270.947 228.919 271 228.732 271H228.332ZM235.757 271.1C234.704 271.1 233.764 270.867 232.937 270.4C232.124 269.92 231.484 269.26 231.017 268.42C230.551 267.58 230.317 266.62 230.317 265.54C230.317 264.447 230.537 263.487 230.977 262.66C231.417 261.82 232.024 261.16 232.797 260.68C233.571 260.2 234.457 259.96 235.457 259.96C236.444 259.96 237.317 260.193 238.077 260.66C238.837 261.113 239.431 261.747 239.857 262.56C240.284 263.36 240.497 264.287 240.497 265.34C240.497 265.513 240.444 265.653 240.337 265.76C240.231 265.853 240.091 265.9 239.917 265.9H231.117V264.86H240.237L239.357 265.52C239.384 264.653 239.237 263.887 238.917 263.22C238.597 262.553 238.137 262.033 237.537 261.66C236.951 261.273 236.257 261.08 235.457 261.08C234.697 261.08 234.017 261.273 233.417 261.66C232.831 262.033 232.364 262.553 232.017 263.22C231.684 263.887 231.517 264.66 231.517 265.54C231.517 266.407 231.697 267.173 232.057 267.84C232.417 268.507 232.917 269.033 233.557 269.42C234.197 269.793 234.931 269.98 235.757 269.98C236.277 269.98 236.797 269.893 237.317 269.72C237.851 269.533 238.271 269.293 238.577 269C238.684 268.893 238.811 268.84 238.957 268.84C239.117 268.827 239.251 268.867 239.357 268.96C239.504 269.08 239.577 269.213 239.577 269.36C239.591 269.507 239.531 269.64 239.397 269.76C238.971 270.147 238.411 270.467 237.717 270.72C237.037 270.973 236.384 271.1 235.757 271.1ZM243.325 271.32C243.031 271.32 242.785 271.22 242.585 271.02C242.398 270.833 242.305 270.593 242.305 270.3C242.305 270.007 242.405 269.767 242.605 269.58C242.805 269.393 243.045 269.3 243.325 269.3C243.605 269.3 243.838 269.4 244.025 269.6C244.225 269.787 244.325 270.02 244.325 270.3C244.325 270.58 244.225 270.82 244.025 271.02C243.838 271.22 243.605 271.32 243.325 271.32ZM251.968 271.12C250.928 271.12 249.995 270.873 249.168 270.38C248.355 269.887 247.708 269.22 247.228 268.38C246.761 267.54 246.528 266.593 246.528 265.54C246.528 264.473 246.748 263.52 247.188 262.68C247.628 261.84 248.235 261.18 249.008 260.7C249.781 260.207 250.668 259.96 251.668 259.96C252.521 259.96 253.301 260.127 254.008 260.46C254.715 260.78 255.328 261.273 255.848 261.94C255.955 262.073 255.995 262.213 255.968 262.36C255.941 262.507 255.855 262.627 255.708 262.72C255.588 262.813 255.455 262.853 255.308 262.84C255.161 262.813 255.035 262.733 254.928 262.6C254.075 261.587 252.988 261.08 251.668 261.08C250.881 261.08 250.188 261.273 249.588 261.66C249.001 262.047 248.541 262.573 248.208 263.24C247.888 263.907 247.728 264.673 247.728 265.54C247.728 266.38 247.908 267.14 248.268 267.82C248.628 268.487 249.121 269.02 249.748 269.42C250.388 269.807 251.128 270 251.968 270C252.515 270 253.028 269.92 253.508 269.76C254.001 269.6 254.428 269.353 254.788 269.02C254.908 268.913 255.041 268.853 255.188 268.84C255.335 268.827 255.461 268.873 255.568 268.98C255.701 269.1 255.768 269.24 255.768 269.4C255.781 269.547 255.728 269.673 255.608 269.78C254.635 270.673 253.421 271.12 251.968 271.12ZM263.984 271.12C262.917 271.12 261.957 270.88 261.104 270.4C260.264 269.907 259.597 269.24 259.104 268.4C258.624 267.547 258.384 266.593 258.384 265.54C258.384 264.473 258.624 263.52 259.104 262.68C259.597 261.827 260.264 261.16 261.104 260.68C261.957 260.187 262.917 259.94 263.984 259.94C265.05 259.94 266.004 260.187 266.844 260.68C267.684 261.16 268.344 261.827 268.824 262.68C269.317 263.52 269.564 264.473 269.564 265.54C269.564 266.593 269.317 267.547 268.824 268.4C268.344 269.24 267.684 269.907 266.844 270.4C266.004 270.88 265.05 271.12 263.984 271.12ZM263.984 270C264.824 270 265.57 269.807 266.224 269.42C266.89 269.02 267.41 268.487 267.784 267.82C268.17 267.14 268.364 266.373 268.364 265.52C268.364 264.68 268.17 263.927 267.784 263.26C267.41 262.58 266.89 262.047 266.224 261.66C265.57 261.26 264.824 261.06 263.984 261.06C263.157 261.06 262.41 261.26 261.744 261.66C261.077 262.047 260.55 262.58 260.164 263.26C259.777 263.927 259.584 264.687 259.584 265.54C259.584 266.38 259.777 267.14 260.164 267.82C260.55 268.487 261.077 269.02 261.744 269.42C262.41 269.807 263.157 270 263.984 270ZM287.618 271C287.444 271 287.298 270.947 287.178 270.84C287.071 270.72 287.018 270.573 287.018 270.4V264.62C287.018 263.593 286.744 262.753 286.198 262.1C285.664 261.447 284.964 261.12 284.098 261.12C283.178 261.12 282.424 261.427 281.838 262.04C281.264 262.64 280.991 263.453 281.018 264.48H279.818C279.844 263.56 280.044 262.76 280.418 262.08C280.791 261.4 281.298 260.873 281.938 260.5C282.578 260.113 283.298 259.92 284.098 259.92C284.911 259.92 285.624 260.12 286.238 260.52C286.851 260.92 287.331 261.473 287.678 262.18C288.038 262.887 288.218 263.7 288.218 264.62V270.4C288.218 270.573 288.164 270.72 288.058 270.84C287.951 270.947 287.804 271 287.618 271ZM273.158 271C272.984 271 272.838 270.947 272.718 270.84C272.611 270.72 272.558 270.573 272.558 270.4V260.66C272.558 260.473 272.611 260.327 272.718 260.22C272.838 260.113 272.984 260.06 273.158 260.06C273.344 260.06 273.491 260.113 273.598 260.22C273.704 260.327 273.758 260.473 273.758 260.66V270.4C273.758 270.573 273.704 270.72 273.598 270.84C273.491 270.947 273.344 271 273.158 271ZM280.418 271C280.244 271 280.098 270.947 279.978 270.84C279.871 270.72 279.818 270.573 279.818 270.4V264.62C279.818 263.593 279.544 262.753 278.998 262.1C278.464 261.447 277.764 261.12 276.898 261.12C275.978 261.12 275.224 261.413 274.638 262C274.051 262.587 273.758 263.347 273.758 264.28H272.758C272.798 263.427 272.998 262.673 273.358 262.02C273.731 261.367 274.224 260.853 274.838 260.48C275.451 260.107 276.138 259.92 276.898 259.92C277.711 259.92 278.424 260.12 279.038 260.52C279.651 260.92 280.131 261.473 280.478 262.18C280.838 262.887 281.018 263.7 281.018 264.62V270.4C281.018 270.573 280.964 270.72 280.858 270.84C280.751 270.947 280.604 271 280.418 271Z" fill="#CDCDCD"/>
<path d="M39.86 317C39.6067 317 39.4 316.92 39.24 316.76C39.08 316.6 39 316.393 39 316.14V302.24C39 301.987 39.08 301.78 39.24 301.62C39.4 301.46 39.6067 301.38 39.86 301.38H43.86C44.8467 301.38 45.72 301.6 46.48 302.04C47.2533 302.467 47.8533 303.067 48.28 303.84C48.7067 304.6 48.92 305.487 48.92 306.5C48.92 307.473 48.7067 308.34 48.28 309.1C47.8533 309.847 47.2533 310.44 46.48 310.88C45.72 311.307 44.8467 311.52 43.86 311.52H40.72V316.14C40.72 316.393 40.64 316.6 40.48 316.76C40.32 316.92 40.1133 317 39.86 317ZM40.72 309.88H43.86C44.5133 309.88 45.0933 309.74 45.6 309.46C46.12 309.167 46.5267 308.767 46.82 308.26C47.1133 307.74 47.26 307.153 47.26 306.5C47.26 305.807 47.1133 305.2 46.82 304.68C46.54 304.16 46.14 303.753 45.62 303.46C45.1 303.153 44.5133 303 43.86 303H40.72V309.88ZM55.4541 317.1C54.4407 317.1 53.5341 316.86 52.7341 316.38C51.9341 315.887 51.3007 315.22 50.8341 314.38C50.3674 313.54 50.1341 312.593 50.1341 311.54C50.1341 310.473 50.3741 309.52 50.8541 308.68C51.3474 307.84 52.0141 307.18 52.8541 306.7C53.6941 306.207 54.6407 305.96 55.6941 305.96C56.7341 305.96 57.6674 306.207 58.4941 306.7C59.3341 307.18 59.9941 307.84 60.4741 308.68C60.9674 309.52 61.2207 310.473 61.2341 311.54L60.5541 311.88C60.5541 312.867 60.3274 313.753 59.8741 314.54C59.4341 315.327 58.8274 315.953 58.0541 316.42C57.2941 316.873 56.4274 317.1 55.4541 317.1ZM55.6941 315.58C56.4407 315.58 57.1007 315.407 57.6741 315.06C58.2607 314.7 58.7207 314.213 59.0541 313.6C59.4007 312.987 59.5741 312.3 59.5741 311.54C59.5741 310.767 59.4007 310.08 59.0541 309.48C58.7207 308.867 58.2607 308.38 57.6741 308.02C57.1007 307.66 56.4407 307.48 55.6941 307.48C54.9607 307.48 54.2941 307.66 53.6941 308.02C53.1074 308.38 52.6407 308.867 52.2941 309.48C51.9474 310.08 51.7741 310.767 51.7741 311.54C51.7741 312.3 51.9474 312.987 52.2941 313.6C52.6407 314.213 53.1074 314.7 53.6941 315.06C54.2941 315.407 54.9607 315.58 55.6941 315.58ZM60.3741 317C60.1341 317 59.9274 316.927 59.7541 316.78C59.5941 316.62 59.5141 316.413 59.5141 316.16V312.86L59.8941 311.12L61.2341 311.54V316.16C61.2341 316.413 61.1541 316.62 60.9941 316.78C60.8341 316.927 60.6274 317 60.3741 317ZM68.0897 317.1C67.263 317.1 66.4564 316.967 65.6697 316.7C64.8964 316.42 64.2764 316.027 63.8097 315.52C63.6497 315.347 63.583 315.147 63.6097 314.92C63.6364 314.693 63.743 314.507 63.9297 314.36C64.143 314.2 64.3564 314.133 64.5697 314.16C64.7964 314.187 64.983 314.28 65.1297 314.44C65.423 314.787 65.8297 315.067 66.3497 315.28C66.8697 315.48 67.443 315.58 68.0697 315.58C68.9897 315.58 69.663 315.427 70.0897 315.12C70.5297 314.8 70.7564 314.407 70.7697 313.94C70.7697 313.487 70.5497 313.107 70.1097 312.8C69.683 312.493 68.9497 312.253 67.9097 312.08C66.563 311.853 65.5764 311.473 64.9497 310.94C64.3364 310.407 64.0297 309.767 64.0297 309.02C64.0297 308.34 64.2164 307.773 64.5897 307.32C64.963 306.867 65.4497 306.527 66.0497 306.3C66.663 306.073 67.323 305.96 68.0297 305.96C68.923 305.96 69.6964 306.113 70.3497 306.42C71.003 306.713 71.5297 307.113 71.9297 307.62C72.0764 307.807 72.1364 308.007 72.1097 308.22C72.0964 308.42 71.9897 308.58 71.7897 308.7C71.6164 308.82 71.4097 308.86 71.1697 308.82C70.943 308.78 70.7497 308.673 70.5897 308.5C70.2564 308.14 69.8764 307.88 69.4497 307.72C69.023 307.547 68.5364 307.46 67.9897 307.46C67.2964 307.46 66.7364 307.6 66.3097 307.88C65.883 308.147 65.6697 308.493 65.6697 308.92C65.6697 309.213 65.743 309.467 65.8897 309.68C66.0497 309.893 66.323 310.087 66.7097 310.26C67.1097 310.42 67.6764 310.567 68.4097 310.7C69.4097 310.873 70.1964 311.12 70.7697 311.44C71.3564 311.747 71.7697 312.107 72.0097 312.52C72.263 312.933 72.3897 313.393 72.3897 313.9C72.3897 314.527 72.2097 315.08 71.8497 315.56C71.503 316.027 71.0097 316.4 70.3697 316.68C69.7297 316.96 68.9697 317.1 68.0897 317.1ZM78.8905 317.1C78.0638 317.1 77.2571 316.967 76.4705 316.7C75.6971 316.42 75.0771 316.027 74.6105 315.52C74.4505 315.347 74.3838 315.147 74.4105 314.92C74.4371 314.693 74.5438 314.507 74.7305 314.36C74.9438 314.2 75.1571 314.133 75.3705 314.16C75.5971 314.187 75.7838 314.28 75.9305 314.44C76.2238 314.787 76.6305 315.067 77.1505 315.28C77.6705 315.48 78.2438 315.58 78.8705 315.58C79.7905 315.58 80.4638 315.427 80.8905 315.12C81.3305 314.8 81.5571 314.407 81.5705 313.94C81.5705 313.487 81.3505 313.107 80.9105 312.8C80.4838 312.493 79.7505 312.253 78.7105 312.08C77.3638 311.853 76.3771 311.473 75.7505 310.94C75.1371 310.407 74.8305 309.767 74.8305 309.02C74.8305 308.34 75.0171 307.773 75.3905 307.32C75.7638 306.867 76.2505 306.527 76.8505 306.3C77.4638 306.073 78.1238 305.96 78.8305 305.96C79.7238 305.96 80.4971 306.113 81.1505 306.42C81.8038 306.713 82.3305 307.113 82.7305 307.62C82.8771 307.807 82.9371 308.007 82.9105 308.22C82.8971 308.42 82.7905 308.58 82.5905 308.7C82.4171 308.82 82.2105 308.86 81.9705 308.82C81.7438 308.78 81.5505 308.673 81.3905 308.5C81.0571 308.14 80.6771 307.88 80.2505 307.72C79.8238 307.547 79.3371 307.46 78.7905 307.46C78.0971 307.46 77.5371 307.6 77.1105 307.88C76.6838 308.147 76.4705 308.493 76.4705 308.92C76.4705 309.213 76.5438 309.467 76.6905 309.68C76.8505 309.893 77.1238 310.087 77.5105 310.26C77.9105 310.42 78.4771 310.567 79.2105 310.7C80.2105 310.873 80.9971 311.12 81.5705 311.44C82.1571 311.747 82.5705 312.107 82.8105 312.52C83.0638 312.933 83.1905 313.393 83.1905 313.9C83.1905 314.527 83.0105 315.08 82.6505 315.56C82.3038 316.027 81.8105 316.4 81.1705 316.68C80.5305 316.96 79.7705 317.1 78.8905 317.1ZM88.3313 317C88.1446 317 87.9779 316.947 87.8313 316.84C87.6846 316.733 87.5779 316.607 87.5113 316.46L84.4513 307.24C84.3579 306.88 84.3579 306.593 84.4513 306.38C84.5579 306.167 84.7646 306.06 85.0713 306.06C85.2713 306.06 85.4446 306.113 85.5913 306.22C85.7379 306.327 85.8513 306.5 85.9313 306.74L88.6313 315.06H88.1113L90.6313 306.7C90.6846 306.513 90.7779 306.36 90.9113 306.24C91.0579 306.12 91.2379 306.06 91.4513 306.06C91.6779 306.06 91.8579 306.12 91.9913 306.24C92.1379 306.36 92.2379 306.513 92.2913 306.7L94.5912 314.76H94.2513L96.8713 306.74C97.0179 306.287 97.2913 306.06 97.6913 306.06C98.0113 306.06 98.2313 306.18 98.3513 306.42C98.4713 306.647 98.4713 306.92 98.3513 307.24L95.2713 316.46C95.2179 316.607 95.1179 316.733 94.9713 316.84C94.8379 316.947 94.6779 317 94.4913 317C94.3046 317 94.1313 316.947 93.9713 316.84C93.8246 316.733 93.7246 316.607 93.6713 316.46L91.2913 308.32H91.5313L89.1113 316.46C89.0579 316.62 88.9579 316.753 88.8113 316.86C88.6646 316.953 88.5046 317 88.3313 317ZM105.147 317.1C104.067 317.1 103.107 316.86 102.267 316.38C101.441 315.9 100.787 315.24 100.307 314.4C99.8272 313.56 99.5872 312.607 99.5872 311.54C99.5872 310.46 99.8272 309.5 100.307 308.66C100.787 307.82 101.441 307.16 102.267 306.68C103.107 306.2 104.067 305.96 105.147 305.96C106.214 305.96 107.161 306.2 107.987 306.68C108.814 307.16 109.467 307.82 109.947 308.66C110.427 309.5 110.674 310.46 110.687 311.54C110.687 312.607 110.447 313.56 109.967 314.4C109.487 315.24 108.827 315.9 107.987 316.38C107.161 316.86 106.214 317.1 105.147 317.1ZM105.147 315.58C105.894 315.58 106.561 315.407 107.147 315.06C107.734 314.7 108.194 314.22 108.527 313.62C108.861 313.007 109.027 312.313 109.027 311.54C109.027 310.767 108.861 310.073 108.527 309.46C108.194 308.847 107.734 308.367 107.147 308.02C106.561 307.66 105.894 307.48 105.147 307.48C104.401 307.48 103.727 307.66 103.127 308.02C102.541 308.367 102.074 308.847 101.727 309.46C101.394 310.073 101.227 310.767 101.227 311.54C101.227 312.313 101.394 313.007 101.727 313.62C102.074 314.22 102.541 314.7 103.127 315.06C103.727 315.407 104.401 315.58 105.147 315.58ZM114.423 310.22C114.449 309.407 114.656 308.68 115.043 308.04C115.443 307.387 115.963 306.873 116.603 306.5C117.256 306.127 117.969 305.94 118.743 305.94C119.423 305.94 119.936 306.04 120.283 306.24C120.643 306.44 120.776 306.713 120.683 307.06C120.643 307.247 120.556 307.38 120.423 307.46C120.303 307.54 120.156 307.58 119.983 307.58C119.823 307.58 119.636 307.567 119.423 307.54C118.636 307.447 117.936 307.5 117.323 307.7C116.723 307.887 116.243 308.2 115.883 308.64C115.523 309.08 115.343 309.607 115.343 310.22H114.423ZM114.523 317C114.256 317 114.049 316.927 113.903 316.78C113.756 316.633 113.683 316.427 113.683 316.16V306.9C113.683 306.633 113.756 306.427 113.903 306.28C114.049 306.133 114.256 306.06 114.523 306.06C114.789 306.06 114.989 306.133 115.123 306.28C115.269 306.427 115.343 306.633 115.343 306.9V316.16C115.343 316.427 115.269 316.633 115.123 316.78C114.989 316.927 114.789 317 114.523 317ZM127.198 317.1C126.145 317.1 125.198 316.86 124.358 316.38C123.518 315.887 122.851 315.22 122.358 314.38C121.878 313.54 121.638 312.587 121.638 311.52C121.638 310.467 121.871 309.52 122.338 308.68C122.805 307.84 123.438 307.18 124.238 306.7C125.038 306.207 125.945 305.96 126.958 305.96C127.825 305.96 128.605 306.147 129.298 306.52C130.005 306.88 130.578 307.36 131.018 307.96V302.24C131.018 301.973 131.098 301.767 131.258 301.62C131.431 301.46 131.638 301.38 131.878 301.38C132.131 301.38 132.338 301.46 132.498 301.62C132.658 301.767 132.738 301.973 132.738 302.24V311.58C132.711 312.62 132.451 313.56 131.958 314.4C131.478 315.227 130.825 315.887 129.998 316.38C129.171 316.86 128.238 317.1 127.198 317.1ZM127.198 315.58C127.945 315.58 128.605 315.4 129.178 315.04C129.765 314.68 130.225 314.2 130.558 313.6C130.905 312.987 131.078 312.293 131.078 311.52C131.078 310.76 130.905 310.073 130.558 309.46C130.225 308.847 129.765 308.367 129.178 308.02C128.605 307.66 127.945 307.48 127.198 307.48C126.465 307.48 125.798 307.66 125.198 308.02C124.611 308.367 124.145 308.847 123.798 309.46C123.451 310.073 123.278 310.76 123.278 311.52C123.278 312.293 123.451 312.987 123.798 313.6C124.145 314.2 124.611 314.68 125.198 315.04C125.798 315.4 126.465 315.58 127.198 315.58Z" fill="#0F372E"/>
<rect x="37" y="330" width="320" height="46" rx="15" fill="white"/>
<path d="M51.38 348.92C51.2067 348.92 51.06 348.86 50.94 348.74C50.8333 348.62 50.78 348.473 50.78 348.3C50.78 348.233 50.7867 348.173 50.8 348.12C50.8267 348.053 50.8667 347.993 50.92 347.94L52.66 346.42L50.62 346.2C50.4067 346.173 50.2467 346.1 50.14 345.98C50.0467 345.86 50 345.727 50 345.58C50.0267 345.393 50.0867 345.247 50.18 345.14C50.2867 345.033 50.4267 344.98 50.6 344.98C50.6667 344.98 50.7333 345 50.8 345.04C50.88 345.067 50.9467 345.093 51 345.12L52.72 346.12L52.32 344.18C52.3067 344.14 52.2933 344.107 52.28 344.08C52.28 344.04 52.28 344 52.28 343.96C52.28 343.787 52.3333 343.647 52.44 343.54C52.56 343.42 52.7067 343.36 52.88 343.36C53.0533 343.36 53.2 343.42 53.32 343.54C53.44 343.647 53.5 343.787 53.5 343.96C53.5 344 53.4933 344.04 53.48 344.08C53.48 344.107 53.4733 344.14 53.46 344.18L53.04 346.14L54.98 345.02C55.06 344.993 55.1267 344.98 55.18 344.98C55.3267 344.98 55.4667 345.04 55.6 345.16C55.7333 345.267 55.8 345.413 55.8 345.6C55.8 345.813 55.74 345.967 55.62 346.06C55.5 346.14 55.3533 346.187 55.18 346.2L53.14 346.42L54.72 347.78C54.9067 347.94 55 348.113 55 348.3C55 348.473 54.94 348.62 54.82 348.74C54.7 348.86 54.5467 348.92 54.36 348.92C54.2267 348.92 54.1133 348.88 54.02 348.8C53.94 348.72 53.8667 348.627 53.8 348.52L52.9 346.6L51.96 348.5C51.9067 348.633 51.8333 348.74 51.74 348.82C51.6467 348.887 51.5267 348.92 51.38 348.92ZM58.9972 348.92C58.8239 348.92 58.6772 348.86 58.5572 348.74C58.4505 348.62 58.3972 348.473 58.3972 348.3C58.3972 348.233 58.4039 348.173 58.4172 348.12C58.4439 348.053 58.4839 347.993 58.5372 347.94L60.2772 346.42L58.2372 346.2C58.0239 346.173 57.8639 346.1 57.7572 345.98C57.6639 345.86 57.6172 345.727 57.6172 345.58C57.6439 345.393 57.7039 345.247 57.7972 345.14C57.9039 345.033 58.0439 344.98 58.2172 344.98C58.2839 344.98 58.3505 345 58.4172 345.04C58.4972 345.067 58.5639 345.093 58.6172 345.12L60.3372 346.12L59.9372 344.18C59.9239 344.14 59.9105 344.107 59.8972 344.08C59.8972 344.04 59.8972 344 59.8972 343.96C59.8972 343.787 59.9505 343.647 60.0572 343.54C60.1772 343.42 60.3239 343.36 60.4972 343.36C60.6705 343.36 60.8172 343.42 60.9372 343.54C61.0572 343.647 61.1172 343.787 61.1172 343.96C61.1172 344 61.1105 344.04 61.0972 344.08C61.0972 344.107 61.0905 344.14 61.0772 344.18L60.6572 346.14L62.5972 345.02C62.6772 344.993 62.7439 344.98 62.7972 344.98C62.9439 344.98 63.0839 345.04 63.2172 345.16C63.3505 345.267 63.4172 345.413 63.4172 345.6C63.4172 345.813 63.3572 345.967 63.2372 346.06C63.1172 346.14 62.9705 346.187 62.7972 346.2L60.7572 346.42L62.3372 347.78C62.5239 347.94 62.6172 348.113 62.6172 348.3C62.6172 348.473 62.5572 348.62 62.4372 348.74C62.3172 348.86 62.1639 348.92 61.9772 348.92C61.8439 348.92 61.7305 348.88 61.6372 348.8C61.5572 348.72 61.4839 348.627 61.4172 348.52L60.5172 346.6L59.5772 348.5C59.5239 348.633 59.4505 348.74 59.3572 348.82C59.2639 348.887 59.1439 348.92 58.9972 348.92ZM66.6144 348.92C66.441 348.92 66.2944 348.86 66.1744 348.74C66.0677 348.62 66.0144 348.473 66.0144 348.3C66.0144 348.233 66.021 348.173 66.0344 348.12C66.061 348.053 66.101 347.993 66.1544 347.94L67.8944 346.42L65.8544 346.2C65.641 346.173 65.481 346.1 65.3744 345.98C65.281 345.86 65.2344 345.727 65.2344 345.58C65.261 345.393 65.321 345.247 65.4144 345.14C65.521 345.033 65.661 344.98 65.8344 344.98C65.901 344.98 65.9677 345 66.0344 345.04C66.1144 345.067 66.181 345.093 66.2344 345.12L67.9544 346.12L67.5544 344.18C67.541 344.14 67.5277 344.107 67.5144 344.08C67.5144 344.04 67.5144 344 67.5144 343.96C67.5144 343.787 67.5677 343.647 67.6744 343.54C67.7944 343.42 67.941 343.36 68.1144 343.36C68.2877 343.36 68.4344 343.42 68.5544 343.54C68.6744 343.647 68.7344 343.787 68.7344 343.96C68.7344 344 68.7277 344.04 68.7144 344.08C68.7144 344.107 68.7077 344.14 68.6944 344.18L68.2744 346.14L70.2144 345.02C70.2944 344.993 70.361 344.98 70.4144 344.98C70.561 344.98 70.701 345.04 70.8344 345.16C70.9677 345.267 71.0344 345.413 71.0344 345.6C71.0344 345.813 70.9744 345.967 70.8544 346.06C70.7344 346.14 70.5877 346.187 70.4144 346.2L68.3744 346.42L69.9544 347.78C70.141 347.94 70.2344 348.113 70.2344 348.3C70.2344 348.473 70.1744 348.62 70.0544 348.74C69.9344 348.86 69.781 348.92 69.5944 348.92C69.461 348.92 69.3477 348.88 69.2544 348.8C69.1744 348.72 69.101 348.627 69.0344 348.52L68.1344 346.6L67.1944 348.5C67.141 348.633 67.0677 348.74 66.9744 348.82C66.881 348.887 66.761 348.92 66.6144 348.92ZM74.2316 348.92C74.0582 348.92 73.9116 348.86 73.7916 348.74C73.6849 348.62 73.6316 348.473 73.6316 348.3C73.6316 348.233 73.6382 348.173 73.6516 348.12C73.6782 348.053 73.7182 347.993 73.7716 347.94L75.5116 346.42L73.4716 346.2C73.2582 346.173 73.0982 346.1 72.9916 345.98C72.8982 345.86 72.8516 345.727 72.8516 345.58C72.8782 345.393 72.9382 345.247 73.0316 345.14C73.1382 345.033 73.2782 344.98 73.4516 344.98C73.5182 344.98 73.5849 345 73.6516 345.04C73.7316 345.067 73.7982 345.093 73.8516 345.12L75.5716 346.12L75.1716 344.18C75.1582 344.14 75.1449 344.107 75.1316 344.08C75.1316 344.04 75.1316 344 75.1316 343.96C75.1316 343.787 75.1849 343.647 75.2916 343.54C75.4116 343.42 75.5582 343.36 75.7316 343.36C75.9049 343.36 76.0516 343.42 76.1716 343.54C76.2916 343.647 76.3516 343.787 76.3516 343.96C76.3516 344 76.3449 344.04 76.3316 344.08C76.3316 344.107 76.3249 344.14 76.3116 344.18L75.8916 346.14L77.8316 345.02C77.9116 344.993 77.9782 344.98 78.0316 344.98C78.1782 344.98 78.3182 345.04 78.4516 345.16C78.5849 345.267 78.6516 345.413 78.6516 345.6C78.6516 345.813 78.5916 345.967 78.4716 346.06C78.3516 346.14 78.2049 346.187 78.0316 346.2L75.9916 346.42L77.5716 347.78C77.7582 347.94 77.8516 348.113 77.8516 348.3C77.8516 348.473 77.7916 348.62 77.6716 348.74C77.5516 348.86 77.3982 348.92 77.2116 348.92C77.0782 348.92 76.9649 348.88 76.8716 348.8C76.7916 348.72 76.7182 348.627 76.6516 348.52L75.7516 346.6L74.8116 348.5C74.7582 348.633 74.6849 348.74 74.5916 348.82C74.4982 348.887 74.3782 348.92 74.2316 348.92ZM81.8488 348.92C81.6754 348.92 81.5288 348.86 81.4088 348.74C81.3021 348.62 81.2488 348.473 81.2488 348.3C81.2488 348.233 81.2554 348.173 81.2688 348.12C81.2954 348.053 81.3354 347.993 81.3888 347.94L83.1288 346.42L81.0888 346.2C80.8754 346.173 80.7154 346.1 80.6088 345.98C80.5154 345.86 80.4688 345.727 80.4688 345.58C80.4954 345.393 80.5554 345.247 80.6488 345.14C80.7554 345.033 80.8954 344.98 81.0688 344.98C81.1354 344.98 81.2021 345 81.2688 345.04C81.3488 345.067 81.4154 345.093 81.4688 345.12L83.1888 346.12L82.7888 344.18C82.7754 344.14 82.7621 344.107 82.7488 344.08C82.7488 344.04 82.7488 344 82.7488 343.96C82.7488 343.787 82.8021 343.647 82.9088 343.54C83.0288 343.42 83.1754 343.36 83.3488 343.36C83.5221 343.36 83.6688 343.42 83.7888 343.54C83.9088 343.647 83.9688 343.787 83.9688 343.96C83.9688 344 83.9621 344.04 83.9488 344.08C83.9488 344.107 83.9421 344.14 83.9288 344.18L83.5088 346.14L85.4488 345.02C85.5288 344.993 85.5954 344.98 85.6488 344.98C85.7954 344.98 85.9354 345.04 86.0688 345.16C86.2021 345.267 86.2688 345.413 86.2688 345.6C86.2688 345.813 86.2088 345.967 86.0888 346.06C85.9688 346.14 85.8221 346.187 85.6488 346.2L83.6088 346.42L85.1888 347.78C85.3754 347.94 85.4688 348.113 85.4688 348.3C85.4688 348.473 85.4088 348.62 85.2888 348.74C85.1688 348.86 85.0154 348.92 84.8288 348.92C84.6954 348.92 84.5821 348.88 84.4888 348.8C84.4088 348.72 84.3354 348.627 84.2688 348.52L83.3688 346.6L82.4288 348.5C82.3754 348.633 82.3021 348.74 82.2088 348.82C82.1154 348.887 81.9954 348.92 81.8488 348.92ZM89.4659 348.92C89.2926 348.92 89.1459 348.86 89.0259 348.74C88.9193 348.62 88.8659 348.473 88.8659 348.3C88.8659 348.233 88.8726 348.173 88.8859 348.12C88.9126 348.053 88.9526 347.993 89.0059 347.94L90.7459 346.42L88.7059 346.2C88.4926 346.173 88.3326 346.1 88.2259 345.98C88.1326 345.86 88.0859 345.727 88.0859 345.58C88.1126 345.393 88.1726 345.247 88.2659 345.14C88.3726 345.033 88.5126 344.98 88.6859 344.98C88.7526 344.98 88.8193 345 88.8859 345.04C88.9659 345.067 89.0326 345.093 89.0859 345.12L90.8059 346.12L90.4059 344.18C90.3926 344.14 90.3793 344.107 90.3659 344.08C90.3659 344.04 90.3659 344 90.3659 343.96C90.3659 343.787 90.4193 343.647 90.5259 343.54C90.6459 343.42 90.7926 343.36 90.9659 343.36C91.1393 343.36 91.2859 343.42 91.4059 343.54C91.5259 343.647 91.5859 343.787 91.5859 343.96C91.5859 344 91.5793 344.04 91.5659 344.08C91.5659 344.107 91.5593 344.14 91.5459 344.18L91.1259 346.14L93.0659 345.02C93.1459 344.993 93.2126 344.98 93.2659 344.98C93.4126 344.98 93.5526 345.04 93.6859 345.16C93.8193 345.267 93.8859 345.413 93.8859 345.6C93.8859 345.813 93.8259 345.967 93.7059 346.06C93.5859 346.14 93.4393 346.187 93.2659 346.2L91.2259 346.42L92.8059 347.78C92.9926 347.94 93.0859 348.113 93.0859 348.3C93.0859 348.473 93.0259 348.62 92.9059 348.74C92.7859 348.86 92.6326 348.92 92.4459 348.92C92.3126 348.92 92.1993 348.88 92.1059 348.8C92.0259 348.72 91.9526 348.627 91.8859 348.52L90.9859 346.6L90.0459 348.5C89.9926 348.633 89.9193 348.74 89.8259 348.82C89.7326 348.887 89.6126 348.92 89.4659 348.92ZM97.0831 348.92C96.9098 348.92 96.7631 348.86 96.6431 348.74C96.5365 348.62 96.4831 348.473 96.4831 348.3C96.4831 348.233 96.4898 348.173 96.5031 348.12C96.5298 348.053 96.5698 347.993 96.6231 347.94L98.3631 346.42L96.3231 346.2C96.1098 346.173 95.9498 346.1 95.8431 345.98C95.7498 345.86 95.7031 345.727 95.7031 345.58C95.7298 345.393 95.7898 345.247 95.8831 345.14C95.9898 345.033 96.1298 344.98 96.3031 344.98C96.3698 344.98 96.4365 345 96.5031 345.04C96.5831 345.067 96.6498 345.093 96.7031 345.12L98.4231 346.12L98.0231 344.18C98.0098 344.14 97.9965 344.107 97.9831 344.08C97.9831 344.04 97.9831 344 97.9831 343.96C97.9831 343.787 98.0365 343.647 98.1431 343.54C98.2631 343.42 98.4098 343.36 98.5831 343.36C98.7565 343.36 98.9031 343.42 99.0231 343.54C99.1431 343.647 99.2031 343.787 99.2031 343.96C99.2031 344 99.1965 344.04 99.1831 344.08C99.1831 344.107 99.1765 344.14 99.1631 344.18L98.7431 346.14L100.683 345.02C100.763 344.993 100.83 344.98 100.883 344.98C101.03 344.98 101.17 345.04 101.303 345.16C101.436 345.267 101.503 345.413 101.503 345.6C101.503 345.813 101.443 345.967 101.323 346.06C101.203 346.14 101.056 346.187 100.883 346.2L98.8431 346.42L100.423 347.78C100.61 347.94 100.703 348.113 100.703 348.3C100.703 348.473 100.643 348.62 100.523 348.74C100.403 348.86 100.25 348.92 100.063 348.92C99.9298 348.92 99.8165 348.88 99.7231 348.8C99.6431 348.72 99.5698 348.627 99.5031 348.52L98.6031 346.6L97.6631 348.5C97.6098 348.633 97.5365 348.74 97.4431 348.82C97.3498 348.887 97.2298 348.92 97.0831 348.92ZM104.7 348.92C104.527 348.92 104.38 348.86 104.26 348.74C104.154 348.62 104.1 348.473 104.1 348.3C104.1 348.233 104.107 348.173 104.12 348.12C104.147 348.053 104.187 347.993 104.24 347.94L105.98 346.42L103.94 346.2C103.727 346.173 103.567 346.1 103.46 345.98C103.367 345.86 103.32 345.727 103.32 345.58C103.347 345.393 103.407 345.247 103.5 345.14C103.607 345.033 103.747 344.98 103.92 344.98C103.987 344.98 104.054 345 104.12 345.04C104.2 345.067 104.267 345.093 104.32 345.12L106.04 346.12L105.64 344.18C105.627 344.14 105.614 344.107 105.6 344.08C105.6 344.04 105.6 344 105.6 343.96C105.6 343.787 105.654 343.647 105.76 343.54C105.88 343.42 106.027 343.36 106.2 343.36C106.374 343.36 106.52 343.42 106.64 343.54C106.76 343.647 106.82 343.787 106.82 343.96C106.82 344 106.814 344.04 106.8 344.08C106.8 344.107 106.794 344.14 106.78 344.18L106.36 346.14L108.3 345.02C108.38 344.993 108.447 344.98 108.5 344.98C108.647 344.98 108.787 345.04 108.92 345.16C109.054 345.267 109.12 345.413 109.12 345.6C109.12 345.813 109.06 345.967 108.94 346.06C108.82 346.14 108.674 346.187 108.5 346.2L106.46 346.42L108.04 347.78C108.227 347.94 108.32 348.113 108.32 348.3C108.32 348.473 108.26 348.62 108.14 348.74C108.02 348.86 107.867 348.92 107.68 348.92C107.547 348.92 107.434 348.88 107.34 348.8C107.26 348.72 107.187 348.627 107.12 348.52L106.22 346.6L105.28 348.5C105.227 348.633 105.154 348.74 105.06 348.82C104.967 348.887 104.847 348.92 104.7 348.92ZM112.318 348.92C112.144 348.92 111.998 348.86 111.878 348.74C111.771 348.62 111.718 348.473 111.718 348.3C111.718 348.233 111.724 348.173 111.738 348.12C111.764 348.053 111.804 347.993 111.858 347.94L113.598 346.42L111.558 346.2C111.344 346.173 111.184 346.1 111.078 345.98C110.984 345.86 110.938 345.727 110.938 345.58C110.964 345.393 111.024 345.247 111.118 345.14C111.224 345.033 111.364 344.98 111.538 344.98C111.604 344.98 111.671 345 111.738 345.04C111.818 345.067 111.884 345.093 111.938 345.12L113.658 346.12L113.258 344.18C113.244 344.14 113.231 344.107 113.218 344.08C113.218 344.04 113.218 344 113.218 343.96C113.218 343.787 113.271 343.647 113.378 343.54C113.498 343.42 113.644 343.36 113.818 343.36C113.991 343.36 114.138 343.42 114.258 343.54C114.378 343.647 114.438 343.787 114.438 343.96C114.438 344 114.431 344.04 114.418 344.08C114.418 344.107 114.411 344.14 114.398 344.18L113.978 346.14L115.918 345.02C115.998 344.993 116.064 344.98 116.118 344.98C116.264 344.98 116.404 345.04 116.538 345.16C116.671 345.267 116.738 345.413 116.738 345.6C116.738 345.813 116.678 345.967 116.558 346.06C116.438 346.14 116.291 346.187 116.118 346.2L114.078 346.42L115.658 347.78C115.844 347.94 115.938 348.113 115.938 348.3C115.938 348.473 115.878 348.62 115.758 348.74C115.638 348.86 115.484 348.92 115.298 348.92C115.164 348.92 115.051 348.88 114.958 348.8C114.878 348.72 114.804 348.627 114.738 348.52L113.838 346.6L112.898 348.5C112.844 348.633 112.771 348.74 112.678 348.82C112.584 348.887 112.464 348.92 112.318 348.92ZM119.935 348.92C119.761 348.92 119.615 348.86 119.495 348.74C119.388 348.62 119.335 348.473 119.335 348.3C119.335 348.233 119.341 348.173 119.355 348.12C119.381 348.053 119.421 347.993 119.475 347.94L121.215 346.42L119.175 346.2C118.961 346.173 118.801 346.1 118.695 345.98C118.601 345.86 118.555 345.727 118.555 345.58C118.581 345.393 118.641 345.247 118.735 345.14C118.841 345.033 118.981 344.98 119.155 344.98C119.221 344.98 119.288 345 119.355 345.04C119.435 345.067 119.501 345.093 119.555 345.12L121.275 346.12L120.875 344.18C120.861 344.14 120.848 344.107 120.835 344.08C120.835 344.04 120.835 344 120.835 343.96C120.835 343.787 120.888 343.647 120.995 343.54C121.115 343.42 121.261 343.36 121.435 343.36C121.608 343.36 121.755 343.42 121.875 343.54C121.995 343.647 122.055 343.787 122.055 343.96C122.055 344 122.048 344.04 122.035 344.08C122.035 344.107 122.028 344.14 122.015 344.18L121.595 346.14L123.535 345.02C123.615 344.993 123.681 344.98 123.735 344.98C123.881 344.98 124.021 345.04 124.155 345.16C124.288 345.267 124.355 345.413 124.355 345.6C124.355 345.813 124.295 345.967 124.175 346.06C124.055 346.14 123.908 346.187 123.735 346.2L121.695 346.42L123.275 347.78C123.461 347.94 123.555 348.113 123.555 348.3C123.555 348.473 123.495 348.62 123.375 348.74C123.255 348.86 123.101 348.92 122.915 348.92C122.781 348.92 122.668 348.88 122.575 348.8C122.495 348.72 122.421 348.627 122.355 348.52L121.455 346.6L120.515 348.5C120.461 348.633 120.388 348.74 120.295 348.82C120.201 348.887 120.081 348.92 119.935 348.92ZM127.552 348.92C127.379 348.92 127.232 348.86 127.112 348.74C127.005 348.62 126.952 348.473 126.952 348.3C126.952 348.233 126.959 348.173 126.972 348.12C126.999 348.053 127.039 347.993 127.092 347.94L128.832 346.42L126.792 346.2C126.579 346.173 126.419 346.1 126.312 345.98C126.219 345.86 126.172 345.727 126.172 345.58C126.199 345.393 126.259 345.247 126.352 345.14C126.459 345.033 126.599 344.98 126.772 344.98C126.839 344.98 126.905 345 126.972 345.04C127.052 345.067 127.119 345.093 127.172 345.12L128.892 346.12L128.492 344.18C128.479 344.14 128.465 344.107 128.452 344.08C128.452 344.04 128.452 344 128.452 343.96C128.452 343.787 128.505 343.647 128.612 343.54C128.732 343.42 128.879 343.36 129.052 343.36C129.225 343.36 129.372 343.42 129.492 343.54C129.612 343.647 129.672 343.787 129.672 343.96C129.672 344 129.665 344.04 129.652 344.08C129.652 344.107 129.645 344.14 129.632 344.18L129.212 346.14L131.152 345.02C131.232 344.993 131.299 344.98 131.352 344.98C131.499 344.98 131.639 345.04 131.772 345.16C131.905 345.267 131.972 345.413 131.972 345.6C131.972 345.813 131.912 345.967 131.792 346.06C131.672 346.14 131.525 346.187 131.352 346.2L129.312 346.42L130.892 347.78C131.079 347.94 131.172 348.113 131.172 348.3C131.172 348.473 131.112 348.62 130.992 348.74C130.872 348.86 130.719 348.92 130.532 348.92C130.399 348.92 130.285 348.88 130.192 348.8C130.112 348.72 130.039 348.627 129.972 348.52L129.072 346.6L128.132 348.5C128.079 348.633 128.005 348.74 127.912 348.82C127.819 348.887 127.699 348.92 127.552 348.92ZM135.169 348.92C134.996 348.92 134.849 348.86 134.729 348.74C134.622 348.62 134.569 348.473 134.569 348.3C134.569 348.233 134.576 348.173 134.589 348.12C134.616 348.053 134.656 347.993 134.709 347.94L136.449 346.42L134.409 346.2C134.196 346.173 134.036 346.1 133.929 345.98C133.836 345.86 133.789 345.727 133.789 345.58C133.816 345.393 133.876 345.247 133.969 345.14C134.076 345.033 134.216 344.98 134.389 344.98C134.456 344.98 134.522 345 134.589 345.04C134.669 345.067 134.736 345.093 134.789 345.12L136.509 346.12L136.109 344.18C136.096 344.14 136.082 344.107 136.069 344.08C136.069 344.04 136.069 344 136.069 343.96C136.069 343.787 136.122 343.647 136.229 343.54C136.349 343.42 136.496 343.36 136.669 343.36C136.842 343.36 136.989 343.42 137.109 343.54C137.229 343.647 137.289 343.787 137.289 343.96C137.289 344 137.282 344.04 137.269 344.08C137.269 344.107 137.262 344.14 137.249 344.18L136.829 346.14L138.769 345.02C138.849 344.993 138.916 344.98 138.969 344.98C139.116 344.98 139.256 345.04 139.389 345.16C139.522 345.267 139.589 345.413 139.589 345.6C139.589 345.813 139.529 345.967 139.409 346.06C139.289 346.14 139.142 346.187 138.969 346.2L136.929 346.42L138.509 347.78C138.696 347.94 138.789 348.113 138.789 348.3C138.789 348.473 138.729 348.62 138.609 348.74C138.489 348.86 138.336 348.92 138.149 348.92C138.016 348.92 137.902 348.88 137.809 348.8C137.729 348.72 137.656 348.627 137.589 348.52L136.689 346.6L135.749 348.5C135.696 348.633 135.622 348.74 135.529 348.82C135.436 348.887 135.316 348.92 135.169 348.92Z" fill="#CDCDCD"/>
<path d="M341.795 349.672C343.761 351.036 345 352.628 345 353.31C345 354.611 340.89 358.488 335 358.488C334.196 358.488 333.424 358.415 332.692 358.287M339.487 348.375C338.134 347.779 336.608 347.38 335 347.38C329.521 347.38 325 352.008 325 353.31C325 354.246 327.127 356.515 330.513 357.714M334.828 355.991C335.508 356.055 336.213 355.912 336.85 355.534C337.812 354.964 338.402 353.985 338.533 352.934M332.949 355.191C332.647 354.933 332.384 354.617 332.177 354.248C331.232 352.567 331.793 350.417 333.429 349.446C334.858 348.598 336.636 348.931 337.692 350.149M342.821 345L327.308 361" stroke="#0F372E" stroke-linecap="round"/>
<path d="M421.177 10.5601C401.392 3.52002 381.608 -3.52002 361.823 -10.5601C360.353 -4.90728 357.248 3.54202 354.426 10.4831C336.005 55.1965 305.475 98.5684 261.203 108.543C257.625 109.313 254.281 109.976 250.702 110.587C198.664 123.377 149.408 98.2278 88 95.3896C82.2335 95.462 76.5676 96.1114 70.9898 97.291C29.0424 107.134 0.439287 138.823 -24.5619 169.618C-30.3656 177.085 -35.7093 184.093 -41.284 192.895C-29.0947 198.298 -16.9053 203.702 -4.71597 209.105C-3.07104 202.253 0.0131168 193.966 3.24385 186.505C17.3199 154.319 41.4877 122.304 74.7147 114.901C79.1061 113.973 83.5238 113.539 88 113.61C138.288 116.123 193.079 153.613 254.599 146.375C258.758 146.14 262.646 145.855 266.797 145.457C332.42 138.256 378.051 86.8065 407.529 37.1196C412.352 28.7809 416.718 20.8417 421.177 10.5601Z" fill="#BFA6EA"/>
<path d="M160.922 51C160.618 51 160.354 50.896 160.13 50.688C159.922 50.464 159.818 50.192 159.818 49.872V33.384C159.818 33.064 159.922 32.8 160.13 32.592C160.354 32.368 160.618 32.256 160.922 32.256C161.242 32.256 161.506 32.368 161.714 32.592C161.938 32.8 162.05 33.064 162.05 33.384V48.792H171.026C171.33 48.792 171.594 48.896 171.818 49.104C172.042 49.312 172.154 49.576 172.154 49.896C172.154 50.2 172.042 50.464 171.818 50.688C171.594 50.896 171.33 51 171.026 51H160.922ZM180.858 51.096C179.578 51.096 178.434 50.816 177.426 50.256C176.434 49.68 175.65 48.896 175.074 47.904C174.514 46.896 174.234 45.744 174.234 44.448C174.234 43.136 174.514 41.984 175.074 40.992C175.65 39.984 176.434 39.2 177.426 38.64C178.434 38.064 179.578 37.776 180.858 37.776C182.138 37.776 183.274 38.064 184.266 38.64C185.274 39.2 186.058 39.984 186.618 40.992C187.194 41.984 187.49 43.136 187.506 44.448C187.506 45.744 187.218 46.896 186.642 47.904C186.066 48.896 185.282 49.68 184.29 50.256C183.298 50.816 182.154 51.096 180.858 51.096ZM180.858 49.128C181.738 49.128 182.514 48.928 183.186 48.528C183.858 48.128 184.386 47.576 184.77 46.872C185.154 46.168 185.346 45.36 185.346 44.448C185.346 43.536 185.154 42.728 184.77 42.024C184.386 41.304 183.858 40.744 183.186 40.344C182.514 39.944 181.738 39.744 180.858 39.744C179.994 39.744 179.218 39.944 178.53 40.344C177.858 40.744 177.33 41.304 176.946 42.024C176.562 42.728 176.37 43.536 176.37 44.448C176.37 45.36 176.562 46.168 176.946 46.872C177.33 47.576 177.858 48.128 178.53 48.528C179.218 48.928 179.994 49.128 180.858 49.128ZM196.717 51.096C195.485 51.096 194.397 50.816 193.453 50.256C192.525 49.68 191.789 48.896 191.245 47.904C190.717 46.896 190.453 45.744 190.453 44.448C190.453 43.136 190.733 41.984 191.293 40.992C191.869 39.984 192.653 39.2 193.645 38.64C194.653 38.064 195.797 37.776 197.077 37.776C198.373 37.776 199.517 38.064 200.509 38.64C201.501 39.2 202.277 39.984 202.837 40.992C203.413 41.984 203.709 43.136 203.725 44.448L202.429 44.664C202.429 45.928 202.181 47.048 201.685 48.024C201.205 48.984 200.533 49.736 199.669 50.28C198.805 50.824 197.821 51.096 196.717 51.096ZM197.077 56.352C195.893 56.352 194.805 56.12 193.813 55.656C192.837 55.208 192.021 54.56 191.365 53.712C191.173 53.472 191.093 53.216 191.125 52.944C191.173 52.688 191.317 52.48 191.557 52.32C191.813 52.144 192.085 52.08 192.373 52.128C192.661 52.192 192.893 52.336 193.069 52.56C193.517 53.12 194.077 53.56 194.749 53.88C195.437 54.2 196.229 54.36 197.125 54.36C197.941 54.36 198.685 54.16 199.357 53.76C200.029 53.376 200.565 52.808 200.965 52.056C201.365 51.32 201.565 50.432 201.565 49.392V45.888L202.309 44.064L203.725 44.448V49.512C203.725 50.792 203.437 51.944 202.861 52.968C202.301 54.008 201.517 54.832 200.509 55.44C199.517 56.048 198.373 56.352 197.077 56.352ZM197.077 49.128C197.957 49.128 198.733 48.928 199.405 48.528C200.077 48.128 200.605 47.576 200.989 46.872C201.373 46.168 201.565 45.36 201.565 44.448C201.565 43.536 201.373 42.728 200.989 42.024C200.605 41.304 200.077 40.744 199.405 40.344C198.733 39.944 197.957 39.744 197.077 39.744C196.213 39.744 195.437 39.944 194.749 40.344C194.077 40.744 193.549 41.304 193.165 42.024C192.781 42.728 192.589 43.536 192.589 44.448C192.589 45.36 192.781 46.168 193.165 46.872C193.549 47.576 194.077 48.128 194.749 48.528C195.437 48.928 196.213 49.128 197.077 49.128ZM215.743 51C215.423 51 215.151 50.896 214.927 50.688C214.719 50.464 214.615 50.192 214.615 49.872V33.384C214.615 33.048 214.719 32.776 214.927 32.568C215.151 32.36 215.423 32.256 215.743 32.256C216.079 32.256 216.351 32.36 216.559 32.568C216.767 32.776 216.871 33.048 216.871 33.384V49.872C216.871 50.192 216.767 50.464 216.559 50.688C216.351 50.896 216.079 51 215.743 51ZM232.59 51.024C232.27 51.024 231.998 50.92 231.774 50.712C231.566 50.488 231.462 50.224 231.462 49.92V43.872C231.462 42.928 231.286 42.16 230.934 41.568C230.582 40.96 230.11 40.512 229.518 40.224C228.926 39.92 228.246 39.768 227.478 39.768C226.758 39.768 226.11 39.912 225.534 40.2C224.958 40.488 224.494 40.872 224.142 41.352C223.806 41.832 223.638 42.384 223.638 43.008H222.198C222.214 42 222.47 41.104 222.966 40.32C223.462 39.52 224.134 38.896 224.982 38.448C225.83 37.984 226.782 37.752 227.838 37.752C228.958 37.752 229.958 37.992 230.838 38.472C231.718 38.936 232.414 39.624 232.926 40.536C233.438 41.448 233.694 42.56 233.694 43.872V49.92C233.694 50.224 233.582 50.488 233.358 50.712C233.15 50.92 232.894 51.024 232.59 51.024ZM222.534 51.024C222.214 51.024 221.95 50.92 221.742 50.712C221.534 50.504 221.43 50.24 221.43 49.92V38.976C221.43 38.64 221.534 38.376 221.742 38.184C221.95 37.976 222.214 37.872 222.534 37.872C222.87 37.872 223.134 37.976 223.326 38.184C223.534 38.376 223.638 38.64 223.638 38.976V49.92C223.638 50.24 223.534 50.504 223.326 50.712C223.134 50.92 222.87 51.024 222.534 51.024Z" fill="#0F372E"/>
<path d="M48.77 52.23L47 54L37 44L47 34L48.77 35.77L40.54 44L48.77 52.23Z" fill="#0F372E"/>
</svg>
