<svg width="42" height="42" viewBox="0 0 42 42" fill="none" xmlns="http://www.w3.org/2000/svg">
<path d="M36.4824 30.1889C36.2919 31.1412 36.0062 32.0935 35.5301 33.1411C33.1493 38.0932 28.4829 39.9978 27.2449 40.474C24.5783 41.5215 22.1023 41.712 20.6738 41.712C19.2453 41.712 16.7693 41.5215 14.1028 40.474C12.96 39.9978 8.19837 38.0932 5.81756 33.1411C5.3414 32.0935 5.0557 31.1412 4.86523 30.1889C6.38895 30.4746 9.91255 30.8555 12.96 29.9032C14.198 29.5223 15.0551 29.3318 16.0074 28.6652C17.055 28.0938 17.5311 27.5224 18.7692 27.1414C19.531 26.8557 20.1977 26.7605 20.6738 26.7605C21.15 26.7605 21.8166 26.8557 22.5785 27.1414C23.7213 27.5224 24.2926 28.0938 25.3402 28.6652C26.3878 29.2366 27.1496 29.5223 28.3876 29.9032C31.4351 30.8555 34.9587 30.3793 36.4824 30.1889Z" fill="#F9E5D3"/>
<path d="M36.4823 30.1888C34.9586 30.4745 31.435 30.8554 28.3876 29.9031C27.1496 29.5222 26.2925 29.3317 25.3401 28.6651C24.2926 28.0937 23.8164 27.5223 22.5784 27.1413C21.8165 26.8557 21.1499 26.7604 20.6737 26.7604C20.1976 26.7604 19.531 26.8557 18.7691 27.1413C17.6263 27.5223 17.0549 28.0937 16.0074 28.6651C14.9598 29.2365 14.1979 29.5222 12.9599 29.9031C9.91249 30.7602 6.38889 30.3792 4.86517 30.1888C4.38901 28.0937 4.57947 25.9986 4.6747 23.9987C4.86517 20.7608 5.43656 20.856 6.19842 16.0944C6.86505 11.6185 6.38889 10.6661 7.05551 7.333C7.62691 4.19033 8.57923 1.71429 9.34109 0.000106812C11.341 1.99999 12.3885 3.71417 12.8647 4.95219C12.9599 5.23789 13.5313 6.76161 14.7693 8.28533C15.436 9.14242 15.8169 9.42812 16.1026 9.61858C16.8645 10.0947 17.6263 10.19 18.8643 10.3804C19.6262 10.4757 21.6261 10.4757 22.3879 10.3804C23.626 10.19 24.3878 10.0947 25.1497 9.61858C25.4354 9.42812 25.8163 9.14242 26.4829 8.28533C27.6257 6.76161 28.1971 5.33312 28.3876 4.95219C28.8637 3.71417 29.9113 1.99999 31.9112 0.000106812C32.673 1.61906 33.6254 4.19033 34.1967 7.333C34.8634 10.7614 34.3872 11.6185 35.0538 16.0944C35.7205 20.7608 36.2919 20.7608 36.5776 23.9987C36.768 25.9986 36.8633 27.9984 36.4823 30.1888Z" fill="#EEC39A"/>
<path d="M21.1498 26.2843C19.9118 20.9513 25.4353 16.9516 25.721 16.6659C31.1492 12.8566 37.7202 15.904 38.0059 15.9992C36.387 16.4754 34.2919 17.3325 33.6252 19.1419C32.6729 21.618 35.4347 23.4274 34.9585 26.57C34.4823 29.3318 31.6254 32.4745 28.1018 32.4745C24.4829 32.5697 21.8164 29.2366 21.1498 26.2843Z" stroke="#9674CE" stroke-width="2" stroke-miterlimit="10"/>
<path d="M20.1974 26.2843C21.4355 20.9513 15.912 16.9516 15.6263 16.6659C10.198 12.8566 3.62701 15.904 3.34131 15.9992C4.96026 16.4754 7.05538 17.3325 7.722 19.1419C8.67433 21.618 5.91258 23.4274 6.38875 26.57C6.86491 29.3318 9.72188 32.4745 13.2455 32.4745C16.8643 32.5697 19.5308 29.2366 20.1974 26.2843Z" stroke="#9674CE" stroke-width="2" stroke-miterlimit="10"/>
<path d="M24.4834 26.0939C24.6739 24.6654 25.6262 23.5226 26.9594 23.0465C28.4832 22.5703 30.1973 23.2369 31.0544 24.6654C29.4355 25.4273 27.3404 26.0939 25.0548 26.0939C24.8643 26.1891 24.6739 26.1891 24.4834 26.0939Z" fill="black"/>
<path d="M16.8645 26.0939C16.674 24.6654 15.7217 23.5226 14.3885 23.0465C12.8647 22.5703 11.1505 23.2369 10.2935 24.6654C11.9124 25.4273 14.0075 26.0939 16.2931 26.0939C16.4836 26.1891 16.674 26.1891 16.8645 26.0939Z" fill="black"/>
<path d="M25.4354 33.9982C25.4354 35.6172 24.2926 36.8552 22.9593 36.9504C22.1022 37.0456 21.1499 36.4742 20.5785 35.6172C20.0071 36.4742 19.15 36.9504 18.2929 36.9504C17.0549 36.8552 15.8169 35.6172 15.8169 33.9982C16.2931 35.5219 17.5311 36.2838 18.5786 36.0933C19.4357 35.9029 20.2928 35.0458 20.1024 34.4744C19.9119 33.8077 18.4834 33.8077 18.1977 32.8554C18.1977 32.7602 18.1025 32.4745 18.2929 32.3793C18.4834 32.1888 18.8643 32.3793 19.7214 32.4745C20.1024 32.4745 20.3881 32.5697 20.5785 32.5697C20.769 32.5697 21.0547 32.5697 21.4356 32.4745C22.2927 32.3793 22.6736 32.1888 22.8641 32.3793C23.0546 32.5697 22.9593 32.8554 22.9593 32.8554C22.6736 33.8077 21.2451 33.8077 21.0547 34.4744C20.8642 35.0458 21.7213 35.9981 22.5784 36.0933C23.7212 36.2838 24.9592 35.5219 25.4354 33.9982Z" fill="black"/>
</svg>
