<svg width="172" height="76" viewBox="0 0 172 76" fill="none" xmlns="http://www.w3.org/2000/svg">
<path d="M53.8589 47.333C53.6684 48.2853 53.3827 49.2376 52.9065 50.2852C50.5257 55.2373 45.8593 57.1419 44.6213 57.6181C41.9548 58.6656 39.4788 58.8561 38.0503 58.8561C36.6218 58.8561 34.1457 58.6656 31.4792 57.6181C30.3365 57.1419 25.5748 55.2373 23.194 50.2852C22.7179 49.2376 22.4322 48.2853 22.2417 47.333C23.7654 47.6187 27.289 47.9996 30.3365 47.0473C31.5745 46.6663 32.4316 46.4759 33.3839 45.8093C34.4314 45.2379 34.9076 44.6665 36.1456 44.2855C36.9075 43.9998 37.5741 43.9046 38.0503 43.9046C38.5264 43.9046 39.1931 43.9998 39.9549 44.2855C41.0977 44.6665 41.6691 45.2379 42.7167 45.8093C43.7642 46.3807 44.5261 46.6663 45.7641 47.0473C48.8115 47.9996 52.3351 47.5234 53.8589 47.333Z" fill="#F9E5D3"/>
<path d="M53.8588 47.3329C52.3351 47.6186 48.8115 47.9995 45.764 47.0472C44.526 46.6663 43.6689 46.4758 42.7166 45.8092C41.669 45.2378 41.1929 44.6664 39.9549 44.2854C39.193 43.9998 38.5264 43.9045 38.0502 43.9045C37.5741 43.9045 36.9074 43.9998 36.1456 44.2854C35.0028 44.6664 34.4314 45.2378 33.3838 45.8092C32.3363 46.3806 31.5744 46.6663 30.3364 47.0472C27.289 47.9043 23.7654 47.5233 22.2416 47.3329C21.7655 45.2378 21.9559 43.1427 22.0512 41.1428C22.2416 37.9049 22.813 38.0001 23.5749 33.2385C24.2415 28.7626 23.7654 27.8102 24.432 24.4771C25.0034 21.3344 25.9557 18.8584 26.7176 17.1442C28.7174 19.1441 29.765 20.8583 30.2412 22.0963C30.3364 22.382 30.9078 23.9057 32.1458 25.4294C32.8124 26.2865 33.1934 26.5722 33.4791 26.7627C34.2409 27.2388 35.0028 27.3341 36.2408 27.5245C37.0027 27.6198 39.0025 27.6198 39.7644 27.5245C41.0024 27.3341 41.7643 27.2388 42.5261 26.7627C42.8118 26.5722 43.1928 26.2865 43.8594 25.4294C45.0022 23.9057 45.5736 22.4772 45.764 22.0963C46.2402 20.8583 47.2878 19.1441 49.2876 17.1442C50.0495 18.7632 51.0018 21.3344 51.5732 24.4771C52.2398 27.9055 51.7637 28.7626 52.4303 33.2385C53.0969 37.9049 53.6683 37.9049 53.954 41.1428C54.1445 43.1427 54.2397 45.1425 53.8588 47.3329Z" fill="#EEC39A"/>
<path d="M38.5263 43.4284C37.2882 38.0954 42.8117 34.0957 43.0974 33.81C48.5257 30.0007 55.0967 33.0481 55.3824 33.1433C53.7635 33.6195 51.6683 34.4766 51.0017 36.286C50.0494 38.762 52.8111 40.5715 52.335 43.7141C51.8588 46.4759 49.0018 49.6185 45.4782 49.6185C41.8594 49.7138 39.1929 46.3806 38.5263 43.4284Z" stroke="#9674CE" stroke-width="2" stroke-miterlimit="10"/>
<path d="M37.5739 43.4284C38.8119 38.0954 33.2885 34.0957 33.0028 33.81C27.5745 30.0007 21.0035 33.0481 20.7178 33.1433C22.3367 33.6195 24.4318 34.4766 25.0985 36.286C26.0508 38.762 23.289 40.5715 23.7652 43.7141C24.2414 46.4759 27.0983 49.6185 30.6219 49.6185C34.2408 49.7138 36.9073 46.3806 37.5739 43.4284Z" stroke="#9674CE" stroke-width="2" stroke-miterlimit="10"/>
<path d="M41.8599 43.238C42.0503 41.8095 43.0027 40.6667 44.3359 40.1906C45.8596 39.7144 47.5738 40.381 48.4309 41.8095C46.812 42.5714 44.7168 43.238 42.4313 43.238C42.2408 43.3332 42.0503 43.3332 41.8599 43.238Z" fill="black"/>
<path d="M34.241 43.238C34.0505 41.8095 33.0982 40.6667 31.7649 40.1906C30.2412 39.7144 28.527 40.381 27.6699 41.8095C29.2889 42.5714 31.384 43.238 33.6696 43.238C33.86 43.3332 34.0505 43.3332 34.241 43.238Z" fill="black"/>
<path d="M42.8118 51.1423C42.8118 52.7612 41.669 53.9993 40.3358 54.0945C39.4787 54.1897 38.5264 53.6183 37.955 52.7612C37.3836 53.6183 36.5265 54.0945 35.6694 54.0945C34.4314 53.9993 33.1934 52.7612 33.1934 51.1423C33.6695 52.666 34.9075 53.4279 35.9551 53.2374C36.8122 53.0469 37.6693 52.1898 37.4788 51.6185C37.2884 50.9518 35.8599 50.9518 35.5742 49.9995C35.5742 49.9043 35.4789 49.6186 35.6694 49.5233C35.8599 49.3329 36.2408 49.5233 37.0979 49.6186C37.4788 49.6186 37.7645 49.7138 37.955 49.7138C38.1454 49.7138 38.4311 49.7138 38.8121 49.6186C39.6692 49.5233 40.0501 49.3329 40.2406 49.5233C40.431 49.7138 40.3358 49.9995 40.3358 49.9995C40.0501 50.9518 38.6216 50.9518 38.4311 51.6185C38.2407 52.1898 39.0978 53.1422 39.9549 53.2374C41.0976 53.4279 42.3357 52.666 42.8118 51.1423Z" fill="black"/>
<path d="M71.7633 44.0949C71.4776 43.8092 71.3823 43.5235 71.3823 43.1425C71.3823 42.7616 71.4776 42.4759 71.8585 42.1902L78.9057 34.9525H72.906C72.5251 34.9525 72.1442 34.8573 71.8585 34.5716C71.668 34.1907 71.4776 33.8098 71.4776 33.4288C71.4776 33.2384 71.4776 33.0479 71.5728 32.8574C71.668 32.667 71.7633 32.5717 71.8585 32.3813C72.1442 32.0956 72.4299 32.0003 72.906 32.0003H81.9531C82.1436 32.0003 82.2388 32.0003 82.4293 32.0956H82.5245H82.6198L82.715 32.1908L82.8102 32.286C83.0007 32.3813 83.1911 32.5717 83.2864 32.7622C83.3816 32.9527 83.4768 33.1431 83.4768 33.4288V33.5241C83.4768 34.0002 83.2864 34.2859 83.0007 34.5716L75.9535 41.8093H82.3341C82.715 41.8093 83.0959 41.9045 83.3816 42.1902C83.6673 42.4759 83.7625 42.7616 83.7625 43.1425C83.7625 43.5235 83.6673 43.9044 83.3816 44.1901C83.0959 44.4758 82.715 44.571 82.3341 44.571H72.8108C72.4299 44.571 72.049 44.3805 71.7633 44.0949Z" fill="white"/>
<path d="M89.6669 44.3806C89.3812 44.1901 89.286 43.9997 89.0955 43.714L85.0005 34.0003C84.9053 33.8098 84.8101 33.6193 84.8101 33.4289C84.8101 33.0479 84.9053 32.667 85.191 32.3813C85.4767 32.0956 85.8576 31.9052 86.2385 31.9052C86.5242 31.9052 86.8099 32.0004 87.0004 32.0956C87.1909 32.1908 87.3813 32.4765 87.5718 32.7622L90.4288 39.619L93.2857 32.7622C93.381 32.4765 93.5714 32.2861 93.8571 32.0956C94.1428 31.9051 94.3333 31.8099 94.619 31.8099C94.9999 31.8099 95.3809 32.0004 95.6666 32.2861C95.7618 32.3813 95.857 32.5718 95.9523 32.7622C96.0475 32.9527 96.0475 33.1432 96.0475 33.3336C96.0475 33.5241 96.0475 33.7146 95.9523 33.905L91.8573 43.5235C91.6668 43.8092 91.4763 43.9997 91.2859 44.1901C91.0954 44.3806 90.8097 44.3806 90.524 44.3806C90.1431 44.5711 89.9526 44.4758 89.6669 44.3806Z" fill="white"/>
<path d="M107.285 48.0945C106.999 47.8088 106.904 47.5231 106.904 47.047V43.1424C105.856 43.9995 104.713 44.4757 103.38 44.4757C102.523 44.4757 101.666 44.2852 100.904 43.9995C100.142 43.7138 99.4756 43.2377 98.8089 42.6663C98.2375 42.0949 97.7614 41.4283 97.4757 40.6664C97.19 39.9045 96.9995 39.0474 96.9995 38.1904V33.4287C96.9995 33.0478 97.19 32.6669 97.4757 32.3812C97.7614 32.0955 98.1423 31.905 98.5232 31.905C98.9042 31.905 99.2851 32.0955 99.5708 32.3812C99.8565 32.6669 100.047 33.0478 100.047 33.4287V38.0951C100.047 38.5713 100.142 38.9522 100.333 39.4284C100.523 39.9045 100.809 40.1902 101.095 40.5712C101.38 40.8569 101.761 41.1426 102.237 41.333C102.713 41.5235 103.094 41.6187 103.571 41.6187C104.047 41.6187 104.428 41.5235 104.809 41.333C105.19 41.1426 105.57 40.9521 105.951 40.5712C106.237 40.2855 106.523 39.9045 106.713 39.5236C106.904 39.1427 106.999 38.6665 106.999 38.2856V33.524C106.999 33.143 107.094 32.7621 107.38 32.4764C107.666 32.1907 108.046 32.0002 108.427 32.0002C108.808 32.0002 109.189 32.1907 109.475 32.4764C109.761 32.7621 109.951 33.143 109.951 33.524V47.1422C109.951 47.5231 109.761 47.9041 109.475 48.1898C109.189 48.4755 108.808 48.5707 108.427 48.5707C107.951 48.5707 107.57 48.3802 107.285 48.0945Z" fill="white"/>
<path d="M115.189 44.1901C114.427 43.9044 113.761 43.4282 113.094 42.8568C112.523 42.2854 112.047 41.6188 111.666 40.857C111.285 40.0951 111.189 39.238 111.189 38.3809C111.189 37.5238 111.38 36.6667 111.666 35.9049C111.951 35.143 112.427 34.4764 113.094 33.8098C113.761 33.1431 114.427 32.7622 115.189 32.4765C115.951 32.1908 116.808 32.0003 117.665 32.0003C118.522 32.0003 119.284 32.1908 120.046 32.4765C120.808 32.7622 121.475 33.2384 122.046 33.7145C122.427 34.0955 122.522 34.4764 122.522 34.9525C122.522 35.3335 122.332 35.7144 122.046 36.0001C121.855 36.0953 121.76 36.1906 121.57 36.2858C121.379 36.381 121.189 36.2858 121.094 36.2858C120.808 36.2858 120.522 36.1906 120.237 36.0001C120.141 35.9049 119.856 35.7144 119.57 35.5239C119.189 35.2382 118.903 35.143 118.522 35.0478C118.141 34.9525 117.76 34.9525 117.38 34.9525C116.903 34.9525 116.522 35.0478 116.142 35.2382C115.761 35.4287 115.38 35.7144 115.094 36.0001C114.808 36.2858 114.618 36.6667 114.427 37.0477C114.237 37.4286 114.142 37.9047 114.142 38.2857C114.142 38.6666 114.237 39.1428 114.427 39.5237C114.618 39.9046 114.808 40.2856 115.094 40.6665C115.38 40.9522 115.761 41.2379 116.142 41.4283C116.522 41.6188 116.999 41.714 117.475 41.714C117.856 41.714 118.237 41.714 118.522 41.6188C118.808 41.5236 119.189 41.3331 119.475 41.1426C119.57 41.0474 119.665 40.9522 119.856 40.857C120.046 40.7617 120.237 40.5713 120.427 40.476C120.617 40.3808 120.808 40.3808 120.998 40.3808C121.189 40.3808 121.284 40.3808 121.475 40.476C121.665 40.5713 121.76 40.6665 121.951 40.7617C122.236 41.0474 122.427 41.4283 122.427 41.8093C122.427 41.9997 122.427 42.1902 122.332 42.4759C122.236 42.7616 122.141 42.8568 121.951 43.0473C121.379 43.6187 120.713 43.9996 119.951 44.2853C119.189 44.571 118.427 44.7615 117.57 44.7615C116.808 44.6662 115.951 44.571 115.189 44.1901Z" fill="white"/>
<path d="M134.236 44.19C133.95 43.9043 133.76 43.6186 133.76 43.1425V38.1904C133.76 37.7142 133.664 37.3333 133.569 36.8571C133.474 36.381 133.188 36.0953 132.998 35.8096C132.712 35.5239 132.426 35.2382 132.045 35.143C131.664 35.0477 131.284 34.8573 130.807 34.8573C130.331 34.8573 129.855 34.9525 129.474 35.143C129.093 35.3334 128.617 35.5239 128.236 35.8096C127.855 36.0953 127.569 36.4762 127.379 36.8571C127.189 37.2381 127.093 37.619 127.093 38.0952V43.1425C127.093 43.5234 126.998 43.9043 126.712 44.19C126.427 44.4757 126.141 44.571 125.665 44.571C125.284 44.571 124.903 44.4757 124.617 44.19C124.332 43.9043 124.236 43.5234 124.236 43.1425V28.8576C124.236 28.4767 124.427 28.0958 124.712 27.8101C124.998 27.5244 125.379 27.4291 125.76 27.4291C126.141 27.4291 126.522 27.5244 126.808 27.8101C127.093 28.0958 127.189 28.4767 127.189 28.8576V33.7145C127.665 33.1431 128.236 32.7622 128.903 32.4765C129.569 32.1908 130.236 32.0003 130.903 32.0003C131.76 32.0003 132.522 32.1908 133.188 32.4765C133.855 32.7622 134.521 33.2383 135.093 33.8097C135.664 34.3811 136.045 35.0477 136.331 35.8096C136.617 36.5715 136.807 37.3333 136.807 38.1904V43.2377C136.807 43.6187 136.617 43.9996 136.331 44.2853C136.236 44.3805 136.045 44.4757 135.855 44.571C135.664 44.6662 135.474 44.6662 135.283 44.6662C134.902 44.571 134.521 44.4757 134.236 44.19Z" fill="white"/>
<path d="M142.521 44.1901C141.759 43.9044 141.093 43.4282 140.521 42.8568C139.95 42.2854 139.474 41.6188 139.188 40.857C138.902 40.0951 138.712 39.238 138.712 38.3809C138.712 37.5238 138.902 36.6667 139.188 35.9049C139.474 35.143 139.95 34.4764 140.521 33.8098C141.093 33.2384 141.759 32.7622 142.521 32.4765C143.283 32.1908 144.14 32.0003 144.997 32.0003C145.854 32.0003 146.711 32.1908 147.473 32.4765C148.235 32.7622 148.902 33.2384 149.473 33.8098C150.045 34.3811 150.521 35.0478 150.806 35.8096C151.092 36.5715 151.283 37.4286 151.283 38.2857V43.1425C151.283 43.5235 151.092 43.9044 150.806 44.1901C150.521 44.4758 150.14 44.6663 149.759 44.6663C149.378 44.6663 149.092 44.571 148.902 44.3806C148.711 44.1901 148.521 43.9044 148.426 43.6187C147.378 44.2853 146.235 44.6663 144.902 44.6663C144.14 44.6663 143.283 44.571 142.521 44.1901ZM146.331 41.5236C146.711 41.3331 147.092 41.1426 147.473 40.7617C147.759 40.476 148.045 40.0951 148.235 39.6189C148.426 39.1428 148.521 38.7618 148.521 38.2857C148.521 37.8095 148.426 37.3333 148.235 36.9524C148.045 36.5715 147.664 36.2858 147.378 35.9049C147.092 35.6192 146.711 35.3335 146.235 35.143C145.759 34.9525 145.378 34.8573 144.902 34.8573C144.426 34.8573 144.045 34.9525 143.569 35.143C143.093 35.3335 142.807 35.5239 142.426 35.9049C142.045 36.2858 141.855 36.5715 141.664 37.0477C141.474 37.5238 141.378 37.9047 141.378 38.3809C141.378 38.8571 141.474 39.3332 141.664 39.7142C141.855 40.0951 142.045 40.476 142.426 40.857C142.712 41.1427 143.093 41.4283 143.474 41.6188C143.854 41.8093 144.331 41.9045 144.807 41.9045C145.283 41.9045 145.854 41.714 146.331 41.5236Z" fill="white"/>
</svg>
