<svg width="135" height="76" viewBox="0 0 135 76" fill="none" xmlns="http://www.w3.org/2000/svg">
<path d="M36.4824 47.3331C36.2919 48.2854 36.0062 49.2377 35.5301 50.2853C33.1493 55.2374 28.4829 57.142 27.2449 57.6182C24.5783 58.6657 22.1023 58.8562 20.6738 58.8562C19.2453 58.8562 16.7693 58.6657 14.1028 57.6182C12.96 57.142 8.19837 55.2374 5.81756 50.2853C5.3414 49.2377 5.0557 48.2854 4.86523 47.3331C6.38895 47.6188 9.91255 47.9997 12.96 47.0474C14.198 46.6665 15.0551 46.476 16.0074 45.8094C17.055 45.238 17.5311 44.6666 18.7692 44.2856C19.531 44 20.1977 43.9047 20.6738 43.9047C21.15 43.9047 21.8166 44 22.5785 44.2856C23.7213 44.6666 24.2926 45.238 25.3402 45.8094C26.3878 46.3808 27.1496 46.6665 28.3876 47.0474C31.4351 47.9997 34.9587 47.5235 36.4824 47.3331Z" fill="#F9E5D3"/>
<path d="M36.4823 47.333C34.9586 47.6187 31.435 47.9996 28.3876 47.0473C27.1496 46.6664 26.2925 46.4759 25.3401 45.8093C24.2926 45.2379 23.8164 44.6665 22.5784 44.2856C21.8165 43.9999 21.1499 43.9046 20.6737 43.9046C20.1976 43.9046 19.531 43.9999 18.7691 44.2856C17.6263 44.6665 17.0549 45.2379 16.0074 45.8093C14.9598 46.3807 14.1979 46.6664 12.9599 47.0473C9.91249 47.9044 6.38889 47.5235 4.86517 47.333C4.38901 45.2379 4.57947 43.1428 4.6747 41.1429C4.86517 37.905 5.43656 38.0002 6.19842 33.2386C6.86505 28.7627 6.38889 27.8103 7.05551 24.4772C7.62691 21.3345 8.57923 18.8585 9.34109 17.1443C11.341 19.1442 12.3885 20.8584 12.8647 22.0964C12.9599 22.3821 13.5313 23.9058 14.7693 25.4295C15.436 26.2866 15.8169 26.5723 16.1026 26.7628C16.8645 27.239 17.6263 27.3342 18.8643 27.5247C19.6262 27.6199 21.6261 27.6199 22.3879 27.5247C23.626 27.3342 24.3878 27.239 25.1497 26.7628C25.4354 26.5723 25.8163 26.2866 26.4829 25.4295C27.6257 23.9058 28.1971 22.4773 28.3876 22.0964C28.8637 20.8584 29.9113 19.1442 31.9112 17.1443C32.673 18.7633 33.6254 21.3345 34.1967 24.4772C34.8634 27.9056 34.3872 28.7627 35.0538 33.2386C35.7205 37.905 36.2919 37.905 36.5776 41.1429C36.768 43.1428 36.8633 45.1426 36.4823 47.333Z" fill="#EEC39A"/>
<path d="M21.1498 43.4286C19.9118 38.0955 25.4353 34.0958 25.721 33.8101C31.1492 30.0008 37.7202 33.0482 38.0059 33.1435C36.387 33.6196 34.2919 34.4767 33.6252 36.2861C32.6729 38.7622 35.4347 40.5716 34.9585 43.7142C34.4823 46.476 31.6254 49.6187 28.1018 49.6187C24.4829 49.7139 21.8164 46.3808 21.1498 43.4286Z" stroke="#9674CE" stroke-width="2" stroke-miterlimit="10"/>
<path d="M20.1974 43.4286C21.4355 38.0955 15.912 34.0958 15.6263 33.8101C10.198 30.0008 3.62701 33.0482 3.34131 33.1435C4.96026 33.6196 7.05538 34.4767 7.722 36.2861C8.67433 38.7622 5.91258 40.5716 6.38875 43.7142C6.86491 46.476 9.72188 49.6187 13.2455 49.6187C16.8643 49.7139 19.5308 46.3808 20.1974 43.4286Z" stroke="#9674CE" stroke-width="2" stroke-miterlimit="10"/>
<path d="M24.4834 43.2381C24.6739 41.8096 25.6262 40.6668 26.9594 40.1907C28.4832 39.7145 30.1973 40.3811 31.0544 41.8096C29.4355 42.5715 27.3404 43.2381 25.0548 43.2381C24.8643 43.3333 24.6739 43.3333 24.4834 43.2381Z" fill="black"/>
<path d="M16.8645 43.2381C16.674 41.8096 15.7217 40.6668 14.3885 40.1907C12.8647 39.7145 11.1505 40.3811 10.2935 41.8096C11.9124 42.5715 14.0075 43.2381 16.2931 43.2381C16.4836 43.3333 16.674 43.3333 16.8645 43.2381Z" fill="black"/>
<path d="M25.4354 51.1424C25.4354 52.7614 24.2926 53.9994 22.9593 54.0946C22.1022 54.1898 21.1499 53.6185 20.5785 52.7614C20.0071 53.6185 19.15 54.0946 18.2929 54.0946C17.0549 53.9994 15.8169 52.7614 15.8169 51.1424C16.2931 52.6661 17.5311 53.428 18.5786 53.2375C19.4357 53.0471 20.2928 52.19 20.1024 51.6186C19.9119 50.9519 18.4834 50.9519 18.1977 49.9996C18.1977 49.9044 18.1025 49.6187 18.2929 49.5235C18.4834 49.333 18.8643 49.5235 19.7214 49.6187C20.1024 49.6187 20.3881 49.7139 20.5785 49.7139C20.769 49.7139 21.0547 49.7139 21.4356 49.6187C22.2927 49.5235 22.6736 49.333 22.8641 49.5235C23.0546 49.7139 22.9593 49.9996 22.9593 49.9996C22.6736 50.9519 21.2451 50.9519 21.0547 51.6186C20.8642 52.19 21.7213 53.1423 22.5784 53.2375C23.7212 53.428 24.9592 52.6661 25.4354 51.1424Z" fill="black"/>
<path d="M54.3868 44.0949C54.1011 43.8092 54.0059 43.5235 54.0059 43.1425C54.0059 42.7616 54.1011 42.4759 54.482 42.1902L61.5292 34.9525H55.5296C55.1486 34.9525 54.7677 34.8573 54.482 34.5716C54.2916 34.1907 54.1011 33.8098 54.1011 33.4288C54.1011 33.2384 54.1011 33.0479 54.1963 32.8574C54.2916 32.667 54.3868 32.5717 54.482 32.3813C54.7677 32.0956 55.0534 32.0003 55.5296 32.0003H64.5767C64.7671 32.0003 64.8624 32.0003 65.0528 32.0956H65.1481H65.2433L65.3385 32.1908L65.4338 32.286C65.6242 32.3813 65.8147 32.5717 65.9099 32.7622C66.0051 32.9527 66.1004 33.1431 66.1004 33.4288V33.5241C66.1004 34.0002 65.9099 34.2859 65.6242 34.5716L58.577 41.8093H64.9576C65.3385 41.8093 65.7194 41.9045 66.0051 42.1902C66.2908 42.4759 66.3861 42.7616 66.3861 43.1425C66.3861 43.5235 66.2908 43.9044 66.0051 44.1901C65.7194 44.4758 65.3385 44.571 64.9576 44.571H55.4343C55.0534 44.571 54.6725 44.3805 54.3868 44.0949Z" fill="white"/>
<path d="M72.2904 44.3806C72.0048 44.1901 71.9095 43.9997 71.7191 43.714L67.6241 34.0003C67.5288 33.8098 67.4336 33.6193 67.4336 33.4289C67.4336 33.0479 67.5288 32.667 67.8145 32.3813C68.1002 32.0956 68.4812 31.9052 68.8621 31.9052C69.1478 31.9052 69.4335 32.0004 69.6239 32.0956C69.8144 32.1908 70.0049 32.4765 70.1953 32.7622L73.0523 39.619L75.9093 32.7622C76.0045 32.4765 76.195 32.2861 76.4807 32.0956C76.7664 31.9051 76.9568 31.8099 77.2425 31.8099C77.6235 31.8099 78.0044 32.0004 78.2901 32.2861C78.3853 32.3813 78.4806 32.5718 78.5758 32.7622C78.671 32.9527 78.671 33.1432 78.671 33.3336C78.671 33.5241 78.671 33.7146 78.5758 33.905L74.4808 43.5235C74.2903 43.8092 74.0999 43.9997 73.9094 44.1901C73.7189 44.3806 73.4332 44.3806 73.1475 44.3806C72.7666 44.5711 72.5761 44.4758 72.2904 44.3806Z" fill="white"/>
<path d="M89.9081 48.0945C89.6225 47.8088 89.5272 47.5231 89.5272 47.047V43.1424C88.4797 43.9995 87.3369 44.4757 86.0036 44.4757C85.1465 44.4757 84.2894 44.2852 83.5276 43.9995C82.7657 43.7138 82.0991 43.2377 81.4325 42.6663C80.8611 42.0949 80.3849 41.4283 80.0992 40.6664C79.8135 39.9045 79.623 39.0474 79.623 38.1904V33.4287C79.623 33.0478 79.8135 32.6669 80.0992 32.3812C80.3849 32.0955 80.7658 31.905 81.1468 31.905C81.5277 31.905 81.9086 32.0955 82.1943 32.3812C82.48 32.6669 82.6705 33.0478 82.6705 33.4287V38.0951C82.6705 38.5713 82.7657 38.9522 82.9562 39.4284C83.1466 39.9045 83.4323 40.1902 83.718 40.5712C84.0037 40.8569 84.3847 41.1426 84.8608 41.333C85.337 41.5235 85.7179 41.6187 86.1941 41.6187C86.6702 41.6187 87.0512 41.5235 87.4321 41.333C87.813 41.1426 88.194 40.9521 88.5749 40.5712C88.8606 40.2855 89.1463 39.9045 89.3368 39.5236C89.5272 39.1427 89.6225 38.6665 89.6225 38.2856V33.524C89.6225 33.143 89.7177 32.7621 90.0034 32.4764C90.2891 32.1907 90.67 32.0002 91.0509 32.0002C91.4319 32.0002 91.8128 32.1907 92.0985 32.4764C92.3842 32.7621 92.5747 33.143 92.5747 33.524V47.1422C92.5747 47.5231 92.3842 47.9041 92.0985 48.1898C91.8128 48.4755 91.4319 48.5707 91.0509 48.5707C90.5748 48.5707 90.1938 48.3802 89.9081 48.0945Z" fill="white"/>
<path d="M97.8128 44.1901C97.0509 43.9044 96.3843 43.4282 95.7176 42.8568C95.1462 42.2854 94.6701 41.6188 94.2892 40.857C93.9082 40.0951 93.813 39.238 93.813 38.3809C93.813 37.5238 94.0035 36.6667 94.2892 35.9049C94.5748 35.143 95.051 34.4764 95.7176 33.8098C96.3843 33.1431 97.0509 32.7622 97.8128 32.4765C98.5746 32.1908 99.4317 32.0003 100.289 32.0003C101.146 32.0003 101.908 32.1908 102.67 32.4765C103.431 32.7622 104.098 33.2384 104.669 33.7145C105.05 34.0955 105.146 34.4764 105.146 34.9525C105.146 35.3335 104.955 35.7144 104.669 36.0001C104.479 36.0953 104.384 36.1906 104.193 36.2858C104.003 36.381 103.812 36.2858 103.717 36.2858C103.431 36.2858 103.146 36.1906 102.86 36.0001C102.765 35.9049 102.479 35.7144 102.193 35.5239C101.813 35.2382 101.527 35.143 101.146 35.0478C100.765 34.9525 100.384 34.9525 100.003 34.9525C99.5269 34.9525 99.146 35.0478 98.7651 35.2382C98.3841 35.4287 98.0032 35.7144 97.7175 36.0001C97.4318 36.2858 97.2414 36.6667 97.0509 37.0477C96.8604 37.4286 96.7652 37.9047 96.7652 38.2857C96.7652 38.6666 96.8604 39.1428 97.0509 39.5237C97.2414 39.9046 97.4318 40.2856 97.7175 40.6665C98.0032 40.9522 98.3841 41.2379 98.7651 41.4283C99.146 41.6188 99.6222 41.714 100.098 41.714C100.479 41.714 100.86 41.714 101.146 41.6188C101.432 41.5236 101.813 41.3331 102.098 41.1426C102.193 41.0474 102.289 40.9522 102.479 40.857C102.67 40.7617 102.86 40.5713 103.051 40.476C103.241 40.3808 103.431 40.3808 103.622 40.3808C103.812 40.3808 103.908 40.3808 104.098 40.476C104.289 40.5713 104.384 40.6665 104.574 40.7617C104.86 41.0474 105.05 41.4283 105.05 41.8093C105.05 41.9997 105.05 42.1902 104.955 42.4759C104.86 42.7616 104.765 42.8568 104.574 43.0473C104.003 43.6187 103.336 43.9996 102.574 44.2853C101.813 44.571 101.051 44.7615 100.194 44.7615C99.4317 44.6662 98.5746 44.571 97.8128 44.1901Z" fill="white"/>
<path d="M116.859 44.19C116.574 43.9043 116.383 43.6186 116.383 43.1425V38.1904C116.383 37.7142 116.288 37.3333 116.193 36.8571C116.097 36.381 115.812 36.0953 115.621 35.8096C115.336 35.5239 115.05 35.2382 114.669 35.143C114.288 35.0477 113.907 34.8573 113.431 34.8573C112.955 34.8573 112.479 34.9525 112.098 35.143C111.717 35.3334 111.241 35.5239 110.86 35.8096C110.479 36.0953 110.193 36.4762 110.003 36.8571C109.812 37.2381 109.717 37.619 109.717 38.0952V43.1425C109.717 43.5234 109.622 43.9043 109.336 44.19C109.05 44.4757 108.765 44.571 108.288 44.571C107.907 44.571 107.526 44.4757 107.241 44.19C106.955 43.9043 106.86 43.5234 106.86 43.1425V28.8576C106.86 28.4767 107.05 28.0958 107.336 27.8101C107.622 27.5244 108.003 27.4291 108.384 27.4291C108.765 27.4291 109.145 27.5244 109.431 27.8101C109.717 28.0958 109.812 28.4767 109.812 28.8576V33.7145C110.288 33.1431 110.86 32.7622 111.526 32.4765C112.193 32.1908 112.86 32.0003 113.526 32.0003C114.383 32.0003 115.145 32.1908 115.812 32.4765C116.478 32.7622 117.145 33.2383 117.716 33.8097C118.288 34.3811 118.669 35.0477 118.954 35.8096C119.24 36.5715 119.431 37.3333 119.431 38.1904V43.2377C119.431 43.6187 119.24 43.9996 118.954 44.2853C118.859 44.3805 118.669 44.4757 118.478 44.571C118.288 44.6662 118.097 44.6662 117.907 44.6662C117.526 44.571 117.145 44.4757 116.859 44.19Z" fill="white"/>
<path d="M125.145 44.1901C124.383 43.9044 123.716 43.4282 123.145 42.8568C122.573 42.2854 122.097 41.6188 121.812 40.857C121.526 40.0951 121.335 39.238 121.335 38.3809C121.335 37.5238 121.526 36.6667 121.812 35.9049C122.097 35.143 122.573 34.4764 123.145 33.8098C123.716 33.2384 124.383 32.7622 125.145 32.4765C125.907 32.1908 126.764 32.0003 127.621 32.0003C128.478 32.0003 129.335 32.1908 130.097 32.4765C130.859 32.7622 131.525 33.2384 132.097 33.8098C132.668 34.3811 133.144 35.0478 133.43 35.8096C133.716 36.5715 133.906 37.4286 133.906 38.2857V43.1425C133.906 43.5235 133.716 43.9044 133.43 44.1901C133.144 44.4758 132.763 44.6663 132.382 44.6663C132.001 44.6663 131.716 44.571 131.525 44.3806C131.335 44.1901 131.144 43.9044 131.049 43.6187C130.002 44.2853 128.859 44.6663 127.526 44.6663C126.764 44.6663 125.907 44.571 125.145 44.1901ZM128.954 41.5236C129.335 41.3331 129.716 41.1426 130.097 40.7617C130.383 40.476 130.668 40.0951 130.859 39.6189C131.049 39.1428 131.144 38.7618 131.144 38.2857C131.144 37.8095 131.049 37.3333 130.859 36.9524C130.668 36.5715 130.287 36.2858 130.002 35.9049C129.716 35.6192 129.335 35.3335 128.859 35.143C128.383 34.9525 128.002 34.8573 127.526 34.8573C127.049 34.8573 126.668 34.9525 126.192 35.143C125.716 35.3335 125.43 35.5239 125.05 35.9049C124.669 36.2858 124.478 36.5715 124.288 37.0477C124.097 37.5238 124.002 37.9047 124.002 38.3809C124.002 38.8571 124.097 39.3332 124.288 39.7142C124.478 40.0951 124.669 40.476 125.05 40.857C125.335 41.1427 125.716 41.4283 126.097 41.6188C126.478 41.8093 126.954 41.9045 127.43 41.9045C127.906 41.9045 128.478 41.714 128.954 41.5236Z" fill="white"/>
</svg>
