<svg width="184" height="400" viewBox="0 0 184 400" fill="none" xmlns="http://www.w3.org/2000/svg">
<g clip-path="url(#clip0_24_1500)">
<path fill-rule="evenodd" clip-rule="evenodd" d="M184 12.3457V387.654C184 394.468 178.429 400 171.568 400H12.4324C5.57097 400 0 394.468 0 387.654V12.3457C0 5.5321 5.57097 0 12.4324 0H171.568C178.429 0 184 5.5321 184 12.3457ZM176.688 19.8204C176.688 13.0068 171.117 7.47469 164.255 7.47469H19.7446C12.8831 7.47469 7.31213 13.0068 7.31213 19.8204V380.18C7.31213 386.993 12.8831 392.525 19.7446 392.525H164.255C171.117 392.525 176.688 386.993 176.688 380.18V19.8204Z" fill="#BFA6E9"/>
<path fill-rule="evenodd" clip-rule="evenodd" d="M181.795 14.4856V385.514C181.795 392.328 176.224 397.86 169.362 397.86H14.6379C7.77646 397.86 2.20557 392.328 2.20557 385.514V14.4856C2.20557 7.67227 7.77646 2.14014 14.6379 2.14014H169.362C176.224 2.14014 181.795 7.67227 181.795 14.4856ZM176.688 19.8205C176.688 13.0065 171.117 7.47441 164.255 7.47441H19.7452C12.8832 7.47441 7.31232 13.0065 7.31232 19.8205V380.179C7.31232 386.993 12.8832 392.525 19.7452 392.525H164.255C171.117 392.525 176.688 386.993 176.688 380.179V19.8205Z" fill="#0F1412"/>
</g>
<defs>
<clipPath id="clip0_24_1500">
<rect width="184" height="400" rx="12" fill="white"/>
</clipPath>
</defs>
</svg>
