<svg width="214" height="430" viewBox="0 0 214 430" fill="none" xmlns="http://www.w3.org/2000/svg">
<g filter="url(#filter0_d_24_1500)">
<g clip-path="url(#clip0_24_1500)">
<path fill-rule="evenodd" clip-rule="evenodd" d="M184 12.3457V387.654C184 394.468 178.429 400 171.568 400H12.4324C5.57097 400 0 394.468 0 387.654V12.3457C0 5.5321 5.57097 0 12.4324 0H171.568C178.429 0 184 5.5321 184 12.3457ZM176.688 19.8204C176.688 13.0068 171.117 7.47469 164.255 7.47469H19.7446C12.8831 7.47469 7.31213 13.0068 7.31213 19.8204V380.18C7.31213 386.993 12.8831 392.525 19.7446 392.525H164.255C171.117 392.525 176.688 386.993 176.688 380.18V19.8204Z" fill="#BFA6E9"/>
<path fill-rule="evenodd" clip-rule="evenodd" d="M181.795 14.4856V385.514C181.795 392.328 176.224 397.86 169.362 397.86H14.6379C7.77646 397.86 2.20557 392.328 2.20557 385.514V14.4856C2.20557 7.67227 7.77646 2.14014 14.6379 2.14014H169.362C176.224 2.14014 181.795 7.67227 181.795 14.4856ZM176.688 19.8205C176.688 13.0065 171.117 7.47441 164.255 7.47441H19.7452C12.8832 7.47441 7.31232 13.0065 7.31232 19.8205V380.179C7.31232 386.993 12.8832 392.525 19.7452 392.525H164.255C171.117 392.525 176.688 386.993 176.688 380.179V19.8205Z" fill="#0F1412"/>
<path fill-rule="evenodd" clip-rule="evenodd" d="M117.88 21.1952C117.88 25.2873 114.533 28.6106 110.411 28.6106H73.5881C69.467 28.6106 66.1206 25.2873 66.1206 21.1952C66.1206 17.1021 69.467 13.7788 73.5881 13.7788H110.411C114.533 13.7788 117.88 17.1021 117.88 21.1952Z" fill="#0F1412"/>
<path d="M108.99 23.5962C110.326 23.5962 111.408 22.5208 111.408 21.1943C111.408 19.8678 110.326 18.7925 108.99 18.7925C107.654 18.7925 106.571 19.8678 106.571 21.1943C106.571 22.5208 107.654 23.5962 108.99 23.5962Z" fill="#282A28"/>
<path d="M108.088 20.6864C108.325 20.6864 108.517 20.4954 108.517 20.2598C108.517 20.0242 108.325 19.8333 108.088 19.8333C107.85 19.8333 107.658 20.0242 107.658 20.2598C107.658 20.4954 107.85 20.6864 108.088 20.6864Z" fill="#B8BABC"/>
<path d="M110.502 21.9791C110.634 21.9791 110.742 21.8724 110.742 21.7408C110.742 21.6091 110.634 21.5024 110.502 21.5024C110.369 21.5024 110.262 21.6091 110.262 21.7408C110.262 21.8724 110.369 21.9791 110.502 21.9791Z" fill="#B8BABC"/>
</g>
</g>
<defs>
<filter id="filter0_d_24_1500" x="0" y="0" width="214" height="430" filterUnits="userSpaceOnUse" color-interpolation-filters="sRGB">
<feFlood flood-opacity="0" result="BackgroundImageFix"/>
<feColorMatrix in="SourceAlpha" type="matrix" values="0 0 0 0 0 0 0 0 0 0 0 0 0 0 0 0 0 0 127 0" result="hardAlpha"/>
<feOffset dx="20" dy="20"/>
<feGaussianBlur stdDeviation="5"/>
<feComposite in2="hardAlpha" operator="out"/>
<feColorMatrix type="matrix" values="0 0 0 0 0 0 0 0 0 0 0 0 0 0 0 0 0 0 0.25 0"/>
<feBlend mode="normal" in2="BackgroundImageFix" result="effect1_dropShadow_24_1500"/>
<feBlend mode="normal" in="SourceGraphic" in2="effect1_dropShadow_24_1500" result="shape"/>
</filter>
<clipPath id="clip0_24_1500">
<rect width="184" height="400" rx="12" fill="white"/>
</clipPath>
</defs>
</svg>
