<svg width="326" height="678" viewBox="0 0 326 678" fill="none" xmlns="http://www.w3.org/2000/svg">
<g filter="url(#filter0_d_24_1486)">
<g clip-path="url(#clip0_24_1486)">
<rect width="296" height="648" rx="20" fill="#D9D9D9"/>
<path fill-rule="evenodd" clip-rule="evenodd" d="M296 20V628C296 639.038 287.038 648 276 648H20C8.962 648 0 639.038 0 628V20C0 8.962 8.962 0 20 0H276C287.038 0 296 8.962 296 20ZM284.237 32.109C284.237 21.071 275.275 12.109 264.237 12.109H31.763C20.725 12.109 11.763 21.071 11.763 32.109V615.891C11.763 626.929 20.725 635.891 31.763 635.891H264.237C275.275 635.891 284.237 626.929 284.237 615.891V32.109Z" fill="#BFA6E9"/>
<path fill-rule="evenodd" clip-rule="evenodd" d="M292.452 23.4666V624.533C292.452 635.571 283.49 644.533 272.452 644.533H23.5476C12.5097 644.533 3.54785 635.571 3.54785 624.533V23.4666C3.54785 12.429 12.5097 3.46698 23.5476 3.46698H272.452C283.49 3.46698 292.452 12.429 292.452 23.4666ZM284.237 32.1092C284.237 21.0706 275.275 12.1085 264.236 12.1085H31.7638C20.725 12.1085 11.7631 21.0706 11.7631 32.1092V615.891C11.7631 626.929 20.725 635.891 31.7638 635.891H264.236C275.275 635.891 284.237 626.929 284.237 615.891V32.1092Z" fill="#0F1412"/>
<path fill-rule="evenodd" clip-rule="evenodd" d="M189.632 34.3363C189.632 40.9653 184.249 46.3491 177.618 46.3491H118.381C111.751 46.3491 106.368 40.9653 106.368 34.3363C106.368 27.7053 111.751 22.3217 118.381 22.3217H177.618C184.249 22.3217 189.632 27.7053 189.632 34.3363Z" fill="#0F1412"/>
<path d="M175.331 38.2258C177.48 38.2258 179.222 36.4838 179.222 34.3348C179.222 32.1859 177.48 30.4438 175.331 30.4438C173.182 30.4438 171.44 32.1859 171.44 34.3348C171.44 36.4838 173.182 38.2258 175.331 38.2258Z" fill="#282A28"/>
<path d="M173.88 33.512C174.261 33.512 174.571 33.2026 174.571 32.8209C174.571 32.4393 174.261 32.1299 173.88 32.1299C173.498 32.1299 173.189 32.4393 173.189 32.8209C173.189 33.2026 173.498 33.512 173.88 33.512Z" fill="#B8BABC"/>
<path d="M177.764 35.6062C177.977 35.6062 178.15 35.4333 178.15 35.22C178.15 35.0068 177.977 34.8339 177.764 34.8339C177.55 34.8339 177.377 35.0068 177.377 35.22C177.377 35.4333 177.55 35.6062 177.764 35.6062Z" fill="#B8BABC"/>
</g>
</g>
<defs>
<filter id="filter0_d_24_1486" x="0" y="0" width="326" height="678" filterUnits="userSpaceOnUse" color-interpolation-filters="sRGB">
<feFlood flood-opacity="0" result="BackgroundImageFix"/>
<feColorMatrix in="SourceAlpha" type="matrix" values="0 0 0 0 0 0 0 0 0 0 0 0 0 0 0 0 0 0 127 0" result="hardAlpha"/>
<feOffset dx="20" dy="20"/>
<feGaussianBlur stdDeviation="5"/>
<feComposite in2="hardAlpha" operator="out"/>
<feColorMatrix type="matrix" values="0 0 0 0 0 0 0 0 0 0 0 0 0 0 0 0 0 0 0.25 0"/>
<feBlend mode="normal" in2="BackgroundImageFix" result="effect1_dropShadow_24_1486"/>
<feBlend mode="normal" in="SourceGraphic" in2="effect1_dropShadow_24_1486" result="shape"/>
</filter>
<clipPath id="clip0_24_1486">
<rect width="296" height="648" rx="20" fill="white"/>
</clipPath>
</defs>
</svg>
