<svg width="296" height="648" viewBox="0 0 296 648" fill="none" xmlns="http://www.w3.org/2000/svg">
<g clip-path="url(#clip0_24_1486)">
<path fill-rule="evenodd" clip-rule="evenodd" d="M296 20V628C296 639.038 287.038 648 276 648H20C8.962 648 0 639.038 0 628V20C0 8.962 8.962 0 20 0H276C287.038 0 296 8.962 296 20ZM284.237 32.109C284.237 21.071 275.275 12.109 264.237 12.109H31.763C20.725 12.109 11.763 21.071 11.763 32.109V615.891C11.763 626.929 20.725 635.891 31.763 635.891H264.237C275.275 635.891 284.237 626.929 284.237 615.891V32.109Z" fill="#BFA6E9"/>
<path fill-rule="evenodd" clip-rule="evenodd" d="M292.452 23.4667V624.533C292.452 635.571 283.49 644.533 272.452 644.533H23.5476C12.5097 644.533 3.54785 635.571 3.54785 624.533V23.4667C3.54785 12.4291 12.5097 3.46704 23.5476 3.46704H272.452C283.49 3.46704 292.452 12.4291 292.452 23.4667ZM284.237 32.1092C284.237 21.0706 275.275 12.1086 264.236 12.1086H31.7638C20.725 12.1086 11.7631 21.0706 11.7631 32.1092V615.891C11.7631 626.929 20.725 635.891 31.7638 635.891H264.236C275.275 635.891 284.237 626.929 284.237 615.891V32.1092Z" fill="#0F1412"/>
<path fill-rule="evenodd" clip-rule="evenodd" d="M292.452 23.4667V624.533C292.452 635.571 283.49 644.533 272.452 644.533H23.5476C12.5097 644.533 3.54785 635.571 3.54785 624.533V23.4667C3.54785 12.4291 12.5097 3.46704 23.5476 3.46704H272.452C283.49 3.46704 292.452 12.4291 292.452 23.4667ZM284.237 32.1092C284.237 21.0706 275.275 12.1086 264.236 12.1086H31.7638C20.725 12.1086 11.7631 21.0706 11.7631 32.1092V615.891C11.7631 626.929 20.725 635.891 31.7638 635.891H264.236C275.275 635.891 284.237 626.929 284.237 615.891V32.1092Z" fill="#0F1412"/>
<path fill-rule="evenodd" clip-rule="evenodd" d="M292.452 23.4667V624.533C292.452 635.571 283.49 644.533 272.452 644.533H23.5476C12.5097 644.533 3.54785 635.571 3.54785 624.533V23.4667C3.54785 12.4291 12.5097 3.46704 23.5476 3.46704H272.452C283.49 3.46704 292.452 12.4291 292.452 23.4667ZM284.237 32.1092C284.237 21.0706 275.275 12.1086 264.236 12.1086H31.7638C20.725 12.1086 11.7631 21.0706 11.7631 32.1092V615.891C11.7631 626.929 20.725 635.891 31.7638 635.891H264.236C275.275 635.891 284.237 626.929 284.237 615.891V32.1092Z" fill="#0F1412"/>
</g>
<defs>
<clipPath id="clip0_24_1486">
<rect width="296" height="648" rx="20" fill="white"/>
</clipPath>
</defs>
</svg>
