<svg width="496" height="496" viewBox="0 0 496 496" fill="none" xmlns="http://www.w3.org/2000/svg">
<path fill-rule="evenodd" clip-rule="evenodd" d="M56.8341 37.0637C56.8341 37.0637 33.4131 37.0227 24.8641 58.3677C2.73311 113.626 138.211 155.695 174.168 143.71L172.794 95.8477C172.794 95.8477 66.4431 94.9547 53.7491 77.2837C40.5091 58.8517 56.8341 37.0637 56.8341 37.0637Z" fill="#BFA6E9"/>
<path fill-rule="evenodd" clip-rule="evenodd" d="M88.2819 47.0838H78.2624V96.1717H68.243V135.773H78.2624V154.889H88.2819V164.909H68.243V197H48.9999V225.028H68.243V300.17H97.5055V292.281H217.287V227.646L235.826 145.722V97.3874H225.807V37.0641L215.787 27.0437H195.74L185.72 37.0641L184.732 47.0838H175.726V52.2182H138.212V47.0838H128.192V37.0641H118.34V25.7797H98.3014V37.0641H88.2819V47.0838Z" fill="#FDD5B5"/>
<path fill-rule="evenodd" clip-rule="evenodd" d="M155.664 157.523H145.644V147.486H135.623V137.466H128.361V127.446L127.957 127.447V96.0596H216.581V172.537L155.664 176.539V157.523Z" fill="#EFF0E9"/>
<path fill-rule="evenodd" clip-rule="evenodd" d="M196.997 243.292H205.763V177.547H155.663V187.567H145.643V204.041H135.624V223.667H125.604V243.292H137.331V253.311H147.204V263.331H186.976V253.311H196.997V243.292Z" fill="#EFF0E9"/>
<path d="M155.662 167.527H196.996V177.547H155.662V167.527Z" fill="#E1B8AA"/>
<path d="M106.994 106.08H128.362V127.447H106.994V106.08Z" fill="#EB9486"/>
<path d="M216.581 106.08H237.948V127.447H216.581V106.08Z" fill="#EB9486"/>
<path d="M196.678 86.0396H206.698V96.0596H196.678V86.0396Z" fill="white"/>
<path fill-rule="evenodd" clip-rule="evenodd" d="M205.763 66.645V76.1873H215.783V37.0641H205.763V56.6257H195.743V66.645H205.763Z" fill="#D78C77"/>
<path fill-rule="evenodd" clip-rule="evenodd" d="M235.823 177.547H245.844V127.447H204.186V177.547H205.763V227.647H225.014V197.587H235.823V177.547Z" fill="#FDD5B5"/>
<path fill-rule="evenodd" clip-rule="evenodd" d="M117.468 302.316H127.488V282.275H117.468V262.235H107.448V272.255H97.4281V282.275H87.4088V292.295H77.3887V312.336H107.448V312.347H117.468V302.316Z" fill="#FBE0CA"/>
<path fill-rule="evenodd" clip-rule="evenodd" d="M176.577 312.373H215.783V282.238H205.763V272.219H186.597V282.238H176.577V312.373Z" fill="#FBE0CA"/>
<path d="M98.3017 37.064H108.322V47.084H98.3017V37.064Z" fill="#D78C77"/>
<path d="M108.322 47.0839H118.342V67.124H108.322V47.0839Z" fill="#D78C77"/>
<path d="M127.957 86.0396H137.977V96.0596H127.957V86.0396Z" fill="white"/>
<path d="M215.783 27.0439H225.803V37.064H215.783V27.0439Z" fill="#212121"/>
<path d="M185.723 27.0439H195.743V37.064H185.723V27.0439Z" fill="#212121"/>
<path d="M195.743 17.024H215.783V27.0441H195.743V17.024Z" fill="#212121"/>
<path d="M225.803 37.064H235.823V97.3871H225.803V37.064Z" fill="#212121"/>
<path fill-rule="evenodd" clip-rule="evenodd" d="M235.823 137.467V157.507H245.843V97.3872H235.823V127.447H225.803V137.467H235.823Z" fill="#212121"/>
<path d="M245.843 157.507H255.863V177.547H245.843V157.507Z" fill="#212121"/>
<path d="M235.823 177.547H245.843V187.567H235.823V177.547Z" fill="#212121"/>
<path d="M225.803 187.567H235.823V197.587H225.803V187.567Z" fill="#212121"/>
<path d="M176.576 312.373H215.783V322.393H176.576V312.373Z" fill="#212121"/>
<path d="M78.2614 312.373H117.468V322.393H78.2614V312.373Z" fill="#212121"/>
<path d="M166.557 292.281H176.577V312.373H166.557V292.281Z" fill="#212121"/>
<path d="M68.2419 235.049H78.262V312.374H68.2419V235.049Z" fill="#212121"/>
<path d="M137.508 282.26H166.557V292.281H137.508V282.26Z" fill="#212121"/>
<path d="M127.488 292.307H137.508V302.327H127.488V292.307Z" fill="#212121"/>
<path d="M117.468 302.327H127.488V312.347H117.468V302.327Z" fill="#212121"/>
<path d="M185.723 117.427H195.743V127.447H185.723V117.427Z" fill="#212121"/>
<path fill-rule="evenodd" clip-rule="evenodd" d="M216.581 86.0396V106.08H196.678V96.0596H206.561V86.0396H216.581Z" fill="#212121"/>
<path fill-rule="evenodd" clip-rule="evenodd" d="M147.859 86.0396V106.08H127.957V96.0596H137.839V86.0396H147.859Z" fill="#212121"/>
<path d="M165.683 117.427H175.703V127.447H165.683V117.427Z" fill="#212121"/>
<path d="M95.5432 225.029H85.5232V215.009H95.5432V225.029Z" fill="#212121"/>
<path d="M105.563 215.009H95.5432V197.586H105.563V215.009Z" fill="#212121"/>
<path d="M115.583 197.587H105.563V187.567H115.583V197.587Z" fill="#212121"/>
<path d="M68.2415 197H58.2214V174.929H68.2415V197Z" fill="#212121"/>
<path d="M58.2215 225.029H48.2014V197H58.2215V225.029Z" fill="#212121"/>
<path d="M85.5235 235.049H58.2214V225.029H85.5235V235.049Z" fill="#212121"/>
<path d="M175.703 107.407H185.723V117.427H175.703V107.407Z" fill="#212121"/>
<path d="M78.2619 37.064H88.282V47.084H78.2619V37.064Z" fill="#212121"/>
<path d="M128.19 37.064H138.21V47.084H128.19V37.064Z" fill="#212121"/>
<path d="M88.2817 27.0439H98.3018V37.064H88.2817V27.0439Z" fill="#212121"/>
<path d="M118.17 27.0439H128.19V37.064H118.17V27.0439Z" fill="#212121"/>
<path d="M98.3017 17.024H118.17V27.0441H98.3017V17.024Z" fill="#212121"/>
<path d="M68.2419 47.084H78.262V96.1724H68.2419V47.084Z" fill="#212121"/>
<path d="M58.2219 96.1719H68.2419V135.493H58.2219V96.1719Z" fill="#212121"/>
<path d="M68.2419 135.493H78.262V154.889H68.2419V135.493Z" fill="#212121"/>
<path d="M215.783 197.587H225.803V312.374H215.783V197.587Z" fill="#212121"/>
<path d="M195.743 127.447H205.763V177.547H195.743V127.447Z" fill="#212121"/>
<path d="M205.763 177.547H215.783V187.567H205.763V177.547Z" fill="#212121"/>
<path d="M78.2615 174.929H68.2415V164.909H78.2615V174.929Z" fill="#212121"/>
<path d="M88.2813 164.909H78.2612V154.889H88.2813V164.909Z" fill="#212121"/>
<path d="M205.763 117.427H225.803V127.447H205.763V117.427Z" fill="#212121"/>
<path d="M175.703 37.064H185.723V47.084H175.703V37.064Z" fill="#212121"/>
<path d="M138.21 47.0839H175.703V57.1039H138.21V47.0839Z" fill="#212121"/>
<path fill-rule="evenodd" clip-rule="evenodd" d="M447.949 222.676V274.88L432.257 274.833L432.186 264.37H285.857V222.676L292.643 222.662L295.877 158.268H432.919L442.939 168.287L447.949 222.676Z" fill="#FDD5B5"/>
<path fill-rule="evenodd" clip-rule="evenodd" d="M363.379 399.361V409.382H265.883V380.744H300.887V375.37H305.897L305.898 294H295.898V253.517H432.923V294.92H422.899V314.96H439.304V359.505H459.632V424.817H399.587V379.322H375.263V399.361H363.379Z" fill="#FDF6E9"/>
<path fill-rule="evenodd" clip-rule="evenodd" d="M443.539 389.342H459.632V424.816H399.261V389.342H433.519V379.322H443.539V389.342Z" fill="#FBE0CA"/>
<path d="M317.265 233.425H327.285V243.445H317.265V233.425Z" fill="white"/>
<path d="M391.652 233.425H401.672V243.445H391.652V233.425Z" fill="white"/>
<path fill-rule="evenodd" clip-rule="evenodd" d="M337.168 233.425V253.465H317.265V243.445H327.148V233.425H337.168Z" fill="#212121"/>
<path fill-rule="evenodd" clip-rule="evenodd" d="M411.555 233.425V253.465H391.652V243.445H401.535V233.425H411.555Z" fill="#212121"/>
<path fill-rule="evenodd" clip-rule="evenodd" d="M422.899 190.473V168.295H442.939V211.41H432.919V190.473H422.899Z" fill="#D78C77"/>
<path d="M295.876 168.295H305.896V198.355H295.876V168.295Z" fill="#D78C77"/>
<path d="M295.897 253.465H317.265V274.833H295.897V253.465Z" fill="#EB9486"/>
<path d="M411.554 253.465H432.922V274.833H411.554V253.465Z" fill="#EB9486"/>
<path d="M349.455 253.517H359.475V263.537H349.455V253.517Z" fill="#212121"/>
<path d="M265.883 399.36H275.903V409.38H265.883V399.36Z" fill="#FBE0CA"/>
<path d="M265.883 389.34H275.903V399.36H265.883V389.34Z" fill="#FBE0CA"/>
<path d="M275.903 409.382H285.923V419.402H275.903V409.382Z" fill="#FBE0CA"/>
<path fill-rule="evenodd" clip-rule="evenodd" d="M383.418 399.362V379.322H393.438V419.402H363.378V399.362H383.418Z" fill="#FDD5B5"/>
<path d="M315.916 294.43H325.937V304.45H315.916V294.43Z" fill="#E1B8AA"/>
<path d="M325.936 304.45H398.109V314.47H325.936V304.45Z" fill="#E1B8AA"/>
<path d="M413.479 369.302H433.519V379.322H413.479V369.302Z" fill="#FBE0CA"/>
<path d="M369.494 253.517H379.514V263.537H369.494V253.517Z" fill="#212121"/>
<path d="M275.903 419.402H285.923V429.422H275.903V419.402Z" fill="#212121"/>
<path d="M359.475 243.497H369.495V253.517H359.475V243.497Z" fill="#212121"/>
<path d="M265.883 409.382H275.903V419.402H265.883V409.382Z" fill="#212121"/>
<path d="M349.563 349.262H359.583V359.282H349.563V349.262Z" fill="#212121"/>
<path fill-rule="evenodd" clip-rule="evenodd" d="M462.979 429.422H393.438V379.322H433.518V389.341H403.459V419.402H452.958V359.505H462.979V429.422Z" fill="#212121"/>
<path d="M319.503 399.362H329.523V409.382H319.503V399.362Z" fill="#212121"/>
<path d="M363.379 399.362H373.399V409.382H363.379V399.362Z" fill="#212121"/>
<path d="M275.903 399.362H285.923V409.382H275.903V399.362Z" fill="#212121"/>
<path d="M285.922 409.382H319.503V419.402H285.922V409.382Z" fill="#212121"/>
<path d="M329.522 409.382H363.379V419.402H329.522V409.382Z" fill="#212121"/>
<path d="M339.543 359.282H349.563V379.322H339.543V359.282Z" fill="#212121"/>
<path d="M383.419 359.282H393.439V379.322H383.419V359.282Z" fill="#212121"/>
<path d="M329.523 379.322H339.543V399.362H329.523V379.322Z" fill="#212121"/>
<path d="M373.399 379.322H383.419V399.362H373.399V379.322Z" fill="#212121"/>
<path d="M285.923 379.322H295.943V399.362H285.923V379.322Z" fill="#212121"/>
<path d="M255.863 380.744H265.883V409.382H255.863V380.744Z" fill="#212121"/>
<path fill-rule="evenodd" clip-rule="evenodd" d="M295.877 370.724V314.47H305.896V380.744H265.884V370.724H295.877Z" fill="#212121"/>
<path d="M285.857 264.37H295.877V284.41H285.857V264.37Z" fill="#212121"/>
<path d="M295.876 284.41H305.896V294.43H295.876V284.41Z" fill="#212121"/>
<path d="M305.896 294.43H315.917V314.47H305.896V294.43Z" fill="#212121"/>
<path d="M275.837 222.662H285.857V264.371H275.837V222.662Z" fill="#212121"/>
<path fill-rule="evenodd" clip-rule="evenodd" d="M442.938 349.484H452.958V359.504H432.918V314.96H442.938V349.484Z" fill="#212121"/>
<path d="M432.919 274.88H442.939V284.9H432.919V274.88Z" fill="#212121"/>
<path d="M422.899 284.9H432.919V294.92H422.899V284.9Z" fill="#212121"/>
<path d="M422.899 304.94H432.919V314.96H422.899V304.94Z" fill="#212121"/>
<path d="M412.879 294.92H422.899V304.94H412.879V294.92Z" fill="#212121"/>
<path fill-rule="evenodd" clip-rule="evenodd" d="M442.939 148.247V168.287H432.919V158.267H422.899V148.247H442.939Z" fill="#212121"/>
<path d="M442.938 168.287H452.958V274.881H442.938V168.287Z" fill="#212121"/>
<path fill-rule="evenodd" clip-rule="evenodd" d="M315.917 168.287H305.896V158.267H295.876V148.247H315.917V158.267H422.899V168.287H412.141V190.464H402.122V168.287H325.937V190.464H315.917V168.287Z" fill="#212121"/>
<path d="M285.857 158.267H295.877V222.663H285.857V158.267Z" fill="#212121"/>
<path fill-rule="evenodd" clip-rule="evenodd" d="M101.666 234.986L95.543 215.009L95.543 225.134L89.2122 225.029C89.2122 225.029 89.8394 228.441 89.2519 230.039C88.6368 231.709 85.5232 235.049 85.5232 235.049L58.2212 235.049L58.2217 230.411C58.2217 230.411 45.3689 230.181 42.6515 230.233C40.4126 230.275 37.1557 230.778 36.7317 232.581C35.5369 237.655 31.3657 264.861 31.3657 264.861C31.3657 264.861 28.2424 255.657 28.6929 246.326C29.0052 239.859 30.4726 235.346 37.3119 226.081C42.5153 219.033 48.2017 218.501 48.2017 218.501L48.2012 207.189C48.2012 207.189 37.7627 210.394 31.0548 218.04C20.7896 229.739 18.4656 243.148 18.5681 250.23C18.8142 267.175 23.2319 273.351 24.5552 281.444C25.1865 285.304 26.0265 294.925 26.5068 298.795C26.7497 300.753 26.3776 302.876 27.4369 304.663C28.4924 306.445 32.8603 309.518 32.8603 309.518L71.7486 322.389C71.7486 322.389 81.7629 324.909 86.5928 324.219C91.4329 323.527 97.6777 321.778 100.786 318.235C104.085 314.474 104.334 305.202 106.383 301.654C111.927 292.054 121.328 271.258 134.048 260.639C144.495 251.917 178.643 242.571 178.643 242.571L173.511 235.993C173.511 235.993 167.957 235.974 165.269 236.373C160.097 237.14 149.647 238.362 142.476 240.597C135.306 242.832 127.751 245.04 122.244 249.783C116.53 254.704 113.377 256.066 110.916 255.421C108.456 254.776 107.691 251.537 107.48 245.91C107.361 242.73 107.375 239.87 106.407 238.049C105.66 236.644 101.666 234.986 101.666 234.986Z" fill="#8EE36B"/>
<path fill-rule="evenodd" clip-rule="evenodd" d="M58.221 291.217C58.221 291.217 48.561 275.983 48.201 270.968C47.842 265.953 51.108 260.649 56.063 261.127C63.796 261.874 65.183 270.813 65.183 270.813C65.183 270.813 70.119 264.056 79.249 267.619C83.369 269.227 83.617 277.005 82.186 279.623C79.707 284.157 58.221 291.217 58.221 291.217Z" fill="#D78C77"/>
<path fill-rule="evenodd" clip-rule="evenodd" d="M255.863 424.957C255.863 424.957 277.575 450.173 290.867 453.864C305.136 457.826 339.468 458.04 356.194 455.373C376.705 452.103 434.31 434.24 434.31 434.24C434.31 434.24 395.427 415.192 382.233 410.466C380.644 409.897 373.399 409.382 373.399 409.382H363.379V419.402H329.523V409.382H319.503V419.402H285.923V411.473C285.923 411.473 279.931 415.567 277.172 416.73C273.13 418.435 255.863 424.957 255.863 424.957Z" fill="#D78C77"/>
<path fill-rule="evenodd" clip-rule="evenodd" d="M319.503 344.03C319.503 344.03 290.399 345.169 281.463 342.629C274.428 340.63 265.883 328.788 265.883 328.788C265.883 328.788 269.701 329.641 276.575 328.986C284.09 328.269 306.339 323.67 310.974 324.489C317.56 325.652 324.653 339.167 324.653 339.167C324.653 339.167 332.251 330.629 340.084 329.235C345.365 328.295 357.241 331.529 365.974 332.376C372.104 332.97 378.585 329.57 378.585 329.57C378.585 329.57 374.046 342.362 368.389 344.03C360.212 346.44 329.523 344.03 329.523 344.03C329.523 344.03 327.878 352.184 326.521 356.442C325.284 360.328 322.559 365.134 321.385 369.579C319.99 374.862 319.652 385.645 321.149 392.146C323.191 401.019 333.641 424.817 333.641 424.817L321.051 422.604C321.051 422.604 315.434 390.738 315.176 379.922C314.991 372.179 320.383 362.89 321.104 356.908C321.65 352.381 319.503 344.03 319.503 344.03Z" fill="#8EE36B"/>
<path fill-rule="evenodd" clip-rule="evenodd" d="M245.843 100.904C245.843 100.904 351.282 83.9275 409.045 113.193C470.524 144.342 487.464 198.681 488.427 276.156C489.023 324.135 477.003 368.985 462.968 399.361C441.277 446.307 397.672 484.297 345.087 478.363C292.501 472.431 201.067 399.126 167.95 378.309C156.43 371.068 119.663 364.358 102.375 374.604C92.57 380.414 92.786 394.796 99.47 404.371C107.877 416.412 163.746 409.382 163.746 409.382C160.285 435.592 42.205 445.385 44.78 387.148C46.574 346.566 112.717 349.475 141.505 353.812C175.606 358.951 253.55 425.003 285.923 441.216C325.395 460.984 399.366 453.792 434.31 420.74C462.355 394.214 467.352 266.572 462.979 236.815C458.38 205.519 452.959 190.955 452.959 190.955V168.287H442.939V148.247H422.899V152.378C422.899 152.378 417.298 146.767 413.207 143.937C398.844 134.001 357.486 114.707 315.5 116.429C271.22 118.244 245.843 136.642 245.843 136.642V100.904Z" fill="#BFA6E9"/>
</svg>
