<svg width="496" height="496" viewBox="0 0 496 496" fill="none" xmlns="http://www.w3.org/2000/svg">
<path fill-rule="evenodd" clip-rule="evenodd" d="M427.282 32.8513V425.499L150.921 386.516V50.8668L427.282 32.8513Z" fill="#EAEAEA"/>
<path fill-rule="evenodd" clip-rule="evenodd" d="M413.279 43.6235V414.727L158.322 377.883V60.6505L413.279 43.6235Z" fill="#BFA6E9"/>
<path fill-rule="evenodd" clip-rule="evenodd" d="M339.663 96.5409H349.683V145.629H359.702V185.23H349.683V204.346H339.663V214.366L349.658 224.386L359.702 246.457L369.722 244.434H389.761V264.474L369.722 304.554L357.466 311.208L356.519 349.253L330.44 349.628V341.738H210.658V277.103L192.119 195.179V146.845H202.139V86.5213L212.158 76.5009H232.205L242.225 86.5213L243.213 96.5409H252.219V101.675H289.734V96.5409H299.753V86.5213H309.605V75.2368H329.644V86.5213H339.663V96.5409Z" fill="#FDD5B5"/>
<path fill-rule="evenodd" clip-rule="evenodd" d="M272.282 206.98L272.252 176.904H299.989V145.517H211.364V221.994L272.282 225.996V206.98Z" fill="#EFF0E9"/>
<path fill-rule="evenodd" clip-rule="evenodd" d="M230.949 292.749H222.182V227.004H272.282V237.024H282.302V253.498H292.322V273.124H302.342V292.749H290.614V302.768H280.742V312.788H240.969V302.768H230.949V292.749Z" fill="#EFF0E9"/>
<path d="M272.283 216.984H230.949V227.004H272.283V216.984Z" fill="#E1B8AA"/>
<path d="M320.952 155.537H299.584V176.905H320.952V155.537Z" fill="#EB9486"/>
<path d="M211.365 155.537H189.997V176.905H211.365V155.537Z" fill="#EB9486"/>
<path d="M231.267 135.497H221.247V145.517H231.267V135.497Z" fill="white"/>
<path fill-rule="evenodd" clip-rule="evenodd" d="M222.182 116.102V125.644H212.162V86.5212H222.182V106.083H232.202V116.102H222.182Z" fill="#D78C77"/>
<path fill-rule="evenodd" clip-rule="evenodd" d="M192.123 227.004H182.102V176.904H223.759V227.004H222.183V277.104H202.931V247.044H192.123V227.004Z" fill="#FDD5B5"/>
<path fill-rule="evenodd" clip-rule="evenodd" d="M310.477 351.773H300.457V331.732H310.477V311.692H320.497V321.712H330.517V331.732H340.537V341.753H350.557V361.793H320.497V361.804H310.477V351.773Z" fill="#FBE0CA"/>
<path fill-rule="evenodd" clip-rule="evenodd" d="M251.369 361.83H212.162V331.696H222.182V321.677H241.349V331.696H251.369V361.83Z" fill="#FBE0CA"/>
<path d="M329.644 86.521H319.624V96.541H329.644V86.521Z" fill="#D78C77"/>
<path d="M319.624 96.541H309.604V116.581H319.624V96.541Z" fill="#D78C77"/>
<path d="M299.989 135.497H289.969V145.517H299.989V135.497Z" fill="white"/>
<path d="M212.162 76.5012H202.142V86.5213H212.162V76.5012Z" fill="#212121"/>
<path d="M242.222 76.5012H232.202V86.5213H242.222V76.5012Z" fill="#212121"/>
<path d="M232.202 66.4812H212.162V76.5012H232.202V66.4812Z" fill="#212121"/>
<path d="M202.142 86.521H192.122V146.844H202.142V86.521Z" fill="#212121"/>
<path fill-rule="evenodd" clip-rule="evenodd" d="M192.122 186.924V206.964H182.102V146.844H192.122V176.904H202.142V186.924H192.122Z" fill="#212121"/>
<path d="M182.102 206.964H172.082V227.004H182.102V206.964Z" fill="#212121"/>
<path d="M192.122 227.004H182.102V237.024H192.122V227.004Z" fill="#212121"/>
<path d="M202.142 237.024H192.122V247.044H202.142V237.024Z" fill="#212121"/>
<path d="M251.369 361.83H212.162V371.85H251.369V361.83Z" fill="#212121"/>
<path d="M349.684 361.83H310.477V371.85H349.684V361.83Z" fill="#212121"/>
<path d="M261.389 341.738H251.369V361.83H261.389V341.738Z" fill="#212121"/>
<path fill-rule="evenodd" clip-rule="evenodd" d="M359.703 304.558V254.45H369.723V244.432H359.703V224.386H349.683V361.831H359.703V314.576H369.723V304.558H359.703Z" fill="#212121"/>
<path d="M290.437 331.718H261.388V341.738H290.437V331.718Z" fill="#212121"/>
<path d="M300.457 341.764H290.437V351.784H300.457V341.764Z" fill="#212121"/>
<path d="M310.477 351.784H300.457V361.804H310.477V351.784Z" fill="#212121"/>
<path d="M242.222 166.884H232.202V176.904H242.222V166.884Z" fill="#212121"/>
<path fill-rule="evenodd" clip-rule="evenodd" d="M211.364 135.497V155.537H231.267V145.517H221.384V135.497H211.364Z" fill="#212121"/>
<path fill-rule="evenodd" clip-rule="evenodd" d="M280.086 135.497V155.537H299.989V145.517H290.106V135.497H280.086Z" fill="#212121"/>
<path d="M262.262 166.884H252.242V176.904H262.262V166.884Z" fill="#212121"/>
<path d="M309.574 176.904H299.554V186.924H309.574V176.904Z" fill="#212121"/>
<path d="M319.594 186.924H309.574V204.346H319.594V186.924Z" fill="#212121"/>
<path d="M329.614 204.346H319.594V214.366H329.614V204.346Z" fill="#212121"/>
<path fill-rule="evenodd" clip-rule="evenodd" d="M339.634 214.366H329.614V224.386H349.683V214.366H349.654V204.346H339.634V214.366Z" fill="#212121"/>
<path d="M389.763 234.414H369.723V244.434H389.763V234.414Z" fill="#212121"/>
<path d="M399.783 244.434H389.763V264.474H399.783V244.434Z" fill="#212121"/>
<path d="M389.763 264.474H379.743V284.514H389.763V264.474Z" fill="#212121"/>
<path d="M379.743 284.514H369.723V304.554H379.743V284.514Z" fill="#212121"/>
<path d="M282.272 204.933H272.252V227.004H282.272V204.933Z" fill="#212121"/>
<path d="M272.252 176.904H262.232V204.933H272.252V176.904Z" fill="#212121"/>
<path d="M299.554 166.884H272.252V176.904H299.554V166.884Z" fill="#212121"/>
<path d="M252.242 156.864H242.222V166.884H252.242V156.864Z" fill="#212121"/>
<path d="M349.684 86.521H339.664V96.541H349.684V86.521Z" fill="#212121"/>
<path d="M299.755 86.521H289.735V96.541H299.755V86.521Z" fill="#212121"/>
<path d="M339.664 76.5012H329.644V86.5213H339.664V76.5012Z" fill="#212121"/>
<path d="M309.775 76.5012H299.755V86.5213H309.775V76.5012Z" fill="#212121"/>
<path d="M329.644 66.4812H309.775V76.5012H329.644V66.4812Z" fill="#212121"/>
<path d="M359.703 96.5413H349.683V145.63H359.703V96.5413Z" fill="#212121"/>
<path d="M369.723 145.629H359.703V184.95H369.723V145.629Z" fill="#212121"/>
<path d="M359.703 184.95H349.683V204.346H359.703V184.95Z" fill="#212121"/>
<path d="M212.162 247.044H202.142V361.831H212.162V247.044Z" fill="#212121"/>
<path d="M232.202 176.904H222.182V227.004H232.202V176.904Z" fill="#212121"/>
<path d="M222.182 227.004H212.162V237.024H222.182V227.004Z" fill="#212121"/>
<path d="M292.292 227.004H282.272V237.024H292.292V227.004Z" fill="#212121"/>
<path d="M302.312 237.024H292.292V247.044H302.312V237.024Z" fill="#212121"/>
<path d="M222.182 166.884H202.142V176.904H222.182V166.884Z" fill="#212121"/>
<path d="M252.242 86.521H242.222V96.541H252.242V86.521Z" fill="#212121"/>
<path d="M289.736 96.541H252.242V106.561H289.736V96.541Z" fill="#212121"/>
<path d="M124.989 433.659H114.969V443.679H124.989V433.659Z" fill="#EFF0E9"/>
<path fill-rule="evenodd" clip-rule="evenodd" d="M124.987 413.619L107.749 443.679H67.7033L54.8484 413.619V373.54H64.869L74.9978 387.026L94.9281 383.56L104.949 373.54H114.969L124.987 383.56V413.619Z" fill="#FDD5B5"/>
<path fill-rule="evenodd" clip-rule="evenodd" d="M64.8687 393.579V373.539H74.8887V383.559H94.9288V393.579H64.8687Z" fill="#212121"/>
<path d="M64.8687 363.52H54.8486V373.54H64.8687V363.52Z" fill="#212121"/>
<path d="M54.8489 373.54H44.8289V413.619H54.8489V373.54Z" fill="#212121"/>
<path fill-rule="evenodd" clip-rule="evenodd" d="M64.8687 443.679H44.8286V433.659H54.8487V413.619H64.8687V433.659H74.8887V443.679H104.948V423.639H114.968V413.619H124.988V433.659H114.968V443.679H124.988V433.659H135.008V453.699H64.8687V443.679Z" fill="#212121"/>
<path d="M44.8289 423.639H34.8088V433.659H44.8289V423.639Z" fill="#212121"/>
<path d="M135.008 383.559H124.988V413.619H135.008V383.559Z" fill="#212121"/>
<path d="M104.949 373.54H94.9285V383.56H104.949V373.54Z" fill="#212121"/>
<path d="M114.969 363.52H104.948V373.54H114.969V363.52Z" fill="#212121"/>
<path d="M124.989 373.54H114.969V383.56H124.989V373.54Z" fill="#212121"/>
<path fill-rule="evenodd" clip-rule="evenodd" d="M402.785 129.624C400.598 124.346 339.749 186.814 316.572 201.837C278.868 226.277 172.906 293.778 175.093 299.056C177.28 304.334 310.782 251.212 329.694 233.506C399.082 168.538 404.972 134.902 402.785 129.624Z" fill="#EAEAEA"/>
<path fill-rule="evenodd" clip-rule="evenodd" d="M406.569 312.928C405.183 310.599 366.624 338.161 351.937 344.79C328.044 355.573 260.897 385.356 262.283 387.685C263.669 390.013 348.268 366.575 360.252 358.763C404.222 330.097 407.955 315.256 406.569 312.928Z" fill="#EAEAEA"/>
<path fill-rule="evenodd" clip-rule="evenodd" d="M307.829 63.1291C306.443 60.8003 256.909 79.8924 242.222 86.5213C218.33 97.3043 165.442 146.071 166.828 148.4C168.214 150.729 199.316 126.356 211.3 118.543C255.271 89.8781 309.214 65.4578 307.829 63.1291Z" fill="#EAEAEA"/>
<path fill-rule="evenodd" clip-rule="evenodd" d="M421.595 34.0633C421.595 34.0633 421.342 26.4548 422.364 22.2235C423.094 19.1998 425.934 8.75088 427.726 8.67693C429.518 8.60297 434.214 16.5333 434.214 16.5333C434.214 16.5333 432.833 7.07453 433.91 7.40273C434.988 7.73144 438.889 14.7776 440.68 18.5049C442.569 22.4351 444.292 27.2811 445.241 30.986C446.034 34.0817 446.322 39.4271 445.461 40.5714C444.6 41.7157 440.074 37.8514 440.074 37.8514C440.074 37.8514 442.014 43.2414 439.756 43.6018C437.393 43.9784 427.552 39.3947 427.552 39.3947C427.552 39.3947 429.611 42.751 428.728 42.232C425.912 40.5739 414.778 31.8336 410.658 29.4459C408.688 28.3043 406.852 30.4371 406.852 30.4371C406.852 30.4371 408.882 27.7847 410.491 28.3488C412.517 29.0572 419.65 32.9656 419.65 32.9656C419.65 32.9656 416.914 30.6235 415.793 29.7706C415.152 29.2824 412.061 27.9593 412.061 27.9593C412.061 27.9593 414.629 28.4612 414.984 28.7155C416.429 29.7506 421.595 34.0633 421.595 34.0633Z" fill="#8EE36B"/>
<path fill-rule="evenodd" clip-rule="evenodd" d="M209.579 32.852C209.579 32.852 176.179 14.844 158.322 16.503C139 18.299 118.671 25.772 100.487 43.624C79.0111 64.707 55.9121 101.532 64.7151 161.995C69.9021 197.629 150.921 219.166 150.921 219.166V166.845C150.921 166.845 91.6571 179.837 96.8361 88.601C98.0701 66.877 130.701 39.601 150.921 32.852C173.444 25.334 209.579 32.852 209.579 32.852Z" fill="#8EE36B"/>
<path fill-rule="evenodd" clip-rule="evenodd" d="M427.282 155.859C427.282 155.859 480.331 260.465 457.857 299.423C431.933 344.363 311.397 442.908 255.05 449.393C180.16 458.011 92.136 429.03 69.212 439.319C61.699 442.691 38.69 465.547 43.264 472.394C51.777 485.137 84.909 474.532 84.909 474.532C84.909 474.532 81.714 484.089 54.331 488.365C45.551 489.736 36.617 485.17 34.809 476.544C33.001 467.918 27.68 450.394 44.829 439.776C72.929 422.377 271.637 429.268 319.02 414.726C375.61 397.359 427.282 278.474 427.282 278.474V155.859Z" fill="#8EE36B"/>
</svg>
