<svg width="496" height="496" viewBox="0 0 496 496" fill="none" xmlns="http://www.w3.org/2000/svg">
<path fill-rule="evenodd" clip-rule="evenodd" d="M44.5659 316.556C44.5659 316.556 23.1399 339.41 16.8159 368.66C9.64787 401.807 9.19487 453.973 51.1929 477.26C94.8609 501.474 268.445 443.45 310.804 426.338C330.629 418.328 364.062 381.338 384.543 372.618C397.196 367.23 428.955 365.612 433.692 374.014C439.346 384.042 433.783 419.519 420.632 431.493C407.481 443.466 354.928 444.706 354.785 445.857C353.794 453.875 395.68 464.487 414.587 458.301C433.494 452.115 460.395 427.02 468.227 408.739C476.059 390.459 471.93 362.457 461.578 348.62C451.226 334.782 418.292 321.779 395.732 326.832C370.443 332.497 340.757 367.265 309.848 382.606C270.689 402.042 181.19 449.174 143.64 452.017C114.371 454.233 73.7549 468.454 57.6649 441.198C30.7859 395.665 94.6659 358.64 94.6659 358.64C94.6659 358.64 35.3769 320.366 44.5659 316.556Z" fill="#BFA6E9"/>
<path fill-rule="evenodd" clip-rule="evenodd" d="M164.805 348.62L154.785 358.64L134.745 368.66H104.685L84.6452 358.64L64.6058 356.818V398.719L104.685 418.759L134.745 428.779L154.785 438.799L175.444 441.198L174.825 348.62H164.805Z" fill="#B4644D"/>
<path fill-rule="evenodd" clip-rule="evenodd" d="M305.084 288.5L285.044 308.54H265.005L224.924 298.52V325.877L169.079 321.088L167.17 315.072L94.6652 288.5H64.6051L44.5656 308.54V338.6L104.685 368.66H134.745L154.785 358.64L174.825 338.6L184.845 348.62V438.799H204.885L295.064 408.739L305.084 398.719V358.64H295.064L335.144 338.6V308.54L315.104 288.5H305.084Z" fill="#E3A266"/>
<path fill-rule="evenodd" clip-rule="evenodd" d="M265.004 308.541H285.045L305.084 288.501V278.479L275.025 268.461L265.004 258.439V208.34H254.984V148.22H224.925L214.905 158.242V168.26H154.785V158.242L114.705 138.202V148.22L104.685 158.242V248.42L124.725 268.747L114.705 268.461V289.031L124.725 298.519L173.131 321.088L224.925 318.559L231.073 305.718L244.964 301.949L265.004 308.541Z" fill="#FDD5B5"/>
<path fill-rule="evenodd" clip-rule="evenodd" d="M234.945 248.42H244.965V238.4H144.765V258.44H154.785V278.48H164.805V288.5H174.825V278.48H184.845V268.46H224.925V258.44H234.945V248.42Z" fill="#EFF0E9"/>
<path fill-rule="evenodd" clip-rule="evenodd" d="M204.885 308.54V288.5H174.825V298.52H184.845V308.54H204.885Z" fill="#EFF0E9"/>
<path fill-rule="evenodd" clip-rule="evenodd" d="M254.985 278.48V258.44H234.945V268.46H224.924V278.48H234.945V288.5H244.965V278.48H254.985Z" fill="#EFF0E9"/>
<path d="M234.945 248.42H244.965V258.44H234.945V248.42Z" fill="#E1B8AA"/>
<path fill-rule="evenodd" clip-rule="evenodd" d="M244.965 188.301V158.24H234.945V168.261H224.925V178.281H234.945V188.301H244.965Z" fill="#E1B8AA"/>
<path fill-rule="evenodd" clip-rule="evenodd" d="M134.745 188.301V168.261H124.725V158.24H114.705V188.301H134.745Z" fill="#E1B8AA"/>
<path d="M224.925 258.44H234.945V268.46H224.925V258.44Z" fill="#E1B8AA"/>
<path d="M174.825 338.6H184.845V440.512H174.825V338.6Z" fill="#994F39"/>
<path d="M154.785 158.24H214.905V168.261H154.785V158.24Z" fill="#212121"/>
<path d="M134.745 148.221H154.785V158.241H134.745V148.221Z" fill="#212121"/>
<path d="M114.705 138.201H134.745V148.221H114.705V138.201Z" fill="#212121"/>
<path d="M94.6653 158.24H104.685V248.42H94.6653V158.24Z" fill="#212121"/>
<path d="M104.685 248.42H114.705V258.44H104.685V248.42Z" fill="#212121"/>
<path d="M114.705 258.44H124.725V268.46H114.705V258.44Z" fill="#212121"/>
<path fill-rule="evenodd" clip-rule="evenodd" d="M164.805 318.56V328.58H174.825V338.6H184.845V328.58H224.924V318.56H174.825V308.539H154.785V298.52H124.725V288.5H114.705V268.46H104.685V288.5H94.6651V298.52H114.705V308.539H144.765V318.56H164.805Z" fill="#212121"/>
<path fill-rule="evenodd" clip-rule="evenodd" d="M234.945 308.54H265.005V298.52H224.925V318.56H234.945V308.54Z" fill="#212121"/>
<path d="M174.825 278.48H214.905V288.5H174.825V278.48Z" fill="#212121"/>
<path d="M214.905 288.5H224.925V298.52H214.905V288.5Z" fill="#212121"/>
<path d="M265.004 308.54H285.044V318.56H265.004V308.54Z" fill="#212121"/>
<path d="M275.024 268.46H305.084V278.48H275.024V268.46Z" fill="#212121"/>
<path d="M265.004 208.34H275.024V248.42H265.004V208.34Z" fill="#212121"/>
<path d="M244.964 228.38H265.004V248.42H244.964V228.38Z" fill="#EB9486"/>
<path fill-rule="evenodd" clip-rule="evenodd" d="M224.925 228.38H244.965V218.36H234.945V208.34H224.925V228.38Z" fill="#212121"/>
<path d="M204.885 228.38H214.905V238.4H204.885V228.38Z" fill="#212121"/>
<path d="M214.905 238.4H224.925V248.42H214.905V238.4Z" fill="#212121"/>
<path d="M194.865 238.4H204.885V248.42H194.865V238.4Z" fill="#212121"/>
<path d="M144.765 228.38H164.805V248.42H144.765V228.38Z" fill="#EB9486"/>
<path fill-rule="evenodd" clip-rule="evenodd" d="M164.805 228.38H184.845V218.36H174.825V208.34H164.805V228.38Z" fill="#212121"/>
<path d="M174.825 208.34H184.845V218.36H174.825V208.34Z" fill="white"/>
<path d="M234.945 208.34H244.965V218.36H234.945V208.34Z" fill="white"/>
<path d="M254.984 148.221H265.004V208.34H254.984V148.221Z" fill="#212121"/>
<path d="M224.924 138.201H254.985V148.221H224.924V138.201Z" fill="#212121"/>
<path d="M214.905 148.221H224.925V158.241H214.905V148.221Z" fill="#212121"/>
<path d="M254.984 248.42H265.004V258.44H254.984V248.42Z" fill="#212121"/>
<path d="M265.004 258.44H275.024V268.46H265.004V258.44Z" fill="#212121"/>
<path d="M305.084 278.48H315.104V288.5H305.084V278.48Z" fill="#212121"/>
<path d="M325.124 298.52H335.144V308.54H325.124V298.52Z" fill="#212121"/>
<path d="M315.104 288.5H325.124V298.52H315.104V288.5Z" fill="#212121"/>
<path d="M335.144 308.54H345.164V338.6H335.144V308.54Z" fill="#212121"/>
<path d="M315.104 338.6H335.144V348.62H315.104V338.6Z" fill="#212121"/>
<path fill-rule="evenodd" clip-rule="evenodd" d="M315.104 398.719V348.62H295.064V358.64H305.084V398.719H315.104Z" fill="#212121"/>
<path d="M295.064 398.719H305.084V408.739H295.064V398.719Z" fill="#212121"/>
<path d="M265.004 408.739H295.064V418.759H265.004V408.739Z" fill="#212121"/>
<path d="M234.944 418.759H265.004V428.779H234.944V418.759Z" fill="#212121"/>
<path d="M204.884 428.779H234.945V438.799H204.884V428.779Z" fill="#212121"/>
<path d="M154.785 438.799H204.885V448.819H154.785V438.799Z" fill="#212121"/>
<path d="M134.745 428.779H154.785V438.799H134.745V428.779Z" fill="#212121"/>
<path d="M104.685 418.759H134.745V428.779H104.685V418.759Z" fill="#212121"/>
<path d="M84.6452 408.739H104.685V418.759H84.6452V408.739Z" fill="#212121"/>
<path d="M64.6054 398.719H84.6455V408.739H64.6054V398.719Z" fill="#212121"/>
<path fill-rule="evenodd" clip-rule="evenodd" d="M64.6054 358.639H84.6455V348.62H64.6054V338.6H44.5653V348.62H54.5854V398.719H64.6054V358.639Z" fill="#212121"/>
<path d="M265.004 358.64H295.064V368.66H265.004V358.64Z" fill="#212121"/>
<path d="M244.964 368.659H265.004V378.679H244.964V368.659Z" fill="#212121"/>
<path d="M214.904 378.679H244.965V388.699H214.904V378.679Z" fill="#212121"/>
<path d="M204.885 368.659H214.905V378.679H204.885V368.659Z" fill="#212121"/>
<path d="M194.865 348.619H204.885V368.659H194.865V348.619Z" fill="#212121"/>
<path d="M184.845 338.6H194.865V348.62H184.845V338.6Z" fill="#212121"/>
<path d="M164.805 338.6H174.825V348.62H164.805V338.6Z" fill="#212121"/>
<path d="M154.785 348.62H164.805V358.64H154.785V348.62Z" fill="#212121"/>
<path d="M134.745 358.64H154.785V368.66H134.745V358.64Z" fill="#212121"/>
<path d="M104.685 368.659H134.745V378.679H104.685V368.659Z" fill="#212121"/>
<path d="M84.6452 358.64H104.685V368.66H84.6452V358.64Z" fill="#212121"/>
<path d="M34.5456 308.54H44.5657V338.6H34.5456V308.54Z" fill="#212121"/>
<path d="M44.5654 298.52H54.5854V308.54H44.5654V298.52Z" fill="#212121"/>
<path d="M54.5854 288.5H64.6055V298.52H54.5854V288.5Z" fill="#212121"/>
<path d="M64.6054 278.48H94.6655V288.5H64.6054V278.48Z" fill="#212121"/>
<path d="M295.064 288.5H305.084V298.52H295.064V288.5Z" fill="#212121"/>
<path d="M285.044 298.52H295.064V308.54H285.044V298.52Z" fill="#212121"/>
<path d="M104.685 148.221H114.705V158.241H104.685V148.221Z" fill="#212121"/>
<path fill-rule="evenodd" clip-rule="evenodd" d="M419.066 93.6383C421.011 94.5443 421.793 99.1133 421.793 99.1133V151.413C421.793 151.413 421.578 156.122 419.708 157.212C417.837 158.301 410.571 157.95 410.571 157.95L292.651 150.536C292.651 150.536 289.618 150.465 288.755 149.825C287.891 149.185 287.471 146.694 287.471 146.694V99.7213C287.471 99.7213 287.918 97.1343 288.626 96.4943C289.335 95.8533 291.725 95.8763 291.725 95.8763L408.661 92.9993C408.661 92.9993 416.877 92.6193 419.066 93.6383Z" fill="#EAEAEA"/>
<path fill-rule="evenodd" clip-rule="evenodd" d="M402.911 99.2645C404.512 100.01 405.156 103.772 405.156 103.772V146.827C405.156 146.827 404.979 150.704 403.439 151.601C401.899 152.497 395.917 152.208 395.917 152.208L298.842 146.105C298.842 146.105 296.345 146.047 295.634 145.52C294.923 144.993 294.577 142.942 294.577 142.942V104.272C294.577 104.272 294.945 102.143 295.528 101.616C296.112 101.088 298.079 101.107 298.079 101.107L394.345 98.7385C394.345 98.7385 401.109 98.4257 402.911 99.2645Z" fill="#0F1412"/>
<path fill-rule="evenodd" clip-rule="evenodd" d="M297.334 112.925C297.688 111.617 299.528 108.789 301.412 108.179C303.478 107.51 308.073 107.084 309.732 108.909C311.39 110.735 312.354 115.852 311.363 119.131C310.139 123.177 301.793 130.539 302.391 133.186C302.989 135.833 313.184 134.099 314.952 135.011C316.103 135.606 314.252 138.481 312.994 138.662C310.03 139.088 298.231 140.944 297.171 137.567C296.111 134.19 305.3 122.447 306.632 118.401C307.185 116.722 306.388 113.685 305.164 113.29C303.941 112.894 300.597 116.089 299.291 116.028C298.161 115.975 297.007 114.137 297.334 112.925Z" fill="#8EE36B"/>
<path fill-rule="evenodd" clip-rule="evenodd" d="M320.576 139.764C318.265 137.422 317.211 131.035 317.313 125.711C317.415 120.386 319.115 112.399 320.984 109.736C322.538 107.523 326.757 107.739 328.529 109.736C330.891 112.399 332.882 120.706 333.323 125.711C333.755 130.601 333.643 137.101 331.179 139.764C328.715 142.426 322.887 142.106 320.576 139.764ZM321.279 135.098C322.864 136.705 326.863 136.924 328.553 135.098C330.244 133.271 330.321 128.811 330.025 125.456C329.721 122.022 328.355 116.323 326.734 114.496C325.519 113.126 322.624 112.978 321.558 114.496C320.276 116.323 319.111 121.803 319.041 125.456C318.97 129.109 319.693 133.491 321.279 135.098Z" fill="#8EE36B"/>
<path fill-rule="evenodd" clip-rule="evenodd" d="M338.558 113.068C337.444 112.792 336.572 109.471 336.572 108.364C336.572 107.334 337.726 106.221 338.558 106.427C339.673 106.703 343.261 108.918 343.261 110.024C343.261 111.131 339.673 113.345 338.558 113.068Z" fill="#8EE36B"/>
<path fill-rule="evenodd" clip-rule="evenodd" d="M342.605 140.842C342.592 142.221 340.068 143.887 339.171 144.096C338.337 144.29 337.218 143.126 337.228 142.096C337.241 140.716 338.356 136.025 339.252 135.816C340.149 135.607 342.618 139.462 342.605 140.842Z" fill="#8EE36B"/>
<path fill-rule="evenodd" clip-rule="evenodd" d="M350.738 110.124C349.555 113.111 348.742 119.249 349.577 122.487C350.233 125.03 357 122.628 359.251 123.675C361.244 124.603 363.027 126.699 363.085 128.771C363.145 130.952 362.162 135.85 359.617 136.755C357.071 137.662 349.778 133.641 347.81 134.207C345.842 134.774 346.143 138.92 347.81 140.153C349.839 141.653 356.736 144.089 359.982 143.21C363.227 142.333 366.157 138.171 367.283 134.887C368.408 131.602 368.804 126.138 366.735 123.506C364.667 120.872 356.726 120.993 354.871 119.089C353.176 117.35 353.378 113.189 355.601 112.081C357.943 110.913 366.644 113.008 368.926 112.081C370.755 111.337 371.274 106.731 369.291 106.517C366.259 106.192 352.244 106.32 350.738 110.124Z" fill="#8EE36B"/>
<path fill-rule="evenodd" clip-rule="evenodd" d="M377.216 122.686C377.386 120.739 373.643 117.196 373.857 114.801C374.076 112.355 377.727 108.204 379.844 106.403C381.729 104.8 387.914 105.487 390.212 106.403C393.011 107.518 397.465 112.496 397.66 115.137C397.854 117.778 393.547 119.285 393.571 122.247C393.595 125.209 397.124 126.292 397.806 129.549C398.463 132.692 398.584 138.967 395.907 141.206C393.23 143.445 388.304 146.217 383.933 145.32C379.562 144.424 373.672 140.721 372.017 137.435C370.362 134.149 371.385 129.257 372.835 126.482C374.186 123.898 377.046 124.633 377.216 122.686ZM384.684 119.328C386.388 118.719 390.045 116.398 390.212 114.801C390.379 113.204 387.121 110.032 385.686 109.748C384.25 109.463 382.546 111.642 381.597 113.093C380.648 114.543 379.476 117.412 379.991 118.452C380.505 119.491 383.185 119.863 384.684 119.328ZM377.57 133.726C379.211 136.458 384.401 141.961 387.08 141.678C389.76 141.395 393.726 134.618 393.649 132.029C393.572 129.441 391.109 126.024 388.372 124.9C385.636 123.776 378.738 124.021 377.229 125.284C375.721 126.547 376.125 131.322 377.57 133.726Z" fill="#8EE36B"/>
<path fill-rule="evenodd" clip-rule="evenodd" d="M200.689 24.522C201.975 28.544 181.478 19.769 160.774 26.233C141.15 32.361 121.339 53.653 119.716 60.216C116.379 73.703 160.561 105.038 180.67 105.441C202.396 105.876 238.264 86.82 265.097 68.912C310.331 38.723 338.357 16.654 398.202 23.652C432.689 27.684 472.53 77.879 481.822 105.441C491.115 133.003 435.448 197.972 411.724 224.668C390.772 248.245 305.085 278.48 305.085 278.48V268.46H295.205L275.025 228.38C275.025 228.38 362.538 219.633 383.469 204.691C404.401 189.75 460.284 126.765 452.229 105.441C444.175 84.117 391.914 49.907 354.633 53.245C318.044 56.52 259.934 114.6 228.034 119.383C191.295 124.891 114.99 110.624 96.8519 92.93C78.7149 75.235 103.715 32.786 119.716 19.3C135.716 5.813 198.184 16.689 200.689 24.522Z" fill="#BFA6E9"/>
<path fill-rule="evenodd" clip-rule="evenodd" d="M245.93 318.608C244.685 317.566 245.313 312.623 245.313 312.623L258.056 234.874C258.056 234.874 258.878 231.206 260.086 230.22C261.292 229.234 265.299 228.958 265.299 228.958L295.849 226.582C295.849 226.582 300.32 225.989 301.214 226.784C302.107 227.577 301.206 231.346 301.206 231.346L288.701 303.711C288.701 303.711 288.002 306.882 286.751 308.155C285.5 309.43 281.191 311.355 281.191 311.355L252.784 318.876C252.784 318.876 247.175 319.65 245.93 318.608Z" fill="#EAEAEA"/>
<path fill-rule="evenodd" clip-rule="evenodd" d="M251.68 317.255C250.621 316.244 251.155 311.447 251.155 311.447L261.993 235.992C261.993 235.992 262.692 232.433 263.719 231.476C264.745 230.519 268.153 230.251 268.153 230.251L294.134 227.945C294.134 227.945 297.937 227.37 298.697 228.141C299.456 228.911 298.69 232.568 298.69 232.568L288.055 302.798C288.055 302.798 287.461 305.875 286.397 307.111C285.333 308.348 281.668 310.216 281.668 310.216L257.509 317.515C257.509 317.515 252.739 318.267 251.68 317.255Z" fill="#8EE36B"/>
<path d="M292.144 238.705C293.716 239.028 295.308 237.745 295.7 235.838C296.093 233.931 295.137 232.123 293.566 231.8C291.994 231.476 290.402 232.76 290.01 234.666C289.617 236.573 290.573 238.381 292.144 238.705Z" fill="#10372E"/>
<path d="M290.936 246.942C292.508 247.266 294.1 245.982 294.492 244.075C294.885 242.168 293.929 240.36 292.358 240.037C290.786 239.713 289.194 240.997 288.801 242.904C288.409 244.811 289.365 246.619 290.936 246.942Z" fill="#10372E"/>
<path d="M285.634 240.519C286.426 240.682 287.23 240.035 287.428 239.073C287.626 238.111 287.144 237.198 286.351 237.035C285.558 236.872 284.755 237.52 284.557 238.482C284.359 239.444 284.841 240.356 285.634 240.519Z" fill="#EAEAEA"/>
<path fill-rule="evenodd" clip-rule="evenodd" d="M271.705 246.992L274.573 249.56L273.139 251.994L275.459 252.923L274.363 257.08L272.043 256.151V259.158H268.498V256.151L266.178 257.08L265.082 252.923L267.403 251.994L265.969 249.56L268.837 246.992L270.271 249.425L271.705 246.992Z" fill="#EAEAEA"/>
<path fill-rule="evenodd" clip-rule="evenodd" d="M276.665 270.52L278.019 266.362L280.388 267.829L280.542 264.654L284.235 265.398L284.081 268.573L286.544 268.079L287.472 272.697L285.008 273.192L286.376 276.061L283.257 278.173L281.889 275.302L280.269 277.571L277.415 274.257L279.034 271.988L276.665 270.52Z" fill="#EAEAEA"/>
<path fill-rule="evenodd" clip-rule="evenodd" d="M261.088 295.43L263.285 290.96L265.765 292.968L266.438 289.422L270.544 290.816L269.871 294.362L272.766 294.178L273.104 299.509L270.21 299.693L271.326 303.125L267.429 305.027L266.313 301.594L264.107 303.899L261.362 299.743L263.566 297.438L261.088 295.43Z" fill="#EAEAEA"/>
<path fill-rule="evenodd" clip-rule="evenodd" d="M47.4906 124.528C47.4906 124.528 44.4976 122.642 43.3759 121.923C41.1814 120.513 34.0637 116.17 34.3207 116.073C34.5786 115.976 47.025 122.811 46.9842 120.518C46.9116 116.47 44.1317 106.677 45.444 107.967C45.754 108.272 48.3305 118.491 49.5684 120.854C50.1165 121.901 51.8655 122.764 52.8708 122.143C55.6966 120.397 62.63 112.753 66.5203 110.376C69.3674 108.636 74.4095 107.514 76.2129 107.879C77.7878 108.199 77.3528 110.961 77.3387 112.568C77.3068 116.022 76.8556 124.833 76.0231 128.608C75.4799 131.069 74.5349 133.969 72.3438 135.215C70.0824 136.499 64.8569 135.004 62.4564 136.315C60.0761 137.615 60.2332 141.636 57.9392 143.082C55.3875 144.689 50.8546 145.624 47.1455 145.96C42.2945 146.4 31.1135 147.686 28.8282 145.716C26.5441 143.747 30.6946 137.26 33.4386 134.145C36.5493 130.614 47.4906 124.528 47.4906 124.528Z" fill="#BFA6E9"/>
</svg>
