<svg width="1373" height="1494" viewBox="0 0 1373 1494" fill="none" xmlns="http://www.w3.org/2000/svg">
<path d="M686.201 1493.01C307.452 1493.01 0.415039 1158.88 0.415039 746.711C0.415039 334.543 307.452 0.415039 686.201 0.415039C1064.95 0.415039 1371.99 334.543 1371.99 746.711C1371.99 1158.88 1064.95 1493.01 686.201 1493.01Z" stroke="#6D9C66" stroke-opacity="0.3" stroke-width="0.83" stroke-miterlimit="1.5" stroke-linecap="round" stroke-linejoin="round"/>
<path d="M686.201 1258.74C426.341 1258.74 215.683 1029.5 215.683 746.711C215.683 463.923 426.341 234.678 686.201 234.678C946.061 234.678 1156.72 463.923 1156.72 746.711C1156.72 1029.5 946.061 1258.74 686.201 1258.74Z" stroke="#6D9C66" stroke-opacity="0.3" stroke-width="0.830181" stroke-miterlimit="1.5" stroke-linecap="round" stroke-linejoin="round"/>
<path d="M686.201 1012.19C551.471 1012.19 442.251 893.329 442.251 746.711C442.251 600.094 551.471 481.237 686.201 481.237C820.931 481.237 930.151 600.094 930.151 746.711C930.151 893.329 820.931 1012.19 686.201 1012.19Z" stroke="#6D9C66" stroke-opacity="0.3" stroke-width="0.832392" stroke-miterlimit="1.5" stroke-linecap="round" stroke-linejoin="round"/>
<path d="M686.201 792.649C662.887 792.649 643.988 772.082 643.988 746.711C643.988 721.34 662.887 700.773 686.201 700.773C709.515 700.773 728.415 721.34 728.415 746.711C728.415 772.082 709.515 792.649 686.201 792.649Z" stroke="#6D9C66" stroke-opacity="0.3" stroke-width="0.833455" stroke-miterlimit="1.5" stroke-linecap="round" stroke-linejoin="round"/>
</svg>
