<svg width="80" height="540" viewBox="0 0 80 540" fill="none" xmlns="http://www.w3.org/2000/svg">
<path fill-rule="evenodd" clip-rule="evenodd" d="M12 4.80001L8 4.80001L8 14.4L12 14.4L12 19.2L16 19.2L16 24L24 24L24 19.2L28 19.2L28 14.4L32 14.4L32 4.80001L28 4.80001L28 -1.89216e-06L12 -3.29092e-06L12 4.80001Z" fill="#BFA6E9"/>
<path fill-rule="evenodd" clip-rule="evenodd" d="M2 22L5.24536e-07 22L1.74846e-07 26L2 26L2 28L6 28L6 26L8 26L8 22L6 22L6 20L2 20L2 22Z" fill="#BFA6E9"/>
<path fill-rule="evenodd" clip-rule="evenodd" d="M12 34L10 34L10 38L12 38L12 40L16 40L16 38L18 38L18 34L16 34L16 32L12 32L12 34Z" fill="#BFA6E9"/>
<path fill-rule="evenodd" clip-rule="evenodd" d="M24 34L22 34L22 38L24 38L24 40L28 40L28 38L30 38L30 34L28 34L28 32L24 32L24 34Z" fill="#BFA6E9"/>
<path fill-rule="evenodd" clip-rule="evenodd" d="M34 22L32 22L32 26L34 26L34 28L38 28L38 26L40 26L40 22L38 22L38 20L34 20L34 22Z" fill="#BFA6E9"/>
</svg>
