<svg width="80" height="540" viewBox="0 0 80 540" fill="none" xmlns="http://www.w3.org/2000/svg">
<path fill-rule="evenodd" clip-rule="evenodd" d="M68 4.80001L72 4.80001L72 14.4L68 14.4L68 19.2L64 19.2L64 24L56 24L56 19.2L52 19.2L52 14.4L48 14.4L48 4.80001L52 4.80001L52 -1.89216e-06L68 -3.29092e-06L68 4.80001Z" fill="#BFA6E9"/>
<path fill-rule="evenodd" clip-rule="evenodd" d="M78 22L80 22L80 26L78 26L78 28L74 28L74 26L72 26L72 22L74 22L74 20L78 20L78 22Z" fill="#BFA6E9"/>
<path fill-rule="evenodd" clip-rule="evenodd" d="M68 34L70 34L70 38L68 38L68 40L64 40L64 38L62 38L62 34L64 34L64 32L68 32L68 34Z" fill="#BFA6E9"/>
<path fill-rule="evenodd" clip-rule="evenodd" d="M56 34L58 34L58 38L56 38L56 40L52 40L52 38L50 38L50 34L52 34L52 32L56 32L56 34Z" fill="#BFA6E9"/>
<path fill-rule="evenodd" clip-rule="evenodd" d="M46 22L48 22L48 26L46 26L46 28L42 28L42 26L40 26L40 22L42 22L42 20L46 20L46 22Z" fill="#BFA6E9"/>
</svg>
