<svg width="80" height="540" viewBox="0 0 80 540" fill="none" xmlns="http://www.w3.org/2000/svg">
<path fill-rule="evenodd" clip-rule="evenodd" d="M52 304.8L48 304.8L48 314.4L52 314.4L52 319.2L56 319.2L56 324L64 324L64 319.2L68 319.2L68 314.4L72 314.4L72 304.8L68 304.8L68 300L52 300L52 304.8Z" fill="#BFA6E9"/>
<path fill-rule="evenodd" clip-rule="evenodd" d="M42 322L40 322L40 326L42 326L42 328L46 328L46 326L48 326L48 322L46 322L46 320L42 320L42 322Z" fill="#BFA6E9"/>
<path fill-rule="evenodd" clip-rule="evenodd" d="M52 334L50 334L50 338L52 338L52 340L56 340L56 338L58 338L58 334L56 334L56 332L52 332L52 334Z" fill="#BFA6E9"/>
<path fill-rule="evenodd" clip-rule="evenodd" d="M64 334L62 334L62 338L64 338L64 340L68 340L68 338L70 338L70 334L68 334L68 332L64 332L64 334Z" fill="#BFA6E9"/>
<path fill-rule="evenodd" clip-rule="evenodd" d="M74 322L72 322L72 326L74 326L74 328L78 328L78 326L80 326L80 322L78 322L78 320L74 320L74 322Z" fill="#BFA6E9"/>
<path fill-rule="evenodd" clip-rule="evenodd" d="M52 104.8L48 104.8L48 114.4L52 114.4L52 119.2L56 119.2L56 124L64 124L64 119.2L68 119.2L68 114.4L72 114.4L72 104.8L68 104.8L68 100L52 100L52 104.8Z" fill="#BFA6E9"/>
<path fill-rule="evenodd" clip-rule="evenodd" d="M42 122L40 122L40 126L42 126L42 128L46 128L46 126L48 126L48 122L46 122L46 120L42 120L42 122Z" fill="#BFA6E9"/>
<path fill-rule="evenodd" clip-rule="evenodd" d="M52 134L50 134L50 138L52 138L52 140L56 140L56 138L58 138L58 134L56 134L56 132L52 132L52 134Z" fill="#BFA6E9"/>
<path fill-rule="evenodd" clip-rule="evenodd" d="M64 134L62 134L62 138L64 138L64 140L68 140L68 138L70 138L70 134L68 134L68 132L64 132L64 134Z" fill="#BFA6E9"/>
<path fill-rule="evenodd" clip-rule="evenodd" d="M74 122L72 122L72 126L74 126L74 128L78 128L78 126L80 126L80 122L78 122L78 120L74 120L74 122Z" fill="#BFA6E9"/>
<path fill-rule="evenodd" clip-rule="evenodd" d="M12 404.8L8 404.8L8 414.4L12 414.4L12 419.2L16 419.2L16 424L24 424L24 419.2L28 419.2L28 414.4L32 414.4L32 404.8L28 404.8L28 400L12 400L12 404.8Z" fill="#BFA6E9"/>
<path fill-rule="evenodd" clip-rule="evenodd" d="M2 422L5.24536e-07 422L1.74846e-07 426L2 426L2 428L6 428L6 426L8 426L8 422L6 422L6 420L2 420L2 422Z" fill="#BFA6E9"/>
<path fill-rule="evenodd" clip-rule="evenodd" d="M12 434L10 434L10 438L12 438L12 440L16 440L16 438L18 438L18 434L16 434L16 432L12 432L12 434Z" fill="#BFA6E9"/>
<path fill-rule="evenodd" clip-rule="evenodd" d="M24 434L22 434L22 438L24 438L24 440L28 440L28 438L30 438L30 434L28 434L28 432L24 432L24 434Z" fill="#BFA6E9"/>
<path fill-rule="evenodd" clip-rule="evenodd" d="M34 422L32 422L32 426L34 426L34 428L38 428L38 426L40 426L40 422L38 422L38 420L34 420L34 422Z" fill="#BFA6E9"/>
<path fill-rule="evenodd" clip-rule="evenodd" d="M12 204.8L8 204.8L8 214.4L12 214.4L12 219.2L16 219.2L16 224L24 224L24 219.2L28 219.2L28 214.4L32 214.4L32 204.8L28 204.8L28 200L12 200L12 204.8Z" fill="#BFA6E9"/>
<path fill-rule="evenodd" clip-rule="evenodd" d="M2 222L5.24536e-07 222L1.74846e-07 226L2 226L2 228L6 228L6 226L8 226L8 222L6 222L6 220L2 220L2 222Z" fill="#BFA6E9"/>
<path fill-rule="evenodd" clip-rule="evenodd" d="M12 234L10 234L10 238L12 238L12 240L16 240L16 238L18 238L18 234L16 234L16 232L12 232L12 234Z" fill="#BFA6E9"/>
<path fill-rule="evenodd" clip-rule="evenodd" d="M24 234L22 234L22 238L24 238L24 240L28 240L28 238L30 238L30 234L28 234L28 232L24 232L24 234Z" fill="#BFA6E9"/>
<path fill-rule="evenodd" clip-rule="evenodd" d="M34 222L32 222L32 226L34 226L34 228L38 228L38 226L40 226L40 222L38 222L38 220L34 220L34 222Z" fill="#BFA6E9"/>
<path fill-rule="evenodd" clip-rule="evenodd" d="M12 4.80001L8 4.80001L8 14.4L12 14.4L12 19.2L16 19.2L16 24L24 24L24 19.2L28 19.2L28 14.4L32 14.4L32 4.80001L28 4.80001L28 -1.89216e-06L12 -3.29092e-06L12 4.80001Z" fill="#BFA6E9"/>
<path fill-rule="evenodd" clip-rule="evenodd" d="M2 22L5.24536e-07 22L1.74846e-07 26L2 26L2 28L6 28L6 26L8 26L8 22L6 22L6 20L2 20L2 22Z" fill="#BFA6E9"/>
<path fill-rule="evenodd" clip-rule="evenodd" d="M12 34L10 34L10 38L12 38L12 40L16 40L16 38L18 38L18 34L16 34L16 32L12 32L12 34Z" fill="#BFA6E9"/>
<path fill-rule="evenodd" clip-rule="evenodd" d="M24 34L22 34L22 38L24 38L24 40L28 40L28 38L30 38L30 34L28 34L28 32L24 32L24 34Z" fill="#BFA6E9"/>
<path fill-rule="evenodd" clip-rule="evenodd" d="M34 22L32 22L32 26L34 26L34 28L38 28L38 26L40 26L40 22L38 22L38 20L34 20L34 22Z" fill="#BFA6E9"/>
</svg>
