<svg width="80" height="540" viewBox="0 0 80 540" fill="none" xmlns="http://www.w3.org/2000/svg">
<path fill-rule="evenodd" clip-rule="evenodd" d="M28 304.8L32 304.8L32 314.4L28 314.4L28 319.2L24 319.2L24 324L16 324L16 319.2L12 319.2L12 314.4L8 314.4L8 304.8L12 304.8L12 300L28 300L28 304.8Z" fill="#BFA6E9"/>
<path fill-rule="evenodd" clip-rule="evenodd" d="M38 322L40 322L40 326L38 326L38 328L34 328L34 326L32 326L32 322L34 322L34 320L38 320L38 322Z" fill="#BFA6E9"/>
<path fill-rule="evenodd" clip-rule="evenodd" d="M28 334L30 334L30 338L28 338L28 340L24 340L24 338L22 338L22 334L24 334L24 332L28 332L28 334Z" fill="#BFA6E9"/>
<path fill-rule="evenodd" clip-rule="evenodd" d="M16 334L18 334L18 338L16 338L16 340L12 340L12 338L10 338L10 334L12 334L12 332L16 332L16 334Z" fill="#BFA6E9"/>
<path fill-rule="evenodd" clip-rule="evenodd" d="M6 322L8 322L8 326L6 326L6 328L2 328L2 326L-3.64513e-07 326L-7.14204e-07 322L2 322L2 320L6 320L6 322Z" fill="#BFA6E9"/>
<path fill-rule="evenodd" clip-rule="evenodd" d="M28 104.8L32 104.8L32 114.4L28 114.4L28 119.2L24 119.2L24 124L16 124L16 119.2L12 119.2L12 114.4L8 114.4L8 104.8L12 104.8L12 100L28 100L28 104.8Z" fill="#BFA6E9"/>
<path fill-rule="evenodd" clip-rule="evenodd" d="M38 122L40 122L40 126L38 126L38 128L34 128L34 126L32 126L32 122L34 122L34 120L38 120L38 122Z" fill="#BFA6E9"/>
<path fill-rule="evenodd" clip-rule="evenodd" d="M28 134L30 134L30 138L28 138L28 140L24 140L24 138L22 138L22 134L24 134L24 132L28 132L28 134Z" fill="#BFA6E9"/>
<path fill-rule="evenodd" clip-rule="evenodd" d="M16 134L18 134L18 138L16 138L16 140L12 140L12 138L10 138L10 134L12 134L12 132L16 132L16 134Z" fill="#BFA6E9"/>
<path fill-rule="evenodd" clip-rule="evenodd" d="M6 122L8 122L8 126L6 126L6 128L2 128L2 126L-3.64513e-07 126L-7.14204e-07 122L2 122L2 120L6 120L6 122Z" fill="#BFA6E9"/>
<path fill-rule="evenodd" clip-rule="evenodd" d="M68 204.8L72 204.8L72 214.4L68 214.4L68 219.2L64 219.2L64 224L56 224L56 219.2L52 219.2L52 214.4L48 214.4L48 204.8L52 204.8L52 200L68 200L68 204.8Z" fill="#BFA6E9"/>
<path fill-rule="evenodd" clip-rule="evenodd" d="M78 222L80 222L80 226L78 226L78 228L74 228L74 226L72 226L72 222L74 222L74 220L78 220L78 222Z" fill="#BFA6E9"/>
<path fill-rule="evenodd" clip-rule="evenodd" d="M68 234L70 234L70 238L68 238L68 240L64 240L64 238L62 238L62 234L64 234L64 232L68 232L68 234Z" fill="#BFA6E9"/>
<path fill-rule="evenodd" clip-rule="evenodd" d="M56 234L58 234L58 238L56 238L56 240L52 240L52 238L50 238L50 234L52 234L52 232L56 232L56 234Z" fill="#BFA6E9"/>
<path fill-rule="evenodd" clip-rule="evenodd" d="M46 222L48 222L48 226L46 226L46 228L42 228L42 226L40 226L40 222L42 222L42 220L46 220L46 222Z" fill="#BFA6E9"/>
<path fill-rule="evenodd" clip-rule="evenodd" d="M68 4.80001L72 4.80001L72 14.4L68 14.4L68 19.2L64 19.2L64 24L56 24L56 19.2L52 19.2L52 14.4L48 14.4L48 4.80001L52 4.80001L52 -1.89216e-06L68 -3.29092e-06L68 4.80001Z" fill="#BFA6E9"/>
<path fill-rule="evenodd" clip-rule="evenodd" d="M78 22L80 22L80 26L78 26L78 28L74 28L74 26L72 26L72 22L74 22L74 20L78 20L78 22Z" fill="#BFA6E9"/>
<path fill-rule="evenodd" clip-rule="evenodd" d="M68 34L70 34L70 38L68 38L68 40L64 40L64 38L62 38L62 34L64 34L64 32L68 32L68 34Z" fill="#BFA6E9"/>
<path fill-rule="evenodd" clip-rule="evenodd" d="M56 34L58 34L58 38L56 38L56 40L52 40L52 38L50 38L50 34L52 34L52 32L56 32L56 34Z" fill="#BFA6E9"/>
<path fill-rule="evenodd" clip-rule="evenodd" d="M46 22L48 22L48 26L46 26L46 28L42 28L42 26L40 26L40 22L42 22L42 20L46 20L46 22Z" fill="#BFA6E9"/>
</svg>
